<svg width="623" height="101" viewBox="0 0 623 101" fill="none" xmlns="http://www.w3.org/2000/svg">
<g filter="url(#filter0_d_829_7553)">
<path d="M118.97 84V60.465H123.92V84H118.97ZM118.97 56.595V51.15H123.92V56.595H118.97ZM150.693 84H145.743V70.815C145.743 68.625 145.383 67.02 144.663 66C143.973 64.98 142.938 64.47 141.558 64.47C140.598 64.47 139.638 64.71 138.678 65.19C137.748 65.67 136.908 66.33 136.158 67.17C135.408 67.98 134.868 68.925 134.538 70.005V84H129.588V60.465H134.088V65.19C134.688 64.14 135.468 63.24 136.428 62.49C137.418 61.71 138.528 61.11 139.758 60.69C140.988 60.27 142.293 60.06 143.673 60.06C145.083 60.06 146.238 60.315 147.138 60.825C148.068 61.335 148.788 62.04 149.298 62.94C149.838 63.81 150.198 64.83 150.378 66C150.588 67.14 150.693 68.355 150.693 69.645V84ZM157.333 84V64.875H154.183V61.05H157.333V60.105C157.333 58.185 157.633 56.52 158.233 55.11C158.863 53.7 159.733 52.62 160.843 51.87C161.983 51.09 163.318 50.7 164.848 50.7C165.808 50.7 166.753 50.835 167.683 51.105C168.613 51.345 169.498 51.69 170.338 52.14L169.258 55.83C168.808 55.53 168.268 55.305 167.638 55.155C167.038 54.975 166.453 54.885 165.883 54.885C164.743 54.885 163.858 55.32 163.228 56.19C162.598 57.06 162.283 58.32 162.283 59.97V61.05H168.313V64.875H162.283V84H157.333ZM181.923 84.45C180.063 84.45 178.398 84.135 176.928 83.505C175.458 82.845 174.183 81.945 173.103 80.805C172.053 79.665 171.243 78.375 170.673 76.935C170.103 75.465 169.818 73.905 169.818 72.255C169.818 70.605 170.103 69.045 170.673 67.575C171.243 66.105 172.053 64.815 173.103 63.705C174.183 62.565 175.458 61.68 176.928 61.05C178.428 60.39 180.093 60.06 181.923 60.06C183.753 60.06 185.403 60.39 186.873 61.05C188.373 61.68 189.648 62.565 190.698 63.705C191.778 64.815 192.603 66.105 193.173 67.575C193.743 69.045 194.028 70.605 194.028 72.255C194.028 73.905 193.743 75.465 193.173 76.935C192.603 78.375 191.778 79.665 190.698 80.805C189.648 81.945 188.373 82.845 186.873 83.505C185.403 84.135 183.753 84.45 181.923 84.45ZM174.903 72.3C174.903 73.8 175.218 75.15 175.848 76.35C176.478 77.55 177.318 78.495 178.368 79.185C179.418 79.875 180.603 80.22 181.923 80.22C183.213 80.22 184.383 79.875 185.433 79.185C186.513 78.465 187.368 77.505 187.998 76.305C188.628 75.075 188.943 73.725 188.943 72.255C188.943 70.755 188.628 69.405 187.998 68.205C187.368 67.005 186.513 66.06 185.433 65.37C184.383 64.65 183.213 64.29 181.923 64.29C180.603 64.29 179.418 64.65 178.368 65.37C177.318 66.09 176.478 67.05 175.848 68.25C175.218 69.42 174.903 70.77 174.903 72.3ZM214.068 56.865C216.288 56.865 218.388 57.255 220.368 58.035C222.378 58.785 224.163 59.91 225.723 61.41C227.283 62.88 228.513 64.68 229.413 66.81C230.313 68.91 230.763 71.31 230.763 74.01C230.763 74.52 230.718 75.21 230.628 76.08C230.568 76.95 230.418 77.88 230.178 78.87C229.938 79.86 229.563 80.805 229.053 81.705C228.573 82.575 227.913 83.295 227.073 83.865C226.233 84.435 225.183 84.72 223.923 84.72C222.873 84.72 222.063 84.525 221.493 84.135C220.923 83.745 220.518 83.265 220.278 82.695C220.068 82.095 219.918 81.48 219.828 80.85C218.958 81.78 217.848 82.545 216.498 83.145C215.178 83.715 213.738 84 212.178 84C209.988 84 208.293 83.415 207.093 82.245C205.923 81.075 205.338 79.59 205.338 77.79C205.338 76.17 205.743 74.895 206.553 73.965C207.393 73.035 208.458 72.375 209.748 71.985C211.068 71.595 212.388 71.4 213.708 71.4C214.968 71.4 216.063 71.52 216.993 71.76C217.923 72 218.613 72.21 219.063 72.39C219.063 71.19 218.913 70.125 218.613 69.195C218.313 68.265 217.773 67.545 216.993 67.035C216.243 66.525 215.163 66.27 213.753 66.27C212.553 66.27 211.428 66.45 210.378 66.81C209.358 67.17 208.443 67.665 207.633 68.295L206.643 65.595C207.723 64.875 208.908 64.32 210.198 63.93C211.488 63.54 212.823 63.345 214.203 63.345C216.063 63.345 217.518 63.63 218.568 64.2C219.648 64.74 220.428 65.49 220.908 66.45C221.418 67.38 221.748 68.4 221.898 69.51C222.048 70.59 222.123 71.64 222.123 72.66V77.52C222.123 78.39 222.153 79.2 222.213 79.95C222.303 80.7 222.513 81.3 222.843 81.75C223.173 82.17 223.683 82.38 224.373 82.38C225.243 82.38 225.948 82.08 226.488 81.48C227.028 80.88 227.448 80.13 227.748 79.23C228.048 78.3 228.258 77.355 228.378 76.395C228.498 75.435 228.558 74.61 228.558 73.92C228.558 71.79 228.198 69.825 227.478 68.025C226.758 66.195 225.738 64.605 224.418 63.255C223.128 61.905 221.598 60.855 219.828 60.105C218.058 59.325 216.093 58.935 213.933 58.935C211.863 58.935 209.928 59.31 208.128 60.06C206.358 60.78 204.813 61.8 203.493 63.12C202.203 64.44 201.183 66 200.433 67.8C199.713 69.6 199.353 71.55 199.353 73.65C199.353 75.72 199.698 77.655 200.388 79.455C201.078 81.225 202.053 82.785 203.313 84.135C204.573 85.485 206.058 86.55 207.768 87.33C209.508 88.11 211.428 88.5 213.528 88.5C214.908 88.5 216.138 88.335 217.218 88.005C218.298 87.675 219.393 87.27 220.503 86.79L221.223 88.77C219.993 89.37 218.718 89.82 217.398 90.12C216.078 90.42 214.773 90.57 213.483 90.57C211.233 90.57 209.118 90.15 207.138 89.31C205.188 88.5 203.463 87.345 201.963 85.845C200.463 84.345 199.278 82.56 198.408 80.49C197.568 78.42 197.148 76.14 197.148 73.65C197.148 71.01 197.598 68.655 198.498 66.585C199.428 64.515 200.688 62.76 202.278 61.32C203.868 59.88 205.668 58.785 207.678 58.035C209.718 57.255 211.848 56.865 214.068 56.865ZM216.498 80.355C217.158 80.025 217.668 79.665 218.028 79.275C218.388 78.855 218.643 78.42 218.793 77.97C218.943 77.49 219.018 77.01 219.018 76.53V74.82C218.598 74.73 217.923 74.55 216.993 74.28C216.063 74.01 214.968 73.875 213.708 73.875C212.748 73.875 211.863 73.995 211.053 74.235C210.243 74.475 209.598 74.88 209.118 75.45C208.638 75.99 208.398 76.725 208.398 77.655C208.398 78.345 208.563 78.975 208.893 79.545C209.223 80.085 209.688 80.52 210.288 80.85C210.888 81.15 211.608 81.3 212.448 81.3C213.108 81.3 213.798 81.21 214.518 81.03C215.268 80.85 215.928 80.625 216.498 80.355ZM256.888 84H251.938V70.815C251.938 68.685 251.548 67.095 250.768 66.045C249.988 64.995 248.893 64.47 247.483 64.47C246.613 64.47 245.713 64.71 244.783 65.19C243.853 65.67 243.028 66.33 242.308 67.17C241.588 67.98 241.063 68.925 240.733 70.005V84H235.783V51.15H240.733V65.19C241.633 63.6 242.863 62.355 244.423 61.455C245.983 60.525 247.663 60.06 249.463 60.06C250.933 60.06 252.148 60.315 253.108 60.825C254.068 61.335 254.818 62.04 255.358 62.94C255.928 63.81 256.318 64.83 256.528 66C256.768 67.14 256.888 68.355 256.888 69.645V84ZM260.643 77.115C260.643 75.615 261.063 74.31 261.903 73.2C262.773 72.06 263.958 71.19 265.458 70.59C266.958 69.96 268.698 69.645 270.678 69.645C271.728 69.645 272.793 69.72 273.873 69.87C274.983 70.02 275.958 70.26 276.798 70.59V69.105C276.798 67.455 276.303 66.165 275.313 65.235C274.323 64.305 272.898 63.84 271.038 63.84C269.718 63.84 268.473 64.08 267.303 64.56C266.133 65.01 264.888 65.655 263.568 66.495L261.903 63.165C263.463 62.115 265.023 61.335 266.583 60.825C268.173 60.315 269.838 60.06 271.578 60.06C274.728 60.06 277.203 60.9 279.003 62.58C280.833 64.23 281.748 66.585 281.748 69.645V78.42C281.748 78.99 281.838 79.395 282.018 79.635C282.228 79.875 282.573 80.01 283.053 80.04V84C282.603 84.09 282.198 84.15 281.838 84.18C281.478 84.21 281.178 84.225 280.938 84.225C279.888 84.225 279.093 83.97 278.553 83.46C278.013 82.95 277.698 82.35 277.608 81.66L277.473 80.31C276.453 81.63 275.148 82.65 273.558 83.37C271.968 84.09 270.363 84.45 268.743 84.45C267.183 84.45 265.788 84.135 264.558 83.505C263.328 82.845 262.368 81.96 261.678 80.85C260.988 79.74 260.643 78.495 260.643 77.115ZM275.628 78.555C275.988 78.165 276.273 77.775 276.483 77.385C276.693 76.995 276.798 76.65 276.798 76.35V73.65C275.958 73.32 275.073 73.08 274.143 72.93C273.213 72.75 272.298 72.66 271.398 72.66C269.598 72.66 268.128 73.02 266.988 73.74C265.878 74.46 265.323 75.45 265.323 76.71C265.323 77.4 265.503 78.06 265.863 78.69C266.253 79.32 266.793 79.83 267.483 80.22C268.203 80.61 269.088 80.805 270.138 80.805C271.218 80.805 272.253 80.595 273.243 80.175C274.233 79.755 275.028 79.215 275.628 78.555ZM308.579 84H303.629V70.815C303.629 68.625 303.269 67.02 302.549 66C301.859 64.98 300.824 64.47 299.444 64.47C298.484 64.47 297.524 64.71 296.564 65.19C295.634 65.67 294.794 66.33 294.044 67.17C293.294 67.98 292.754 68.925 292.424 70.005V84H287.474V60.465H291.974V65.19C292.574 64.14 293.354 63.24 294.314 62.49C295.304 61.71 296.414 61.11 297.644 60.69C298.874 60.27 300.179 60.06 301.559 60.06C302.969 60.06 304.124 60.315 305.024 60.825C305.954 61.335 306.674 62.04 307.184 62.94C307.724 63.81 308.084 64.83 308.264 66C308.474 67.14 308.579 68.355 308.579 69.645V84ZM335.149 84H330.199V70.815C330.199 68.625 329.839 67.02 329.119 66C328.429 64.98 327.394 64.47 326.014 64.47C325.054 64.47 324.094 64.71 323.134 65.19C322.204 65.67 321.364 66.33 320.614 67.17C319.864 67.98 319.324 68.925 318.994 70.005V84H314.044V60.465H318.544V65.19C319.144 64.14 319.924 63.24 320.884 62.49C321.874 61.71 322.984 61.11 324.214 60.69C325.444 60.27 326.749 60.06 328.129 60.06C329.539 60.06 330.694 60.315 331.594 60.825C332.524 61.335 333.244 62.04 333.754 62.94C334.294 63.81 334.654 64.83 334.834 66C335.044 67.14 335.149 68.355 335.149 69.645V84ZM340.39 74.865V60.465H345.34V73.875C345.34 75.975 345.715 77.565 346.465 78.645C347.245 79.695 348.37 80.22 349.84 80.22C350.77 80.22 351.67 80.025 352.54 79.635C353.44 79.245 354.25 78.675 354.97 77.925C355.72 77.145 356.32 76.215 356.77 75.135V60.465H361.72V78.42C361.72 78.99 361.825 79.395 362.035 79.635C362.245 79.875 362.59 80.01 363.07 80.04V84C362.56 84.09 362.14 84.15 361.81 84.18C361.48 84.21 361.165 84.225 360.865 84.225C359.965 84.225 359.215 83.985 358.615 83.505C358.015 82.995 357.67 82.35 357.58 81.57L357.49 79.23C356.44 80.94 355.075 82.245 353.395 83.145C351.715 84.015 349.87 84.45 347.86 84.45C345.4 84.45 343.54 83.64 342.28 82.02C341.02 80.4 340.39 78.015 340.39 74.865ZM367.802 51.15H372.752V77.205C372.752 78.405 372.932 79.17 373.292 79.5C373.652 79.83 374.102 79.995 374.642 79.995C375.242 79.995 375.797 79.935 376.307 79.815C376.847 79.695 377.312 79.545 377.702 79.365L378.422 83.28C377.702 83.58 376.847 83.835 375.857 84.045C374.867 84.255 373.982 84.36 373.202 84.36C371.522 84.36 370.202 83.895 369.242 82.965C368.282 82.005 367.802 80.685 367.802 79.005V51.15ZM379.302 77.115C379.302 75.615 379.722 74.31 380.562 73.2C381.432 72.06 382.617 71.19 384.117 70.59C385.617 69.96 387.357 69.645 389.337 69.645C390.387 69.645 391.452 69.72 392.532 69.87C393.642 70.02 394.617 70.26 395.457 70.59V69.105C395.457 67.455 394.962 66.165 393.972 65.235C392.982 64.305 391.557 63.84 389.697 63.84C388.377 63.84 387.132 64.08 385.962 64.56C384.792 65.01 383.547 65.655 382.227 66.495L380.562 63.165C382.122 62.115 383.682 61.335 385.242 60.825C386.832 60.315 388.497 60.06 390.237 60.06C393.387 60.06 395.862 60.9 397.662 62.58C399.492 64.23 400.407 66.585 400.407 69.645V78.42C400.407 78.99 400.497 79.395 400.677 79.635C400.887 79.875 401.232 80.01 401.712 80.04V84C401.262 84.09 400.857 84.15 400.497 84.18C400.137 84.21 399.837 84.225 399.597 84.225C398.547 84.225 397.752 83.97 397.212 83.46C396.672 82.95 396.357 82.35 396.267 81.66L396.132 80.31C395.112 81.63 393.807 82.65 392.217 83.37C390.627 84.09 389.022 84.45 387.402 84.45C385.842 84.45 384.447 84.135 383.217 83.505C381.987 82.845 381.027 81.96 380.337 80.85C379.647 79.74 379.302 78.495 379.302 77.115ZM394.287 78.555C394.647 78.165 394.932 77.775 395.142 77.385C395.352 76.995 395.457 76.65 395.457 76.35V73.65C394.617 73.32 393.732 73.08 392.802 72.93C391.872 72.75 390.957 72.66 390.057 72.66C388.257 72.66 386.787 73.02 385.647 73.74C384.537 74.46 383.982 75.45 383.982 76.71C383.982 77.4 384.162 78.06 384.522 78.69C384.912 79.32 385.452 79.83 386.142 80.22C386.862 80.61 387.747 80.805 388.797 80.805C389.877 80.805 390.912 80.595 391.902 80.175C392.892 79.755 393.687 79.215 394.287 78.555ZM434.681 60.465H439.406L429.506 84H425.276L421.046 73.38L416.816 84H412.586L402.641 60.465H407.366L414.926 79.185L418.256 70.5L414.206 60.51H418.391L421.046 67.845L423.656 60.51H427.841L423.836 70.5L427.166 79.185L434.681 60.465ZM452.289 84.45C450.459 84.45 448.794 84.135 447.294 83.505C445.824 82.845 444.549 81.96 443.469 80.85C442.389 79.71 441.549 78.42 440.949 76.98C440.379 75.51 440.094 73.95 440.094 72.3C440.094 70.08 440.604 68.055 441.624 66.225C442.644 64.365 444.069 62.88 445.899 61.77C447.729 60.63 449.874 60.06 452.334 60.06C454.794 60.06 456.909 60.63 458.679 61.77C460.479 62.88 461.874 64.35 462.864 66.18C463.854 68.01 464.349 69.975 464.349 72.075C464.349 72.435 464.334 72.78 464.304 73.11C464.274 73.41 464.244 73.665 464.214 73.875H445.359C445.449 75.255 445.824 76.47 446.484 77.52C447.174 78.54 448.044 79.35 449.094 79.95C450.144 80.52 451.269 80.805 452.469 80.805C453.789 80.805 455.034 80.475 456.204 79.815C457.404 79.155 458.214 78.285 458.634 77.205L462.864 78.42C462.354 79.56 461.574 80.595 460.524 81.525C459.504 82.425 458.289 83.145 456.879 83.685C455.469 84.195 453.939 84.45 452.289 84.45ZM445.224 70.59H459.444C459.354 69.24 458.964 68.055 458.274 67.035C457.614 65.985 456.759 65.175 455.709 64.605C454.689 64.005 453.549 63.705 452.289 63.705C451.059 63.705 449.919 64.005 448.869 64.605C447.849 65.175 447.009 65.985 446.349 67.035C445.689 68.055 445.314 69.24 445.224 70.59ZM468.152 51.15H473.102V77.205C473.102 78.405 473.282 79.17 473.642 79.5C474.002 79.83 474.452 79.995 474.992 79.995C475.592 79.995 476.147 79.935 476.657 79.815C477.197 79.695 477.662 79.545 478.052 79.365L478.772 83.28C478.052 83.58 477.197 83.835 476.207 84.045C475.217 84.255 474.332 84.36 473.552 84.36C471.872 84.36 470.552 83.895 469.592 82.965C468.632 82.005 468.152 80.685 468.152 79.005V51.15ZM481.407 51.15H486.357V77.205C486.357 78.405 486.537 79.17 486.897 79.5C487.257 79.83 487.707 79.995 488.247 79.995C488.847 79.995 489.402 79.935 489.912 79.815C490.452 79.695 490.917 79.545 491.307 79.365L492.027 83.28C491.307 83.58 490.452 83.835 489.462 84.045C488.472 84.255 487.587 84.36 486.807 84.36C485.127 84.36 483.807 83.895 482.847 82.965C481.887 82.005 481.407 80.685 481.407 79.005V51.15ZM502.987 84.45C501.007 84.45 499.132 84.135 497.362 83.505C495.592 82.845 494.077 81.87 492.817 80.58L494.662 77.25C496.012 78.45 497.362 79.32 498.712 79.86C500.092 80.4 501.457 80.67 502.807 80.67C504.187 80.67 505.312 80.415 506.182 79.905C507.052 79.365 507.487 78.585 507.487 77.565C507.487 76.815 507.262 76.26 506.812 75.9C506.362 75.54 505.702 75.225 504.832 74.955C503.992 74.685 502.972 74.385 501.772 74.055C500.092 73.545 498.682 73.02 497.542 72.48C496.402 71.91 495.547 71.22 494.977 70.41C494.407 69.6 494.122 68.565 494.122 67.305C494.122 65.775 494.512 64.47 495.292 63.39C496.072 62.31 497.152 61.485 498.532 60.915C499.942 60.345 501.562 60.06 503.392 60.06C505.102 60.06 506.677 60.33 508.117 60.87C509.587 61.38 510.877 62.19 511.987 63.3L509.872 66.585C508.822 65.625 507.742 64.92 506.632 64.47C505.552 64.02 504.382 63.795 503.122 63.795C502.402 63.795 501.712 63.885 501.052 64.065C500.392 64.215 499.837 64.515 499.387 64.965C498.967 65.385 498.757 65.985 498.757 66.765C498.757 67.395 498.937 67.905 499.297 68.295C499.657 68.685 500.197 69.015 500.917 69.285C501.637 69.555 502.522 69.855 503.572 70.185C505.402 70.725 506.962 71.265 508.252 71.805C509.542 72.315 510.532 72.99 511.222 73.83C511.942 74.64 512.302 75.765 512.302 77.205C512.302 79.485 511.447 81.27 509.737 82.56C508.057 83.82 505.807 84.45 502.987 84.45ZM516.216 84V78.24H520.311V84H516.216ZM535.703 84.45C533.873 84.45 532.208 84.135 530.708 83.505C529.238 82.845 527.963 81.945 526.883 80.805C525.803 79.665 524.963 78.36 524.363 76.89C523.793 75.42 523.508 73.86 523.508 72.21C523.508 69.99 524.003 67.965 524.993 66.135C526.013 64.305 527.423 62.835 529.223 61.725C531.053 60.615 533.213 60.06 535.703 60.06C538.103 60.06 540.188 60.6 541.958 61.68C543.758 62.73 545.078 64.14 545.918 65.91L541.103 67.44C540.563 66.45 539.798 65.685 538.808 65.145C537.848 64.575 536.783 64.29 535.613 64.29C534.293 64.29 533.093 64.635 532.013 65.325C530.963 65.985 530.123 66.915 529.493 68.115C528.893 69.285 528.593 70.65 528.593 72.21C528.593 73.71 528.908 75.075 529.538 76.305C530.168 77.505 531.008 78.465 532.058 79.185C533.138 79.875 534.338 80.22 535.658 80.22C536.468 80.22 537.248 80.085 537.998 79.815C538.778 79.515 539.453 79.125 540.023 78.645C540.593 78.135 540.998 77.58 541.238 76.98L546.098 78.42C545.588 79.59 544.823 80.625 543.803 81.525C542.813 82.425 541.628 83.145 540.248 83.685C538.898 84.195 537.383 84.45 535.703 84.45ZM560.25 84.45C558.39 84.45 556.725 84.135 555.255 83.505C553.785 82.845 552.51 81.945 551.43 80.805C550.38 79.665 549.57 78.375 549 76.935C548.43 75.465 548.145 73.905 548.145 72.255C548.145 70.605 548.43 69.045 549 67.575C549.57 66.105 550.38 64.815 551.43 63.705C552.51 62.565 553.785 61.68 555.255 61.05C556.755 60.39 558.42 60.06 560.25 60.06C562.08 60.06 563.73 60.39 565.2 61.05C566.7 61.68 567.975 62.565 569.025 63.705C570.105 64.815 570.93 66.105 571.5 67.575C572.07 69.045 572.355 70.605 572.355 72.255C572.355 73.905 572.07 75.465 571.5 76.935C570.93 78.375 570.105 79.665 569.025 80.805C567.975 81.945 566.7 82.845 565.2 83.505C563.73 84.135 562.08 84.45 560.25 84.45ZM553.23 72.3C553.23 73.8 553.545 75.15 554.175 76.35C554.805 77.55 555.645 78.495 556.695 79.185C557.745 79.875 558.93 80.22 560.25 80.22C561.54 80.22 562.71 79.875 563.76 79.185C564.84 78.465 565.695 77.505 566.325 76.305C566.955 75.075 567.27 73.725 567.27 72.255C567.27 70.755 566.955 69.405 566.325 68.205C565.695 67.005 564.84 66.06 563.76 65.37C562.71 64.65 561.54 64.29 560.25 64.29C558.93 64.29 557.745 64.65 556.695 65.37C555.645 66.09 554.805 67.05 554.175 68.25C553.545 69.42 553.23 70.77 553.23 72.3ZM612.466 84H607.516V70.815C607.516 68.625 607.156 67.02 606.436 66C605.716 64.98 604.666 64.47 603.286 64.47C601.906 64.47 600.616 64.995 599.416 66.045C598.246 67.065 597.421 68.4 596.941 70.05V84H591.991V70.815C591.991 68.625 591.631 67.02 590.911 66C590.191 64.98 589.156 64.47 587.806 64.47C586.426 64.47 585.136 64.98 583.936 66C582.766 67.02 581.926 68.355 581.416 70.005V84H576.466V60.465H580.966V65.19C581.896 63.54 583.111 62.28 584.611 61.41C586.141 60.51 587.881 60.06 589.831 60.06C591.781 60.06 593.311 60.57 594.421 61.59C595.561 62.61 596.266 63.885 596.536 65.415C597.556 63.675 598.801 62.355 600.271 61.455C601.771 60.525 603.481 60.06 605.401 60.06C606.781 60.06 607.936 60.315 608.866 60.825C609.796 61.335 610.516 62.04 611.026 62.94C611.536 63.81 611.896 64.83 612.106 66C612.346 67.14 612.466 68.355 612.466 69.645V84Z" fill="white"/>
<path d="M133.01 38.03V41H118.4V19.7H132.74V22.67H121.76V28.73H131.27V31.52H121.76V38.03H133.01ZM159.659 41H156.359V32.21C156.359 30.75 156.119 29.68 155.639 29C155.159 28.32 154.459 27.98 153.539 27.98C152.619 27.98 151.759 28.33 150.959 29.03C150.179 29.71 149.629 30.6 149.309 31.7V41H146.009V32.21C146.009 30.75 145.769 29.68 145.289 29C144.809 28.32 144.119 27.98 143.219 27.98C142.299 27.98 141.439 28.32 140.639 29C139.859 29.68 139.299 30.57 138.959 31.67V41H135.659V25.31H138.659V28.46C139.279 27.36 140.089 26.52 141.089 25.94C142.109 25.34 143.269 25.04 144.569 25.04C145.869 25.04 146.889 25.38 147.629 26.06C148.389 26.74 148.859 27.59 149.039 28.61C149.719 27.45 150.549 26.57 151.529 25.97C152.529 25.35 153.669 25.04 154.949 25.04C155.869 25.04 156.639 25.21 157.259 25.55C157.879 25.89 158.359 26.36 158.699 26.96C159.039 27.54 159.279 28.22 159.419 29C159.579 29.76 159.659 30.57 159.659 31.43V41ZM162.042 36.41C162.042 35.41 162.322 34.54 162.882 33.8C163.462 33.04 164.252 32.46 165.252 32.06C166.252 31.64 167.412 31.43 168.732 31.43C169.432 31.43 170.142 31.48 170.862 31.58C171.602 31.68 172.252 31.84 172.812 32.06V31.07C172.812 29.97 172.482 29.11 171.822 28.49C171.162 27.87 170.212 27.56 168.972 27.56C168.092 27.56 167.262 27.72 166.482 28.04C165.702 28.34 164.872 28.77 163.992 29.33L162.882 27.11C163.922 26.41 164.962 25.89 166.002 25.55C167.062 25.21 168.172 25.04 169.332 25.04C171.432 25.04 173.082 25.6 174.282 26.72C175.502 27.82 176.112 29.39 176.112 31.43V37.28C176.112 37.66 176.172 37.93 176.292 38.09C176.432 38.25 176.662 38.34 176.982 38.36V41C176.682 41.06 176.412 41.1 176.172 41.12C175.932 41.14 175.732 41.15 175.572 41.15C174.872 41.15 174.342 40.98 173.982 40.64C173.622 40.3 173.412 39.9 173.352 39.44L173.262 38.54C172.582 39.42 171.712 40.1 170.652 40.58C169.592 41.06 168.522 41.3 167.442 41.3C166.402 41.3 165.472 41.09 164.652 40.67C163.832 40.23 163.192 39.64 162.732 38.9C162.272 38.16 162.042 37.33 162.042 36.41ZM172.032 37.37C172.272 37.11 172.462 36.85 172.602 36.59C172.742 36.33 172.812 36.1 172.812 35.9V34.1C172.252 33.88 171.662 33.72 171.042 33.62C170.422 33.5 169.812 33.44 169.212 33.44C168.012 33.44 167.032 33.68 166.272 34.16C165.532 34.64 165.162 35.3 165.162 36.14C165.162 36.6 165.282 37.04 165.522 37.46C165.782 37.88 166.142 38.22 166.602 38.48C167.082 38.74 167.672 38.87 168.372 38.87C169.092 38.87 169.782 38.73 170.442 38.45C171.102 38.17 171.632 37.81 172.032 37.37ZM179.835 41V25.31H183.135V41H179.835ZM179.835 22.73V19.1H183.135V22.73H179.835ZM186.851 19.1H190.151V36.47C190.151 37.27 190.271 37.78 190.511 38C190.751 38.22 191.051 38.33 191.411 38.33C191.811 38.33 192.181 38.29 192.521 38.21C192.881 38.13 193.191 38.03 193.451 37.91L193.931 40.52C193.451 40.72 192.881 40.89 192.221 41.03C191.561 41.17 190.971 41.24 190.451 41.24C189.331 41.24 188.451 40.93 187.811 40.31C187.171 39.67 186.851 38.79 186.851 37.67V19.1ZM195.564 29.27V25.46H198.294V29.27H195.564ZM195.564 41V37.16H198.294V41H195.564Z" fill="white"/>
</g>
<g filter="url(#filter1_d_829_7553)">
<circle cx="40.5" cy="48.5" r="40.5" fill="white"/>
<path d="M40.7388 48.7417L27.3403 39.1713C27.0825 38.9871 26.741 38.9699 26.4659 39.1271C25.997 39.395 25.9157 40.0376 26.303 40.4139L40.0305 53.7492C40.4574 54.1638 41.1366 54.1638 41.5634 53.7492L55.2909 40.4139C55.6783 40.0376 55.5969 39.395 55.128 39.1271C54.8529 38.9699 54.5115 38.9871 54.2536 39.1713L40.8551 48.7417C40.8203 48.7665 40.7736 48.7665 40.7388 48.7417Z" fill="#757471"/>
<path d="M27.402 57.267L37.3374 50.2538C37.523 50.1228 37.7446 50.0524 37.9718 50.0524H43.6185C43.8457 50.0524 44.0673 50.1228 44.2529 50.2538L54.0589 57.1757C54.4247 57.4339 54.9345 57.3057 55.1348 56.9053C55.2842 56.6065 55.2121 56.2444 54.9596 56.0256L46.257 48.4833C46.0123 48.2712 45.6866 48.1778 45.3668 48.2277L40.8106 48.9396C40.8004 48.9412 40.79 48.9412 40.7797 48.9396L36.2236 48.2277C35.9037 48.1778 35.578 48.2712 35.3334 48.4833L26.7504 55.9218C26.4275 56.2017 26.3353 56.6648 26.5264 57.0469C26.6894 57.3729 27.1043 57.4772 27.402 57.267Z" fill="#757471"/>
<path d="M25.5532 40.3628C25.5532 39.3963 26.3367 38.6128 27.3032 38.6128H54.2973C55.2638 38.6128 56.0473 39.3963 56.0473 40.3628V56.2048C56.0473 57.7236 54.816 58.9548 53.2973 58.9548H28.3032C26.7844 58.9548 25.5532 57.7236 25.5532 56.2048V40.3628Z" stroke="black" stroke-width="2.5"/>
<circle cx="40.5" cy="48.5" r="40.5" fill="white"/>
<path d="M40.1642 48.9252L25.3562 38.348C25.0713 38.1445 24.6941 38.1254 24.3902 38.2991C23.8722 38.5951 23.7823 39.305 24.2103 39.7207L39.4559 54.5308C39.8827 54.9454 40.562 54.9454 40.9888 54.5308L56.2345 39.7207C56.6624 39.305 56.5726 38.5951 56.0546 38.2991C55.7506 38.1254 55.3734 38.1445 55.0885 38.348L40.2805 48.9252C40.2457 48.95 40.199 48.95 40.1642 48.9252Z" fill="#030303"/>
<path d="M25.433 58.3388L36.439 50.5698C36.6246 50.4388 36.8462 50.3685 37.0734 50.3685H43.3847C43.6119 50.3685 43.8335 50.4388 44.0191 50.5698L54.8821 58.2379C55.2862 58.5231 55.8494 58.3816 56.0706 57.9392C56.2357 57.609 56.1561 57.209 55.8772 56.9673L46.2226 48.6C45.9779 48.3879 45.6522 48.2945 45.3323 48.3444L40.2445 49.1394C40.2343 49.141 40.2238 49.141 40.2136 49.1394L35.1258 48.3444C34.8059 48.2945 34.4802 48.3879 34.2355 48.6L24.7132 56.8527C24.3565 57.1619 24.2546 57.6735 24.4657 58.0957C24.6457 58.4557 25.1041 58.5709 25.433 58.3388Z" fill="#030303"/>
<path d="M23.2529 39.3501C23.2529 38.3836 24.0364 37.6001 25.0029 37.6001H55.4529C56.4194 37.6001 57.2029 38.3836 57.2029 39.3501V57.5847C57.2029 59.1035 55.9717 60.3347 54.4529 60.3347H26.0029C24.4842 60.3347 23.2529 59.1035 23.2529 57.5847V39.3501Z" stroke="#030303" stroke-width="2.5"/>
</g>
<defs>
<filter id="filter0_d_829_7553" x="118.4" y="19.1001" width="504.066" height="81.4697" filterUnits="userSpaceOnUse" color-interpolation-filters="sRGB">
<feFlood flood-opacity="0" result="BackgroundImageFix"/>
<feColorMatrix in="SourceAlpha" type="matrix" values="0 0 0 0 0 0 0 0 0 0 0 0 0 0 0 0 0 0 127 0" result="hardAlpha"/>
<feOffset dx="5" dy="5"/>
<feGaussianBlur stdDeviation="2.5"/>
<feComposite in2="hardAlpha" operator="out"/>
<feColorMatrix type="matrix" values="0 0 0 0 0 0 0 0 0 0 0 0 0 0 0 0 0 0 0.3 0"/>
<feBlend mode="normal" in2="BackgroundImageFix" result="effect1_dropShadow_829_7553"/>
<feBlend mode="normal" in="SourceGraphic" in2="effect1_dropShadow_829_7553" result="shape"/>
</filter>
<filter id="filter1_d_829_7553" x="0" y="8" width="91" height="91" filterUnits="userSpaceOnUse" color-interpolation-filters="sRGB">
<feFlood flood-opacity="0" result="BackgroundImageFix"/>
<feColorMatrix in="SourceAlpha" type="matrix" values="0 0 0 0 0 0 0 0 0 0 0 0 0 0 0 0 0 0 127 0" result="hardAlpha"/>
<feOffset dx="5" dy="5"/>
<feGaussianBlur stdDeviation="2.5"/>
<feComposite in2="hardAlpha" operator="out"/>
<feColorMatrix type="matrix" values="0 0 0 0 0 0 0 0 0 0 0 0 0 0 0 0 0 0 0.3 0"/>
<feBlend mode="normal" in2="BackgroundImageFix" result="effect1_dropShadow_829_7553"/>
<feBlend mode="normal" in="SourceGraphic" in2="effect1_dropShadow_829_7553" result="shape"/>
</filter>
</defs>
</svg>
