<svg width="471" height="587" viewBox="0 0 471 587" fill="none" xmlns="http://www.w3.org/2000/svg">
<g filter="url(#filter0_bdi_7309_1275)">
<rect x="30" y="30" width="407" height="523" rx="40" fill="#2A2C30" fill-opacity="0.8" shape-rendering="crispEdges"/>
<rect x="29" y="29" width="409" height="525" rx="41" stroke="url(#paint0_linear_7309_1275)" stroke-opacity="0.8" stroke-width="2" shape-rendering="crispEdges"/>
</g>
<path d="M66.1248 103.431V103.475C66.1248 104.808 65.0701 105.862 63.7517 105.862H63.7078C62.3748 105.862 61.3201 104.808 61.3201 103.475V103.431C61.3201 102.112 62.3748 101.058 63.7078 101.058H63.7517C65.0701 101.058 66.1248 102.112 66.1248 103.431ZM88.2 112V90.8623H90.1921V112H88.2ZM93.8396 112V96.7656H95.7732V99.3584H95.8318C96.5935 97.7178 98.3074 96.502 100.768 96.502C104.137 96.502 106.13 98.6699 106.13 102.244V112H104.196V102.566C104.196 99.7393 102.79 98.2305 100.197 98.2305C97.5457 98.2305 95.7732 100.135 95.7732 102.977V112H93.8396ZM200.627 112.278C196.467 112.264 193.683 109.217 193.683 104.383V104.354C193.683 99.5195 196.481 96.4873 200.627 96.4873C204.758 96.4873 207.57 99.5049 207.57 104.354V104.383C207.57 109.231 204.772 112.278 200.627 112.278ZM200.641 110.55C203.615 110.55 205.593 108.235 205.593 104.383V104.354C205.593 100.501 203.6 98.2158 200.627 98.2158C197.653 98.2158 195.676 100.516 195.676 104.354V104.383C195.676 108.25 197.638 110.535 200.641 110.55ZM213.913 112L208.244 96.7656H210.295L214.924 109.964H214.968L219.611 96.7656H221.633L215.978 112H213.913ZM229.235 112.278C224.958 112.278 222.306 109.246 222.306 104.427V104.412C222.306 99.6367 225.002 96.4873 229.074 96.4873C233.146 96.4873 235.71 99.5342 235.71 104.09V104.852H224.269C224.328 108.484 226.276 110.55 229.279 110.55C231.52 110.55 233.073 109.422 233.571 107.767L233.6 107.635H235.519L235.49 107.781C234.963 110.389 232.531 112.278 229.235 112.278ZM229.059 98.2158C226.467 98.2158 224.533 100.076 224.299 103.313H233.761C233.542 99.9883 231.667 98.2158 229.059 98.2158ZM238.302 112V96.7656H240.236V99.5049H240.295C240.837 97.6445 242.184 96.4873 244.03 96.4873C244.543 96.4873 244.997 96.5898 245.231 96.6631V98.5527C244.982 98.4502 244.44 98.3477 243.781 98.3477C241.613 98.3477 240.236 99.9883 240.236 102.566V112H238.302ZM87.8923 148V132.766H89.8259V135.505H89.8845C90.4265 133.645 91.7742 132.487 93.6199 132.487C94.1326 132.487 94.5867 132.59 94.821 132.663V134.553C94.572 134.45 94.03 134.348 93.3708 134.348C91.2029 134.348 89.8259 135.988 89.8259 138.566V148H87.8923ZM102.204 148.278C97.9265 148.278 95.2751 145.246 95.2751 140.427V140.412C95.2751 135.637 97.9705 132.487 102.043 132.487C106.115 132.487 108.678 135.534 108.678 140.09V140.852H97.238C97.2966 144.484 99.2449 146.55 102.248 146.55C104.489 146.55 106.042 145.422 106.54 143.767L106.569 143.635H108.488L108.459 143.781C107.931 146.389 105.5 148.278 102.204 148.278ZM102.028 134.216C99.4353 134.216 97.5017 136.076 97.2673 139.313H106.73C106.51 135.988 104.635 134.216 102.028 134.216ZM117.438 148.278C113.205 148.278 110.51 145.217 110.51 140.368V140.354C110.51 135.563 113.249 132.487 117.424 132.487C120.969 132.487 123.268 134.787 123.649 137.409L123.664 137.541H121.76L121.73 137.424C121.305 135.637 119.797 134.216 117.424 134.216C114.45 134.216 112.502 136.604 112.502 140.383V140.397C112.502 144.235 114.479 146.55 117.438 146.55C119.709 146.55 121.276 145.246 121.73 143.342L121.76 143.225H123.678L123.664 143.342C123.21 146.184 120.763 148.278 117.438 148.278ZM132.277 148.278C128.117 148.264 125.334 145.217 125.334 140.383V140.354C125.334 135.52 128.132 132.487 132.277 132.487C136.408 132.487 139.22 135.505 139.22 140.354V140.383C139.22 145.231 136.423 148.278 132.277 148.278ZM132.292 146.55C135.265 146.55 137.243 144.235 137.243 140.383V140.354C137.243 136.501 135.251 134.216 132.277 134.216C129.303 134.216 127.326 136.516 127.326 140.354V140.383C127.326 144.25 129.289 146.535 132.292 146.55ZM141.799 148V132.766H143.732V135.505H143.791C144.333 133.645 145.68 132.487 147.526 132.487C148.039 132.487 148.493 132.59 148.727 132.663V134.553C148.478 134.45 147.936 134.348 147.277 134.348C145.109 134.348 143.732 135.988 143.732 138.566V148H141.799ZM155.627 148.278C151.789 148.278 149.181 145.144 149.181 140.383V140.368C149.181 135.607 151.803 132.487 155.612 132.487C158 132.487 159.963 133.835 160.827 135.944H160.871V126.862H162.819V148H160.871V144.836H160.812C159.933 146.931 158.029 148.278 155.627 148.278ZM155.993 146.55C158.864 146.55 160.885 144.06 160.885 140.383V140.368C160.885 136.706 158.835 134.216 155.993 134.216C153.063 134.216 151.174 136.633 151.174 140.368V140.383C151.174 144.147 153.063 146.55 155.993 146.55ZM171.52 148.278C168.063 148.278 165.851 146.433 165.558 143.737L165.544 143.605H167.477L167.507 143.737C167.814 145.495 169.235 146.638 171.535 146.638C173.835 146.638 175.3 145.583 175.3 143.986V143.972C175.3 142.653 174.567 141.936 172.531 141.452L170.231 140.896C167.36 140.207 165.983 138.947 165.983 136.838V136.823C165.983 134.289 168.224 132.487 171.403 132.487C174.655 132.487 176.735 134.377 176.984 136.999L176.999 137.16H175.138L175.124 137.058C174.875 135.285 173.527 134.128 171.403 134.128C169.338 134.128 167.961 135.197 167.961 136.75V136.765C167.961 137.98 168.781 138.757 170.788 139.24L173.088 139.782C176.12 140.515 177.277 141.701 177.277 143.84V143.854C177.277 146.447 174.86 148.278 171.52 148.278ZM188.981 148L184.645 132.766H186.608L190.021 145.832H190.065L193.859 132.766H195.822L199.616 145.832H199.66L203.073 132.766H205.021L200.7 148H198.649L194.855 135.358H194.811L191.032 148H188.981ZM213.151 148.278C208.874 148.278 206.222 145.246 206.222 140.427V140.412C206.222 135.637 208.918 132.487 212.99 132.487C217.062 132.487 219.626 135.534 219.626 140.09V140.852H208.185C208.244 144.484 210.192 146.55 213.195 146.55C215.436 146.55 216.989 145.422 217.487 143.767L217.516 143.635H219.435L219.406 143.781C218.879 146.389 216.447 148.278 213.151 148.278ZM212.975 134.216C210.383 134.216 208.449 136.076 208.215 139.313H217.677C217.458 135.988 215.583 134.216 212.975 134.216ZM222.219 148V132.766H224.152V135.505H224.211C224.753 133.645 226.1 132.487 227.946 132.487C228.459 132.487 228.913 132.59 229.147 132.663V134.553C228.898 134.45 228.356 134.348 227.697 134.348C225.529 134.348 224.152 135.988 224.152 138.566V148H222.219ZM236.53 148.278C232.253 148.278 229.601 145.246 229.601 140.427V140.412C229.601 135.637 232.297 132.487 236.369 132.487C240.441 132.487 243.005 135.534 243.005 140.09V140.852H231.564C231.623 144.484 233.571 146.55 236.574 146.55C238.815 146.55 240.368 145.422 240.866 143.767L240.895 143.635H242.814L242.785 143.781C242.258 146.389 239.826 148.278 236.53 148.278ZM236.354 134.216C233.761 134.216 231.828 136.076 231.594 139.313H241.056C240.837 135.988 238.962 134.216 236.354 134.216ZM259.074 148.278C256.672 148.278 254.753 146.931 253.874 144.777H253.83V148H251.882V126.862H253.83V135.944H253.874C254.738 133.835 256.701 132.487 259.089 132.487C262.897 132.487 265.519 135.607 265.519 140.368V140.383C265.519 145.144 262.912 148.278 259.074 148.278ZM258.708 146.55C261.637 146.55 263.527 144.147 263.527 140.383V140.368C263.527 136.633 261.637 134.216 258.708 134.216C255.866 134.216 253.815 136.706 253.815 140.368V140.383C253.815 144.06 255.837 146.55 258.708 146.55ZM268.097 148V132.766H270.031V135.505H270.09C270.632 133.645 271.979 132.487 273.825 132.487C274.338 132.487 274.792 132.59 275.026 132.663V134.553C274.777 134.45 274.235 134.348 273.576 134.348C271.408 134.348 270.031 135.988 270.031 138.566V148H268.097ZM282.409 148.278C278.132 148.278 275.48 145.246 275.48 140.427V140.412C275.48 135.637 278.176 132.487 282.248 132.487C286.32 132.487 288.884 135.534 288.884 140.09V140.852H277.443C277.502 144.484 279.45 146.55 282.453 146.55C284.694 146.55 286.247 145.422 286.745 143.767L286.774 143.635H288.693L288.664 143.781C288.136 146.389 285.705 148.278 282.409 148.278ZM282.233 134.216C279.64 134.216 277.707 136.076 277.472 139.313H286.935C286.716 135.988 284.841 134.216 282.233 134.216ZM295.988 148.278C292.985 148.278 290.934 146.477 290.934 143.781V143.752C290.934 141.159 292.897 139.592 296.398 139.357L301.144 139.064V137.746C301.144 135.549 299.753 134.216 297.38 134.216C295.168 134.216 293.718 135.285 293.395 137.014L293.366 137.16H291.491L291.506 136.984C291.799 134.362 293.967 132.487 297.409 132.487C300.895 132.487 303.078 134.45 303.078 137.57V148H301.144V145.217H301.086C300.251 147.033 298.244 148.278 295.988 148.278ZM292.912 143.781C292.912 145.451 294.318 146.579 296.384 146.579C299.05 146.579 301.144 144.704 301.144 142.272V140.588L296.633 140.896C294.245 141.042 292.912 142.082 292.912 143.752V143.781ZM312.497 148.278C308.263 148.278 305.568 145.217 305.568 140.368V140.354C305.568 135.563 308.307 132.487 312.482 132.487C316.027 132.487 318.327 134.787 318.708 137.409L318.722 137.541H316.818L316.789 137.424C316.364 135.637 314.855 134.216 312.482 134.216C309.509 134.216 307.56 136.604 307.56 140.383V140.397C307.56 144.235 309.538 146.55 312.497 146.55C314.767 146.55 316.335 145.246 316.789 143.342L316.818 143.225H318.737L318.722 143.342C318.268 146.184 315.822 148.278 312.497 148.278ZM321.286 148V126.862H323.234V135.549H323.278C324.054 133.688 325.827 132.502 328.259 132.502C331.554 132.502 333.752 134.89 333.752 138.625V148H331.803V138.933C331.803 135.93 330.221 134.23 327.629 134.23C324.992 134.23 323.234 136.193 323.234 139.021V148H321.286ZM343.171 148.278C338.893 148.278 336.242 145.246 336.242 140.427V140.412C336.242 135.637 338.937 132.487 343.01 132.487C347.082 132.487 349.645 135.534 349.645 140.09V140.852H338.205C338.263 144.484 340.212 146.55 343.215 146.55C345.456 146.55 347.009 145.422 347.507 143.767L347.536 143.635H349.455L349.426 143.781C348.898 146.389 346.467 148.278 343.171 148.278ZM342.995 134.216C340.402 134.216 338.469 136.076 338.234 139.313H347.697C347.477 135.988 345.602 134.216 342.995 134.216ZM357.922 148.278C354.084 148.278 351.476 145.144 351.476 140.383V140.368C351.476 135.607 354.098 132.487 357.907 132.487C360.295 132.487 362.258 133.835 363.122 135.944H363.166V126.862H365.114V148H363.166V144.836H363.107C362.228 146.931 360.324 148.278 357.922 148.278ZM358.288 146.55C361.159 146.55 363.18 144.06 363.18 140.383V140.368C363.18 136.706 361.13 134.216 358.288 134.216C355.358 134.216 353.469 136.633 353.469 140.368V140.383C353.469 144.147 355.358 146.55 358.288 146.55Z" fill="white"/>
<path d="M115.446 112V109.422L122.917 102.142C125.685 99.4316 126.286 98.3623 126.286 96.7949V96.7656C126.271 94.876 124.85 93.5283 122.814 93.5283C120.47 93.5283 118.83 95.0957 118.786 97.1318V97.2344H115.241V97.1318C115.241 93.2646 118.493 90.4961 122.785 90.4961C127.018 90.4961 129.977 93.0596 129.977 96.5459V96.5752C129.977 99.0654 128.82 100.75 125.099 104.324L120.441 108.748V108.909H130.3V112H115.446ZM141.081 112.366C135.895 112.366 132.775 108.162 132.775 101.438V101.409C132.775 94.6855 135.895 90.4961 141.081 90.4961C146.252 90.4961 149.386 94.6855 149.386 101.409V101.438C149.386 108.162 146.252 112.366 141.081 112.366ZM141.081 109.275C143.923 109.275 145.578 106.316 145.578 101.438V101.409C145.578 96.5312 143.923 93.6016 141.081 93.6016C138.224 93.6016 136.584 96.5312 136.584 101.409V101.438C136.584 106.316 138.224 109.275 141.081 109.275ZM152.009 112V109.422L159.479 102.142C162.248 99.4316 162.848 98.3623 162.848 96.7949V96.7656C162.834 94.876 161.413 93.5283 159.377 93.5283C157.033 93.5283 155.392 95.0957 155.348 97.1318V97.2344H151.803V97.1318C151.803 93.2646 155.055 90.4961 159.347 90.4961C163.581 90.4961 166.54 93.0596 166.54 96.5459V96.5752C166.54 99.0654 165.383 100.75 161.662 104.324L157.004 108.748V108.909H166.862V112H152.009ZM177.306 112.366C172.663 112.366 169.645 109.876 169.352 106.331L169.338 106.155H172.956L172.97 106.316C173.176 108.03 174.816 109.275 177.292 109.275C179.738 109.275 181.364 107.928 181.364 106.009V105.979C181.364 103.753 179.723 102.522 177.028 102.522H174.523V99.71H176.94C179.269 99.71 180.822 98.3916 180.822 96.5459V96.5166C180.822 94.6123 179.533 93.499 177.262 93.499C175.036 93.499 173.512 94.6562 173.322 96.4727L173.307 96.6191H169.792L169.806 96.4434C170.114 92.8691 173 90.4961 177.262 90.4961C181.628 90.4961 184.455 92.7373 184.455 96.0186V96.0479C184.455 98.6699 182.551 100.413 180.016 100.94V101.014C183.136 101.307 185.202 103.152 185.202 106.082V106.111C185.202 109.788 181.979 112.366 177.306 112.366ZM260.978 112.366C256.335 112.366 253.317 109.876 253.024 106.331L253.01 106.155H256.628L256.642 106.316C256.847 108.03 258.488 109.275 260.964 109.275C263.41 109.275 265.036 107.928 265.036 106.009V105.979C265.036 103.753 263.395 102.522 260.7 102.522H258.195V99.71H260.612C262.941 99.71 264.494 98.3916 264.494 96.5459V96.5166C264.494 94.6123 263.205 93.499 260.934 93.499C258.708 93.499 257.184 94.6562 256.994 96.4727L256.979 96.6191H253.464L253.478 96.4434C253.786 92.8691 256.672 90.4961 260.934 90.4961C265.3 90.4961 268.127 92.7373 268.127 96.0186V96.0479C268.127 98.6699 266.222 100.413 263.688 100.94V101.014C266.808 101.307 268.874 103.152 268.874 106.082V106.111C268.874 109.788 265.651 112.366 260.978 112.366ZM279.67 112.366C275.275 112.366 272.287 109.744 272.009 106.243L271.994 106.053H275.539L275.553 106.155C275.861 107.928 277.472 109.29 279.699 109.29C282.219 109.29 283.962 107.562 283.962 105.086V105.057C283.962 102.64 282.189 100.911 279.714 100.911C278.512 100.911 277.472 101.277 276.667 101.951C276.271 102.273 275.92 102.684 275.671 103.152H272.375L273.385 90.8623H286.364V93.9531H276.403L275.817 100.325H275.89C276.813 98.9043 278.556 98.0693 280.68 98.0693C284.709 98.0693 287.609 100.984 287.609 104.998V105.027C287.609 109.378 284.343 112.366 279.67 112.366ZM298.171 112.366C292.985 112.366 289.865 108.162 289.865 101.438V101.409C289.865 94.6855 292.985 90.4961 298.171 90.4961C303.342 90.4961 306.476 94.6855 306.476 101.409V101.438C306.476 108.162 303.342 112.366 298.171 112.366ZM298.171 109.275C301.012 109.275 302.668 106.316 302.668 101.438V101.409C302.668 96.5312 301.012 93.6016 298.171 93.6016C295.314 93.6016 293.674 96.5312 293.674 101.409V101.438C293.674 106.316 295.314 109.275 298.171 109.275ZM315.236 112V96.4727H318.884V98.9629H318.957C319.616 97.2637 321.213 96.1504 323.263 96.1504C325.431 96.1504 326.999 97.293 327.57 99.2852H327.658C328.405 97.3516 330.251 96.1504 332.492 96.1504C335.553 96.1504 337.56 98.2305 337.56 101.336V112H333.913V102.244C333.913 100.325 332.917 99.2266 331.13 99.2266C329.372 99.2266 328.171 100.53 328.171 102.405V112H324.626V102.054C324.626 100.311 323.571 99.2266 321.872 99.2266C320.114 99.2266 318.884 100.604 318.884 102.493V112H315.236ZM342.424 94.2461C341.281 94.2461 340.387 93.3379 340.387 92.2539C340.387 91.1406 341.281 90.2471 342.424 90.2471C343.566 90.2471 344.445 91.1406 344.445 92.2539C344.445 93.3379 343.566 94.2461 342.424 94.2461ZM340.593 112V96.4727H344.24V112H340.593ZM347.448 112V90.8623H351.095V112H347.448ZM354.303 112V90.8623H357.951V112H354.303ZM362.99 94.2461C361.847 94.2461 360.954 93.3379 360.954 92.2539C360.954 91.1406 361.847 90.2471 362.99 90.2471C364.133 90.2471 365.011 91.1406 365.011 92.2539C365.011 93.3379 364.133 94.2461 362.99 94.2461ZM361.159 112V96.4727H364.806V112H361.159ZM374.782 112.308C370.212 112.308 367.267 109.261 367.267 104.236V104.207C367.267 99.2266 370.256 96.1504 374.767 96.1504C379.294 96.1504 382.297 99.1973 382.297 104.207V104.236C382.297 109.275 379.338 112.308 374.782 112.308ZM374.797 109.363C377.096 109.363 378.576 107.488 378.576 104.236V104.207C378.576 100.97 377.082 99.1094 374.767 99.1094C372.497 99.1094 370.988 100.984 370.988 104.207V104.236C370.988 107.503 372.468 109.363 374.797 109.363ZM384.64 112V96.4727H388.288V98.9043H388.361C389.167 97.2344 390.749 96.1504 393.107 96.1504C396.52 96.1504 398.469 98.3477 398.469 101.951V112H394.821V102.684C394.821 100.472 393.796 99.2266 391.716 99.2266C389.621 99.2266 388.288 100.75 388.288 102.991V112H384.64Z" fill="#9DC4FF"/>
<path d="M67.1208 218.387V218.431C67.1208 220.306 65.6267 221.8 63.7517 221.8H63.7078C61.8328 221.8 60.3386 220.306 60.3386 218.431V218.387C60.3386 216.512 61.8328 215.018 63.7078 215.018H63.7517C65.6267 215.018 67.1208 216.512 67.1208 218.387ZM95.5974 227.366C91.2029 227.366 88.2146 224.744 87.9363 221.243L87.9216 221.053H91.4666L91.4812 221.155C91.7888 222.928 93.4001 224.29 95.6267 224.29C98.1462 224.29 99.8894 222.562 99.8894 220.086V220.057C99.8894 217.64 98.1169 215.911 95.6414 215.911C94.4402 215.911 93.4001 216.277 92.5945 216.951C92.199 217.273 91.8474 217.684 91.5984 218.152H88.3025L89.3132 205.862H102.292V208.953H92.3308L91.7449 215.325H91.8181C92.741 213.904 94.4841 213.069 96.6082 213.069C100.636 213.069 103.537 215.984 103.537 219.998V220.027C103.537 224.378 100.27 227.366 95.5974 227.366ZM114.098 227.366C108.913 227.366 105.793 223.162 105.793 216.438V216.409C105.793 209.686 108.913 205.496 114.098 205.496C119.269 205.496 122.404 209.686 122.404 216.409V216.438C122.404 223.162 119.269 227.366 114.098 227.366ZM114.098 224.275C116.94 224.275 118.595 221.316 118.595 216.438V216.409C118.595 211.531 116.94 208.602 114.098 208.602C111.242 208.602 109.601 211.531 109.601 216.409V216.438C109.601 221.316 111.242 224.275 114.098 224.275ZM129.611 216.585C126.696 216.585 124.924 214.49 124.924 211.136V211.121C124.924 207.767 126.696 205.672 129.611 205.672C132.511 205.672 134.269 207.767 134.269 211.121V211.136C134.269 214.49 132.511 216.585 129.611 216.585ZM131.34 227H128.381L141.828 205.862H144.758L131.34 227ZM129.611 214.388C130.871 214.388 131.574 213.216 131.574 211.136V211.121C131.574 209.041 130.871 207.869 129.611 207.869C128.337 207.869 127.619 209.041 127.619 211.121V211.136C127.619 213.216 128.337 214.388 129.611 214.388ZM143.542 227.19C140.641 227.19 138.869 225.096 138.869 221.727V221.712C138.869 218.372 140.641 216.277 143.542 216.277C146.442 216.277 148.215 218.372 148.215 221.712V221.727C148.215 225.096 146.442 227.19 143.542 227.19ZM143.542 224.993C144.802 224.993 145.519 223.821 145.519 221.741V221.727C145.519 219.646 144.802 218.475 143.542 218.475C142.267 218.475 141.55 219.646 141.55 221.727V221.741C141.55 223.821 142.267 224.993 143.542 224.993Z" fill="#9DC4FF"/>
<path d="M163.478 227.278C159.318 227.264 156.535 224.217 156.535 219.383V219.354C156.535 214.52 159.333 211.487 163.478 211.487C167.609 211.487 170.422 214.505 170.422 219.354V219.383C170.422 224.231 167.624 227.278 163.478 227.278ZM163.493 225.55C166.467 225.55 168.444 223.235 168.444 219.383V219.354C168.444 215.501 166.452 213.216 163.478 213.216C160.505 213.216 158.527 215.516 158.527 219.354V219.383C158.527 223.25 160.49 225.535 163.493 225.55ZM173.791 227V213.392H171.667V211.766H173.791V209.612C173.791 206.858 175.124 205.584 177.673 205.584C178.215 205.584 178.757 205.643 179.094 205.701V207.298C178.771 207.239 178.39 207.21 177.995 207.21C176.515 207.21 175.71 207.957 175.71 209.642V211.766H178.991V213.392H175.724V227H173.791ZM186.344 227L194.313 205.862H196.291L204.245 227H202.135L199.777 220.525H190.827L188.469 227H186.344ZM195.28 208.309L191.457 218.797H199.147L195.324 208.309H195.28ZM206.252 227V211.766H208.185V214.388H208.244C208.874 212.703 210.427 211.502 212.565 211.502C214.792 211.502 216.403 212.791 216.974 214.725H217.018C217.751 212.835 219.494 211.502 221.808 211.502C224.797 211.502 226.745 213.494 226.745 216.585V227H224.811V217.024C224.811 214.651 223.493 213.23 221.281 213.23C219.025 213.23 217.472 214.959 217.472 217.405V227H215.524V216.849C215.524 214.666 214.118 213.23 212.038 213.23C209.797 213.23 208.185 215.032 208.185 217.64V227H206.252ZM236.178 227.278C231.901 227.278 229.25 224.246 229.25 219.427V219.412C229.25 214.637 231.945 211.487 236.017 211.487C240.09 211.487 242.653 214.534 242.653 219.09V219.852H231.213C231.271 223.484 233.219 225.55 236.222 225.55C238.464 225.55 240.016 224.422 240.514 222.767L240.544 222.635H242.463L242.433 222.781C241.906 225.389 239.474 227.278 236.178 227.278ZM236.003 213.216C233.41 213.216 231.476 215.076 231.242 218.313H240.705C240.485 214.988 238.61 213.216 236.003 213.216ZM245.246 227V211.766H247.179V214.505H247.238C247.78 212.645 249.128 211.487 250.973 211.487C251.486 211.487 251.94 211.59 252.175 211.663V213.553C251.926 213.45 251.384 213.348 250.724 213.348C248.556 213.348 247.179 214.988 247.179 217.566V227H245.246ZM255.397 209.012C254.679 209.012 254.108 208.44 254.108 207.723C254.108 207.005 254.679 206.448 255.397 206.448C256.1 206.448 256.672 207.005 256.672 207.723C256.672 208.44 256.1 209.012 255.397 209.012ZM254.416 227V211.766H256.364V227H254.416ZM266.032 227.278C261.799 227.278 259.103 224.217 259.103 219.368V219.354C259.103 214.563 261.843 211.487 266.017 211.487C269.562 211.487 271.862 213.787 272.243 216.409L272.258 216.541H270.353L270.324 216.424C269.899 214.637 268.39 213.216 266.017 213.216C263.044 213.216 261.095 215.604 261.095 219.383V219.397C261.095 223.235 263.073 225.55 266.032 225.55C268.302 225.55 269.87 224.246 270.324 222.342L270.353 222.225H272.272L272.258 222.342C271.803 225.184 269.357 227.278 266.032 227.278ZM279.201 227.278C276.198 227.278 274.147 225.477 274.147 222.781V222.752C274.147 220.159 276.11 218.592 279.611 218.357L284.357 218.064V216.746C284.357 214.549 282.966 213.216 280.593 213.216C278.381 213.216 276.93 214.285 276.608 216.014L276.579 216.16H274.704L274.719 215.984C275.011 213.362 277.179 211.487 280.622 211.487C284.108 211.487 286.291 213.45 286.291 216.57V227H284.357V224.217H284.299C283.464 226.033 281.457 227.278 279.201 227.278ZM276.125 222.781C276.125 224.451 277.531 225.579 279.596 225.579C282.262 225.579 284.357 223.704 284.357 221.272V219.588L279.845 219.896C277.458 220.042 276.125 221.082 276.125 222.752V222.781ZM289.543 227V211.766H291.476V214.358H291.535C292.297 212.718 294.01 211.502 296.471 211.502C299.841 211.502 301.833 213.67 301.833 217.244V227H299.899V217.566C299.899 214.739 298.493 213.23 295.9 213.23C293.249 213.23 291.476 215.135 291.476 217.977V227H289.543ZM310.329 227.278C306.872 227.278 304.66 225.433 304.367 222.737L304.352 222.605H306.286L306.315 222.737C306.623 224.495 308.044 225.638 310.344 225.638C312.643 225.638 314.108 224.583 314.108 222.986V222.972C314.108 221.653 313.376 220.936 311.34 220.452L309.04 219.896C306.169 219.207 304.792 217.947 304.792 215.838V215.823C304.792 213.289 307.033 211.487 310.212 211.487C313.464 211.487 315.544 213.377 315.793 215.999L315.807 216.16H313.947L313.932 216.058C313.683 214.285 312.336 213.128 310.212 213.128C308.146 213.128 306.769 214.197 306.769 215.75V215.765C306.769 216.98 307.59 217.757 309.596 218.24L311.896 218.782C314.928 219.515 316.086 220.701 316.086 222.84V222.854C316.086 225.447 313.669 227.278 310.329 227.278ZM330.075 227.278C326.618 227.278 324.406 225.433 324.113 222.737L324.098 222.605H326.032L326.061 222.737C326.369 224.495 327.79 225.638 330.09 225.638C332.389 225.638 333.854 224.583 333.854 222.986V222.972C333.854 221.653 333.122 220.936 331.086 220.452L328.786 219.896C325.915 219.207 324.538 217.947 324.538 215.838V215.823C324.538 213.289 326.779 211.487 329.958 211.487C333.21 211.487 335.29 213.377 335.539 215.999L335.553 216.16H333.693L333.678 216.058C333.429 214.285 332.082 213.128 329.958 213.128C327.892 213.128 326.515 214.197 326.515 215.75V215.765C326.515 216.98 327.336 217.757 329.343 218.24L331.642 218.782C334.675 219.515 335.832 220.701 335.832 222.84V222.854C335.832 225.447 333.415 227.278 330.075 227.278ZM343.727 227.264C340.358 227.264 338.351 225.096 338.351 221.521V211.766H340.3V221.199C340.3 224.026 341.706 225.535 344.284 225.535C346.95 225.535 348.708 223.631 348.708 220.789V211.766H350.656V227H348.708V224.407H348.664C347.887 226.048 346.188 227.264 343.727 227.264ZM360.163 227.278C355.929 227.278 353.234 224.217 353.234 219.368V219.354C353.234 214.563 355.973 211.487 360.148 211.487C363.693 211.487 365.993 213.787 366.374 216.409L366.388 216.541H364.484L364.455 216.424C364.03 214.637 362.521 213.216 360.148 213.216C357.175 213.216 355.226 215.604 355.226 219.383V219.397C355.226 223.235 357.204 225.55 360.163 225.55C362.433 225.55 364.001 224.246 364.455 222.342L364.484 222.225H366.403L366.388 222.342C365.934 225.184 363.488 227.278 360.163 227.278ZM369.01 227V205.862H370.944V218.943H371.003L378.473 211.766H380.876L374.035 218.328L381.022 227H378.737L372.643 219.515L370.944 221.097V227H369.01ZM92.4041 263.278C89.4011 263.278 87.3503 261.477 87.3503 258.781V258.752C87.3503 256.159 89.3132 254.592 92.8142 254.357L97.5603 254.064V252.746C97.5603 250.549 96.1687 249.216 93.7957 249.216C91.5837 249.216 90.1335 250.285 89.8113 252.014L89.782 252.16H87.907L87.9216 251.984C88.2146 249.362 90.3826 247.487 93.825 247.487C97.3113 247.487 99.4939 249.45 99.4939 252.57V263H97.5603V260.217H97.5017C96.6667 262.033 94.6599 263.278 92.4041 263.278ZM89.3279 258.781C89.3279 260.451 90.7341 261.579 92.7996 261.579C95.4656 261.579 97.5603 259.704 97.5603 257.272V255.588L93.0486 255.896C90.6609 256.042 89.3279 257.082 89.3279 258.752V258.781ZM107.287 263.278C104.782 263.278 103.552 262.092 103.552 259.426V249.392H101.31V247.766H103.552V243.649H105.544V247.766H108.561V249.392H105.544V259.396C105.544 261.081 106.261 261.652 107.682 261.652C108.034 261.652 108.342 261.608 108.561 261.579V263.161C108.254 263.22 107.756 263.278 107.287 263.278ZM122.712 263.264C119.343 263.264 117.336 261.096 117.336 257.521V247.766H119.284V257.199C119.284 260.026 120.69 261.535 123.268 261.535C125.934 261.535 127.692 259.631 127.692 256.789V247.766H129.64V263H127.692V260.407H127.648C126.872 262.048 125.173 263.264 122.712 263.264ZM138.21 263.278C134.753 263.278 132.541 261.433 132.248 258.737L132.233 258.605H134.167L134.196 258.737C134.504 260.495 135.925 261.638 138.224 261.638C140.524 261.638 141.989 260.583 141.989 258.986V258.972C141.989 257.653 141.257 256.936 139.22 256.452L136.921 255.896C134.05 255.207 132.673 253.947 132.673 251.838V251.823C132.673 249.289 134.914 247.487 138.093 247.487C141.344 247.487 143.425 249.377 143.674 251.999L143.688 252.16H141.828L141.813 252.058C141.564 250.285 140.217 249.128 138.093 249.128C136.027 249.128 134.65 250.197 134.65 251.75V251.765C134.65 252.98 135.47 253.757 137.477 254.24L139.777 254.782C142.809 255.515 143.967 256.701 143.967 258.84V258.854C143.967 261.447 141.55 263.278 138.21 263.278ZM147.702 245.012C146.984 245.012 146.413 244.44 146.413 243.723C146.413 243.005 146.984 242.448 147.702 242.448C148.405 242.448 148.976 243.005 148.976 243.723C148.976 244.44 148.405 245.012 147.702 245.012ZM146.72 263V247.766H148.669V263H146.72ZM152.17 263V247.766H154.103V250.358H154.162C154.924 248.718 156.637 247.502 159.098 247.502C162.468 247.502 164.46 249.67 164.46 253.244V263H162.526V253.566C162.526 250.739 161.12 249.23 158.527 249.23C155.876 249.23 154.103 251.135 154.103 253.977V263H152.17ZM174.054 268.405C170.436 268.405 168.21 266.677 167.668 264.523L167.638 264.406H169.587L169.645 264.538C170.158 265.769 171.711 266.677 174.04 266.677C176.955 266.677 178.654 265.036 178.654 262.443V259.763H178.61C177.804 261.755 175.871 263.176 173.425 263.176C169.587 263.176 166.965 260.07 166.965 255.324V255.31C166.965 250.593 169.616 247.487 173.454 247.487C175.885 247.487 177.775 248.967 178.61 250.988H178.654V247.766H180.602V262.604C180.602 266.12 178.083 268.405 174.054 268.405ZM173.805 261.447C176.677 261.447 178.654 258.986 178.654 255.324V255.31C178.654 251.662 176.662 249.216 173.805 249.216C170.861 249.216 168.957 251.633 168.957 255.31V255.324C168.957 259.045 170.861 261.447 173.805 261.447ZM194.621 263.278C192.116 263.278 190.885 262.092 190.885 259.426V249.392H188.644V247.766H190.885V243.649H192.878V247.766H195.895V249.392H192.878V259.396C192.878 261.081 193.595 261.652 195.016 261.652C195.368 261.652 195.676 261.608 195.895 261.579V263.161C195.588 263.22 195.09 263.278 194.621 263.278ZM204.245 263.278C199.968 263.278 197.316 260.246 197.316 255.427V255.412C197.316 250.637 200.011 247.487 204.084 247.487C208.156 247.487 210.719 250.534 210.719 255.09V255.852H199.279C199.338 259.484 201.286 261.55 204.289 261.55C206.53 261.55 208.083 260.422 208.581 258.767L208.61 258.635H210.529L210.5 258.781C209.972 261.389 207.541 263.278 204.245 263.278ZM204.069 249.216C201.476 249.216 199.543 251.076 199.308 254.313H208.771C208.552 250.988 206.677 249.216 204.069 249.216ZM219.479 263.278C215.246 263.278 212.551 260.217 212.551 255.368V255.354C212.551 250.563 215.29 247.487 219.465 247.487C223.01 247.487 225.309 249.787 225.69 252.409L225.705 252.541H223.801L223.771 252.424C223.346 250.637 221.838 249.216 219.465 249.216C216.491 249.216 214.543 251.604 214.543 255.383V255.397C214.543 259.235 216.52 261.55 219.479 261.55C221.75 261.55 223.317 260.246 223.771 258.342L223.801 258.225H225.719L225.705 258.342C225.251 261.184 222.804 263.278 219.479 263.278ZM228.268 263V241.862H230.217V250.549H230.26C231.037 248.688 232.809 247.502 235.241 247.502C238.537 247.502 240.734 249.89 240.734 253.625V263H238.786V253.933C238.786 250.93 237.204 249.23 234.611 249.23C231.974 249.23 230.217 251.193 230.217 254.021V263H228.268ZM243.986 263V247.766H245.92V250.358H245.978C246.74 248.718 248.454 247.502 250.915 247.502C254.284 247.502 256.276 249.67 256.276 253.244V263H254.343V253.566C254.343 250.739 252.936 249.23 250.344 249.23C247.692 249.23 245.92 251.135 245.92 253.977V263H243.986ZM265.724 263.278C261.564 263.264 258.781 260.217 258.781 255.383V255.354C258.781 250.52 261.579 247.487 265.724 247.487C269.855 247.487 272.668 250.505 272.668 255.354V255.383C272.668 260.231 269.87 263.278 265.724 263.278ZM265.739 261.55C268.713 261.55 270.69 259.235 270.69 255.383V255.354C270.69 251.501 268.698 249.216 265.724 249.216C262.751 249.216 260.773 251.516 260.773 255.354V255.383C260.773 259.25 262.736 261.535 265.739 261.55ZM275.378 263V241.862H277.311V263H275.378ZM286.965 263.278C282.804 263.264 280.021 260.217 280.021 255.383V255.354C280.021 250.52 282.819 247.487 286.965 247.487C291.095 247.487 293.908 250.505 293.908 255.354V255.383C293.908 260.231 291.11 263.278 286.965 263.278ZM286.979 261.55C289.953 261.55 291.93 259.235 291.93 255.383V255.354C291.93 251.501 289.938 249.216 286.965 249.216C283.991 249.216 282.013 251.516 282.013 255.354V255.383C282.013 259.25 283.976 261.535 286.979 261.55ZM302.814 268.405C299.196 268.405 296.969 266.677 296.427 264.523L296.398 264.406H298.346L298.405 264.538C298.918 265.769 300.47 266.677 302.8 266.677C305.715 266.677 307.414 265.036 307.414 262.443V259.763H307.37C306.564 261.755 304.631 263.176 302.184 263.176C298.346 263.176 295.724 260.07 295.724 255.324V255.31C295.724 250.593 298.376 247.487 302.214 247.487C304.645 247.487 306.535 248.967 307.37 250.988H307.414V247.766H309.362V262.604C309.362 266.12 306.843 268.405 302.814 268.405ZM302.565 261.447C305.436 261.447 307.414 258.986 307.414 255.324V255.31C307.414 251.662 305.422 249.216 302.565 249.216C299.621 249.216 297.717 251.633 297.717 255.31V255.324C297.717 259.045 299.621 261.447 302.565 261.447ZM313.727 268.127C313.346 268.127 312.936 268.083 312.658 268.039V266.442C312.848 266.472 313.097 266.501 313.346 266.501C315.06 266.501 315.954 265.944 316.628 264.084L316.994 263.103L311.266 247.766H313.346L317.961 261.066H318.019L322.648 247.766H324.699L318.591 264.216C317.58 266.926 316.335 268.127 313.727 268.127Z" fill="white"/>
<path d="M67.1208 333.387V333.431C67.1208 335.306 65.6267 336.8 63.7517 336.8H63.7078C61.8328 336.8 60.3386 335.306 60.3386 333.431V333.387C60.3386 331.512 61.8328 330.018 63.7078 330.018H63.7517C65.6267 330.018 67.1208 331.512 67.1208 333.387ZM97.8533 342V337.942H87.3064V334.72L96.0808 320.862H101.457V334.837H104.328V337.942H101.457V342H97.8533ZM90.7048 334.925H97.9119V323.719H97.824L90.7048 334.822V334.925ZM114.684 342.366C109.499 342.366 106.379 338.162 106.379 331.438V331.409C106.379 324.686 109.499 320.496 114.684 320.496C119.855 320.496 122.99 324.686 122.99 331.409V331.438C122.99 338.162 119.855 342.366 114.684 342.366ZM114.684 339.275C117.526 339.275 119.181 336.316 119.181 331.438V331.409C119.181 326.531 117.526 323.602 114.684 323.602C111.828 323.602 110.187 326.531 110.187 331.409V331.438C110.187 336.316 111.828 339.275 114.684 339.275ZM130.197 331.585C127.282 331.585 125.51 329.49 125.51 326.136V326.121C125.51 322.767 127.282 320.672 130.197 320.672C133.097 320.672 134.855 322.767 134.855 326.121V326.136C134.855 329.49 133.097 331.585 130.197 331.585ZM131.926 342H128.967L142.414 320.862H145.344L131.926 342ZM130.197 329.388C131.457 329.388 132.16 328.216 132.16 326.136V326.121C132.16 324.041 131.457 322.869 130.197 322.869C128.923 322.869 128.205 324.041 128.205 326.121V326.136C128.205 328.216 128.923 329.388 130.197 329.388ZM144.128 342.19C141.227 342.19 139.455 340.096 139.455 336.727V336.712C139.455 333.372 141.227 331.277 144.128 331.277C147.028 331.277 148.801 333.372 148.801 336.712V336.727C148.801 340.096 147.028 342.19 144.128 342.19ZM144.128 339.993C145.387 339.993 146.105 338.821 146.105 336.741V336.727C146.105 334.646 145.387 333.475 144.128 333.475C142.853 333.475 142.135 334.646 142.135 336.727V336.741C142.135 338.821 142.853 339.993 144.128 339.993Z" fill="#9DC4FF"/>
<path d="M164.064 342.278C159.904 342.264 157.121 339.217 157.121 334.383V334.354C157.121 329.52 159.919 326.487 164.064 326.487C168.195 326.487 171.008 329.505 171.008 334.354V334.383C171.008 339.231 168.21 342.278 164.064 342.278ZM164.079 340.55C167.052 340.55 169.03 338.235 169.03 334.383V334.354C169.03 330.501 167.038 328.216 164.064 328.216C161.091 328.216 159.113 330.516 159.113 334.354V334.383C159.113 338.25 161.076 340.535 164.079 340.55ZM174.377 342V328.392H172.253V326.766H174.377V324.612C174.377 321.858 175.71 320.584 178.259 320.584C178.801 320.584 179.343 320.643 179.679 320.701V322.298C179.357 322.239 178.976 322.21 178.581 322.21C177.101 322.21 176.296 322.957 176.296 324.642V326.766H179.577V328.392H176.31V342H174.377ZM188.263 347.127V326.766H190.197V329.988H190.256C191.105 327.923 192.98 326.487 195.427 326.487C199.294 326.487 201.886 329.622 201.886 334.383V334.397C201.886 339.173 199.279 342.278 195.456 342.278C193.024 342.278 191.091 340.857 190.256 338.821H190.197V347.127H188.263ZM195.09 340.55C198.019 340.55 199.909 338.133 199.909 334.397V334.383C199.909 330.618 198.019 328.216 195.09 328.216C192.219 328.216 190.197 330.691 190.197 334.383V334.397C190.197 338.074 192.233 340.55 195.09 340.55ZM210.661 342.278C206.384 342.278 203.732 339.246 203.732 334.427V334.412C203.732 329.637 206.427 326.487 210.5 326.487C214.572 326.487 217.135 329.534 217.135 334.09V334.852H205.695C205.754 338.484 207.702 340.55 210.705 340.55C212.946 340.55 214.499 339.422 214.997 337.767L215.026 337.635H216.945L216.916 337.781C216.388 340.389 213.957 342.278 210.661 342.278ZM210.485 328.216C207.892 328.216 205.959 330.076 205.724 333.313H215.187C214.968 329.988 213.093 328.216 210.485 328.216ZM225.91 342.278C221.75 342.264 218.967 339.217 218.967 334.383V334.354C218.967 329.52 221.764 326.487 225.91 326.487C230.041 326.487 232.853 329.505 232.853 334.354V334.383C232.853 339.231 230.055 342.278 225.91 342.278ZM225.925 340.55C228.898 340.55 230.876 338.235 230.876 334.383V334.354C230.876 330.501 228.884 328.216 225.91 328.216C222.936 328.216 220.959 330.516 220.959 334.354V334.383C220.959 338.25 222.922 340.535 225.925 340.55ZM235.431 347.127V326.766H237.365V329.988H237.424C238.273 327.923 240.148 326.487 242.594 326.487C246.462 326.487 249.054 329.622 249.054 334.383V334.397C249.054 339.173 246.447 342.278 242.624 342.278C240.192 342.278 238.259 340.857 237.424 338.821H237.365V347.127H235.431ZM242.258 340.55C245.187 340.55 247.077 338.133 247.077 334.397V334.383C247.077 330.618 245.187 328.216 242.258 328.216C239.386 328.216 237.365 330.691 237.365 334.383V334.397C237.365 338.074 239.401 340.55 242.258 340.55ZM251.794 342V320.862H253.727V342H251.794ZM263.366 342.278C259.089 342.278 256.437 339.246 256.437 334.427V334.412C256.437 329.637 259.133 326.487 263.205 326.487C267.277 326.487 269.841 329.534 269.841 334.09V334.852H258.4C258.459 338.484 260.407 340.55 263.41 340.55C265.651 340.55 267.204 339.422 267.702 337.767L267.731 337.635H269.65L269.621 337.781C269.094 340.389 266.662 342.278 263.366 342.278ZM263.19 328.216C260.597 328.216 258.664 330.076 258.429 333.313H267.892C267.673 329.988 265.798 328.216 263.19 328.216ZM284.269 342.278C280.431 342.278 277.824 339.144 277.824 334.383V334.368C277.824 329.607 280.446 326.487 284.255 326.487C286.642 326.487 288.605 327.835 289.469 329.944H289.513V320.862H291.462V342H289.513V338.836H289.455C288.576 340.931 286.672 342.278 284.269 342.278ZM284.635 340.55C287.507 340.55 289.528 338.06 289.528 334.383V334.368C289.528 330.706 287.477 328.216 284.635 328.216C281.706 328.216 279.816 330.633 279.816 334.368V334.383C279.816 338.147 281.706 340.55 284.635 340.55ZM301.115 342.278C296.955 342.264 294.172 339.217 294.172 334.383V334.354C294.172 329.52 296.969 326.487 301.115 326.487C305.246 326.487 308.058 329.505 308.058 334.354V334.383C308.058 339.231 305.26 342.278 301.115 342.278ZM301.13 340.55C304.103 340.55 306.081 338.235 306.081 334.383V334.354C306.081 330.501 304.089 328.216 301.115 328.216C298.141 328.216 296.164 330.516 296.164 334.354V334.383C296.164 338.25 298.127 340.535 301.13 340.55ZM310.636 342V326.766H312.57V329.358H312.629C313.39 327.718 315.104 326.502 317.565 326.502C320.934 326.502 322.927 328.67 322.927 332.244V342H320.993V332.566C320.993 329.739 319.587 328.23 316.994 328.23C314.343 328.23 312.57 330.135 312.57 332.977V342H310.636ZM325.607 327.718L326.852 320.862H328.918L327.028 327.718H325.607ZM336.623 342.278C334.118 342.278 332.887 341.092 332.887 338.426V328.392H330.646V326.766H332.887V322.649H334.88V326.766H337.897V328.392H334.88V338.396C334.88 340.081 335.597 340.652 337.018 340.652C337.37 340.652 337.677 340.608 337.897 340.579V342.161C337.59 342.22 337.092 342.278 336.623 342.278ZM352.048 342.264C348.678 342.264 346.672 340.096 346.672 336.521V326.766H348.62V336.199C348.62 339.026 350.026 340.535 352.604 340.535C355.27 340.535 357.028 338.631 357.028 335.789V326.766H358.976V342H357.028V339.407H356.984C356.208 341.048 354.509 342.264 352.048 342.264ZM367.546 342.278C364.089 342.278 361.877 340.433 361.584 337.737L361.569 337.605H363.503L363.532 337.737C363.84 339.495 365.26 340.638 367.56 340.638C369.86 340.638 371.325 339.583 371.325 337.986V337.972C371.325 336.653 370.593 335.936 368.556 335.452L366.257 334.896C363.385 334.207 362.009 332.947 362.009 330.838V330.823C362.009 328.289 364.25 326.487 367.428 326.487C370.68 326.487 372.76 328.377 373.01 330.999L373.024 331.16H371.164L371.149 331.058C370.9 329.285 369.552 328.128 367.428 328.128C365.363 328.128 363.986 329.197 363.986 330.75V330.765C363.986 331.98 364.806 332.757 366.813 333.24L369.113 333.782C372.145 334.515 373.302 335.701 373.302 337.84V337.854C373.302 340.447 370.885 342.278 367.546 342.278ZM382.077 342.278C377.8 342.278 375.148 339.246 375.148 334.427V334.412C375.148 329.637 377.844 326.487 381.916 326.487C385.988 326.487 388.552 329.534 388.552 334.09V334.852H377.111C377.17 338.484 379.118 340.55 382.121 340.55C384.362 340.55 385.915 339.422 386.413 337.767L386.442 337.635H388.361L388.332 337.781C387.804 340.389 385.373 342.278 382.077 342.278ZM381.901 328.216C379.308 328.216 377.375 330.076 377.14 333.313H386.603C386.384 329.988 384.509 328.216 381.901 328.216ZM92.4333 378.278C89.9285 378.278 88.698 377.092 88.698 374.426V364.392H86.4568V362.766H88.698V358.649H90.6902V362.766H93.7078V364.392H90.6902V374.396C90.6902 376.081 91.408 376.652 92.8289 376.652C93.1804 376.652 93.488 376.608 93.7078 376.579V378.161C93.4001 378.22 92.9021 378.278 92.4333 378.278ZM96.5496 378V356.862H98.4978V365.549H98.5417C99.3181 363.688 101.091 362.502 103.522 362.502C106.818 362.502 109.015 364.89 109.015 368.625V378H107.067V368.933C107.067 365.93 105.485 364.23 102.892 364.23C100.256 364.23 98.4978 366.193 98.4978 369.021V378H96.5496ZM118.434 378.278C114.157 378.278 111.506 375.246 111.506 370.427V370.412C111.506 365.637 114.201 362.487 118.273 362.487C122.345 362.487 124.909 365.534 124.909 370.09V370.852H113.469C113.527 374.484 115.475 376.55 118.478 376.55C120.719 376.55 122.272 375.422 122.77 373.767L122.8 373.635H124.719L124.689 373.781C124.162 376.389 121.73 378.278 118.434 378.278ZM118.259 364.216C115.666 364.216 113.732 366.076 113.498 369.313H122.961C122.741 365.988 120.866 364.216 118.259 364.216ZM128.63 360.012C127.912 360.012 127.341 359.44 127.341 358.723C127.341 358.005 127.912 357.448 128.63 357.448C129.333 357.448 129.904 358.005 129.904 358.723C129.904 359.44 129.333 360.012 128.63 360.012ZM127.648 378V362.766H129.596V378H127.648ZM133.097 378V362.766H135.031V365.505H135.09C135.632 363.645 136.979 362.487 138.825 362.487C139.338 362.487 139.792 362.59 140.026 362.663V364.553C139.777 364.45 139.235 364.348 138.576 364.348C136.408 364.348 135.031 365.988 135.031 368.566V378H133.097ZM155.597 378.278C153.195 378.278 151.276 376.931 150.397 374.777H150.353V378H148.405V356.862H150.353V365.944H150.397C151.261 363.835 153.224 362.487 155.612 362.487C159.421 362.487 162.043 365.607 162.043 370.368V370.383C162.043 375.144 159.435 378.278 155.597 378.278ZM155.231 376.55C158.161 376.55 160.051 374.147 160.051 370.383V370.368C160.051 366.633 158.161 364.216 155.231 364.216C152.389 364.216 150.339 366.706 150.339 370.368V370.383C150.339 374.06 152.36 376.55 155.231 376.55ZM164.621 378V362.766H166.554V365.505H166.613C167.155 363.645 168.503 362.487 170.348 362.487C170.861 362.487 171.315 362.59 171.55 362.663V364.553C171.301 364.45 170.759 364.348 170.099 364.348C167.931 364.348 166.554 365.988 166.554 368.566V378H164.621ZM177.687 378.278C174.684 378.278 172.634 376.477 172.634 373.781V373.752C172.634 371.159 174.596 369.592 178.097 369.357L182.844 369.064V367.746C182.844 365.549 181.452 364.216 179.079 364.216C176.867 364.216 175.417 365.285 175.094 367.014L175.065 367.16H173.19L173.205 366.984C173.498 364.362 175.666 362.487 179.108 362.487C182.594 362.487 184.777 364.45 184.777 367.57V378H182.844V375.217H182.785C181.95 377.033 179.943 378.278 177.687 378.278ZM174.611 373.781C174.611 375.451 176.017 376.579 178.083 376.579C180.749 376.579 182.844 374.704 182.844 372.272V370.588L178.332 370.896C175.944 371.042 174.611 372.082 174.611 373.752V373.781ZM189.157 360.012C188.439 360.012 187.868 359.44 187.868 358.723C187.868 358.005 188.439 357.448 189.157 357.448C189.86 357.448 190.431 358.005 190.431 358.723C190.431 359.44 189.86 360.012 189.157 360.012ZM188.176 378V362.766H190.124V378H188.176ZM193.625 378V362.766H195.558V365.358H195.617C196.379 363.718 198.093 362.502 200.553 362.502C203.923 362.502 205.915 364.67 205.915 368.244V378H203.981V368.566C203.981 365.739 202.575 364.23 199.982 364.23C197.331 364.23 195.558 366.135 195.558 368.977V378H193.625ZM219.845 378.278C216.843 378.278 214.792 376.477 214.792 373.781V373.752C214.792 371.159 216.755 369.592 220.256 369.357L225.002 369.064V367.746C225.002 365.549 223.61 364.216 221.237 364.216C219.025 364.216 217.575 365.285 217.253 367.014L217.223 367.16H215.348L215.363 366.984C215.656 364.362 217.824 362.487 221.266 362.487C224.753 362.487 226.935 364.45 226.935 367.57V378H225.002V375.217H224.943C224.108 377.033 222.101 378.278 219.845 378.278ZM216.769 373.781C216.769 375.451 218.176 376.579 220.241 376.579C222.907 376.579 225.002 374.704 225.002 372.272V370.588L220.49 370.896C218.102 371.042 216.769 372.082 216.769 373.752V373.781ZM234.728 378.278C232.223 378.278 230.993 377.092 230.993 374.426V364.392H228.752V362.766H230.993V358.649H232.985V362.766H236.003V364.392H232.985V374.396C232.985 376.081 233.703 376.652 235.124 376.652C235.475 376.652 235.783 376.608 236.003 376.579V378.161C235.695 378.22 235.197 378.278 234.728 378.278ZM249.377 378.278C246.374 378.278 244.323 376.477 244.323 373.781V373.752C244.323 371.159 246.286 369.592 249.787 369.357L254.533 369.064V367.746C254.533 365.549 253.141 364.216 250.768 364.216C248.556 364.216 247.106 365.285 246.784 367.014L246.755 367.16H244.88L244.894 366.984C245.187 364.362 247.355 362.487 250.798 362.487C254.284 362.487 256.467 364.45 256.467 367.57V378H254.533V375.217H254.474C253.639 377.033 251.633 378.278 249.377 378.278ZM246.301 373.781C246.301 375.451 247.707 376.579 249.772 376.579C252.438 376.579 254.533 374.704 254.533 372.272V370.588L250.021 370.896C247.634 371.042 246.301 372.082 246.301 373.752V373.781ZM259.85 378V356.862H261.784V378H259.85ZM265.387 378V356.862H267.321V378H265.387Z" fill="white"/>
<path d="M67.1208 448.387V448.431C67.1208 450.306 65.6267 451.8 63.7517 451.8H63.7078C61.8328 451.8 60.3386 450.306 60.3386 448.431V448.387C60.3386 446.512 61.8328 445.018 63.7078 445.018H63.7517C65.6267 445.018 67.1208 446.512 67.1208 448.387ZM96.0076 457.366C91.3347 457.366 87.4675 454.1 87.4675 446.688V446.658C87.4675 439.671 90.7048 435.496 96.0955 435.496C100.007 435.496 102.922 437.752 103.595 440.945L103.625 441.106H99.8748L99.8162 440.975C99.2595 439.524 97.9558 438.587 96.0662 438.587C92.6677 438.587 91.2468 441.839 91.1003 445.838C91.0857 446.058 91.0857 446.277 91.0857 446.512H91.1589C91.9939 444.578 94.1033 443.113 96.9744 443.113C101.047 443.113 103.903 446.043 103.903 450.013V450.042C103.903 454.305 100.563 457.366 96.0076 457.366ZM91.7302 450.101C91.7302 452.444 93.5906 454.275 95.949 454.275C98.3074 454.275 100.182 452.459 100.182 450.174V450.145C100.182 447.742 98.4099 446.028 95.9929 446.028C93.5759 446.028 91.7302 447.728 91.7302 450.086V450.101ZM114.977 457.366C109.792 457.366 106.672 453.162 106.672 446.438V446.409C106.672 439.686 109.792 435.496 114.977 435.496C120.148 435.496 123.283 439.686 123.283 446.409V446.438C123.283 453.162 120.148 457.366 114.977 457.366ZM114.977 454.275C117.819 454.275 119.474 451.316 119.474 446.438V446.409C119.474 441.531 117.819 438.602 114.977 438.602C112.121 438.602 110.48 441.531 110.48 446.409V446.438C110.48 451.316 112.121 454.275 114.977 454.275ZM130.49 446.585C127.575 446.585 125.802 444.49 125.802 441.136V441.121C125.802 437.767 127.575 435.672 130.49 435.672C133.39 435.672 135.148 437.767 135.148 441.121V441.136C135.148 444.49 133.39 446.585 130.49 446.585ZM132.219 457H129.26L142.707 435.862H145.636L132.219 457ZM130.49 444.388C131.75 444.388 132.453 443.216 132.453 441.136V441.121C132.453 439.041 131.75 437.869 130.49 437.869C129.216 437.869 128.498 439.041 128.498 441.121V441.136C128.498 443.216 129.216 444.388 130.49 444.388ZM144.421 457.19C141.52 457.19 139.748 455.096 139.748 451.727V451.712C139.748 448.372 141.52 446.277 144.421 446.277C147.321 446.277 149.094 448.372 149.094 451.712V451.727C149.094 455.096 147.321 457.19 144.421 457.19ZM144.421 454.993C145.68 454.993 146.398 453.821 146.398 451.741V451.727C146.398 449.646 145.68 448.475 144.421 448.475C143.146 448.475 142.428 449.646 142.428 451.727V451.741C142.428 453.821 143.146 454.993 144.421 454.993Z" fill="#9DC4FF"/>
<path d="M164.357 457.278C160.197 457.264 157.414 454.217 157.414 449.383V449.354C157.414 444.52 160.212 441.487 164.357 441.487C168.488 441.487 171.301 444.505 171.301 449.354V449.383C171.301 454.231 168.503 457.278 164.357 457.278ZM164.372 455.55C167.345 455.55 169.323 453.235 169.323 449.383V449.354C169.323 445.501 167.331 443.216 164.357 443.216C161.384 443.216 159.406 445.516 159.406 449.354V449.383C159.406 453.25 161.369 455.535 164.372 455.55ZM174.67 457V443.392H172.546V441.766H174.67V439.612C174.67 436.858 176.003 435.584 178.552 435.584C179.094 435.584 179.635 435.643 179.972 435.701V437.298C179.65 437.239 179.269 437.21 178.874 437.21C177.394 437.21 176.589 437.957 176.589 439.642V441.766H179.87V443.392H176.603V457H174.67ZM188.556 462.127V441.766H190.49V444.988H190.549C191.398 442.923 193.273 441.487 195.719 441.487C199.587 441.487 202.179 444.622 202.179 449.383V449.397C202.179 454.173 199.572 457.278 195.749 457.278C193.317 457.278 191.384 455.857 190.549 453.821H190.49V462.127H188.556ZM195.383 455.55C198.312 455.55 200.202 453.133 200.202 449.397V449.383C200.202 445.618 198.312 443.216 195.383 443.216C192.511 443.216 190.49 445.691 190.49 449.383V449.397C190.49 453.074 192.526 455.55 195.383 455.55ZM210.954 457.278C206.677 457.278 204.025 454.246 204.025 449.427V449.412C204.025 444.637 206.72 441.487 210.793 441.487C214.865 441.487 217.428 444.534 217.428 449.09V449.852H205.988C206.047 453.484 207.995 455.55 210.998 455.55C213.239 455.55 214.792 454.422 215.29 452.767L215.319 452.635H217.238L217.209 452.781C216.681 455.389 214.25 457.278 210.954 457.278ZM210.778 443.216C208.185 443.216 206.252 445.076 206.017 448.313H215.48C215.26 444.988 213.385 443.216 210.778 443.216ZM226.203 457.278C222.043 457.264 219.26 454.217 219.26 449.383V449.354C219.26 444.52 222.057 441.487 226.203 441.487C230.334 441.487 233.146 444.505 233.146 449.354V449.383C233.146 454.231 230.348 457.278 226.203 457.278ZM226.218 455.55C229.191 455.55 231.169 453.235 231.169 449.383V449.354C231.169 445.501 229.177 443.216 226.203 443.216C223.229 443.216 221.252 445.516 221.252 449.354V449.383C221.252 453.25 223.215 455.535 226.218 455.55ZM235.724 462.127V441.766H237.658V444.988H237.717C238.566 442.923 240.441 441.487 242.887 441.487C246.755 441.487 249.347 444.622 249.347 449.383V449.397C249.347 454.173 246.74 457.278 242.917 457.278C240.485 457.278 238.552 455.857 237.717 453.821H237.658V462.127H235.724ZM242.551 455.55C245.48 455.55 247.37 453.133 247.37 449.397V449.383C247.37 445.618 245.48 443.216 242.551 443.216C239.679 443.216 237.658 445.691 237.658 449.383V449.397C237.658 453.074 239.694 455.55 242.551 455.55ZM252.087 457V435.862H254.02V457H252.087ZM263.659 457.278C259.382 457.278 256.73 454.246 256.73 449.427V449.412C256.73 444.637 259.426 441.487 263.498 441.487C267.57 441.487 270.134 444.534 270.134 449.09V449.852H258.693C258.752 453.484 260.7 455.55 263.703 455.55C265.944 455.55 267.497 454.422 267.995 452.767L268.024 452.635H269.943L269.914 452.781C269.386 455.389 266.955 457.278 263.659 457.278ZM263.483 443.216C260.89 443.216 258.957 445.076 258.722 448.313H268.185C267.966 444.988 266.091 443.216 263.483 443.216ZM278.879 457V441.766H280.812V444.388H280.871C281.501 442.703 283.053 441.502 285.192 441.502C287.419 441.502 289.03 442.791 289.601 444.725H289.645C290.378 442.835 292.121 441.502 294.435 441.502C297.424 441.502 299.372 443.494 299.372 446.585V457H297.438V447.024C297.438 444.651 296.12 443.23 293.908 443.23C291.652 443.23 290.099 444.959 290.099 447.405V457H288.151V446.849C288.151 444.666 286.745 443.23 284.665 443.23C282.424 443.23 280.812 445.032 280.812 447.64V457H278.879ZM307.15 457.278C304.147 457.278 302.096 455.477 302.096 452.781V452.752C302.096 450.159 304.059 448.592 307.56 448.357L312.306 448.064V446.746C312.306 444.549 310.915 443.216 308.542 443.216C306.33 443.216 304.88 444.285 304.557 446.014L304.528 446.16H302.653L302.668 445.984C302.961 443.362 305.129 441.487 308.571 441.487C312.057 441.487 314.24 443.45 314.24 446.57V457H312.306V454.217H312.248C311.413 456.033 309.406 457.278 307.15 457.278ZM304.074 452.781C304.074 454.451 305.48 455.579 307.546 455.579C310.212 455.579 312.306 453.704 312.306 451.272V449.588L307.795 449.896C305.407 450.042 304.074 451.082 304.074 452.752V452.781ZM317.682 457V435.862H319.616V448.943H319.675L327.145 441.766H329.548L322.707 448.328L329.694 457H327.409L321.315 449.515L319.616 451.097V457H317.682ZM336.872 457.278C332.594 457.278 329.943 454.246 329.943 449.427V449.412C329.943 444.637 332.638 441.487 336.711 441.487C340.783 441.487 343.346 444.534 343.346 449.09V449.852H331.906C331.965 453.484 333.913 455.55 336.916 455.55C339.157 455.55 340.71 454.422 341.208 452.767L341.237 452.635H343.156L343.127 452.781C342.599 455.389 340.168 457.278 336.872 457.278ZM336.696 443.216C334.103 443.216 332.17 445.076 331.935 448.313H341.398C341.178 444.988 339.303 443.216 336.696 443.216ZM92.4333 493.278C89.9285 493.278 88.698 492.092 88.698 489.426V479.392H86.4568V477.766H88.698V473.649H90.6902V477.766H93.7078V479.392H90.6902V489.396C90.6902 491.081 91.408 491.652 92.8289 491.652C93.1804 491.652 93.488 491.608 93.7078 491.579V493.161C93.4001 493.22 92.9021 493.278 92.4333 493.278ZM102.057 493.278C97.78 493.278 95.1287 490.246 95.1287 485.427V485.412C95.1287 480.637 97.824 477.487 101.896 477.487C105.969 477.487 108.532 480.534 108.532 485.09V485.852H97.0916C97.1501 489.484 99.0984 491.55 102.101 491.55C104.343 491.55 105.895 490.422 106.393 488.767L106.423 488.635H108.342L108.312 488.781C107.785 491.389 105.353 493.278 102.057 493.278ZM101.882 479.216C99.2888 479.216 97.3552 481.076 97.1208 484.313H106.584C106.364 480.988 104.489 479.216 101.882 479.216ZM111.125 493V477.766H113.058V480.505H113.117C113.659 478.645 115.007 477.487 116.852 477.487C117.365 477.487 117.819 477.59 118.053 477.663V479.553C117.804 479.45 117.262 479.348 116.603 479.348C114.435 479.348 113.058 480.988 113.058 483.566V493H111.125ZM120.148 493V477.766H122.082V480.505H122.14C122.682 478.645 124.03 477.487 125.876 477.487C126.388 477.487 126.843 477.59 127.077 477.663V479.553C126.828 479.45 126.286 479.348 125.627 479.348C123.459 479.348 122.082 480.988 122.082 483.566V493H120.148ZM130.3 475.012C129.582 475.012 129.01 474.44 129.01 473.723C129.01 473.005 129.582 472.448 130.3 472.448C131.003 472.448 131.574 473.005 131.574 473.723C131.574 474.44 131.003 475.012 130.3 475.012ZM129.318 493V477.766H131.266V493H129.318ZM142.092 493.278C139.689 493.278 137.77 491.931 136.891 489.777H136.847V493H134.899V471.862H136.847V480.944H136.891C137.756 478.835 139.719 477.487 142.106 477.487C145.915 477.487 148.537 480.607 148.537 485.368V485.383C148.537 490.144 145.929 493.278 142.092 493.278ZM141.725 491.55C144.655 491.55 146.545 489.147 146.545 485.383V485.368C146.545 481.633 144.655 479.216 141.725 479.216C138.884 479.216 136.833 481.706 136.833 485.368V485.383C136.833 489.06 138.854 491.55 141.725 491.55ZM151.247 493V471.862H153.18V493H151.247ZM162.819 493.278C158.542 493.278 155.89 490.246 155.89 485.427V485.412C155.89 480.637 158.586 477.487 162.658 477.487C166.73 477.487 169.294 480.534 169.294 485.09V485.852H157.853C157.912 489.484 159.86 491.55 162.863 491.55C165.104 491.55 166.657 490.422 167.155 488.767L167.184 488.635H169.103L169.074 488.781C168.547 491.389 166.115 493.278 162.819 493.278ZM162.643 479.216C160.051 479.216 158.117 481.076 157.883 484.313H167.345C167.126 480.988 165.251 479.216 162.643 479.216ZM183.722 493.278C179.885 493.278 177.277 490.144 177.277 485.383V485.368C177.277 480.607 179.899 477.487 183.708 477.487C186.095 477.487 188.058 478.835 188.923 480.944H188.967V471.862H190.915V493H188.967V489.836H188.908C188.029 491.931 186.125 493.278 183.722 493.278ZM184.089 491.55C186.96 491.55 188.981 489.06 188.981 485.383V485.368C188.981 481.706 186.93 479.216 184.089 479.216C181.159 479.216 179.269 481.633 179.269 485.368V485.383C179.269 489.147 181.159 491.55 184.089 491.55ZM200.553 493.278C196.276 493.278 193.625 490.246 193.625 485.427V485.412C193.625 480.637 196.32 477.487 200.392 477.487C204.465 477.487 207.028 480.534 207.028 485.09V485.852H195.588C195.646 489.484 197.594 491.55 200.597 491.55C202.839 491.55 204.391 490.422 204.889 488.767L204.919 488.635H206.838L206.808 488.781C206.281 491.389 203.849 493.278 200.553 493.278ZM200.378 479.216C197.785 479.216 195.851 481.076 195.617 484.313H205.08C204.86 480.988 202.985 479.216 200.378 479.216ZM215.788 493.278C211.554 493.278 208.859 490.217 208.859 485.368V485.354C208.859 480.563 211.598 477.487 215.773 477.487C219.318 477.487 221.618 479.787 221.999 482.409L222.013 482.541H220.109L220.08 482.424C219.655 480.637 218.146 479.216 215.773 479.216C212.8 479.216 210.851 481.604 210.851 485.383V485.397C210.851 489.235 212.829 491.55 215.788 491.55C218.058 491.55 219.626 490.246 220.08 488.342L220.109 488.225H222.028L222.013 488.342C221.559 491.184 219.113 493.278 215.788 493.278ZM225.573 475.012C224.855 475.012 224.284 474.44 224.284 473.723C224.284 473.005 224.855 472.448 225.573 472.448C226.276 472.448 226.847 473.005 226.847 473.723C226.847 474.44 226.276 475.012 225.573 475.012ZM224.592 493V477.766H226.54V493H224.592ZM235.27 493.278C231.813 493.278 229.601 491.433 229.308 488.737L229.294 488.605H231.227L231.257 488.737C231.564 490.495 232.985 491.638 235.285 491.638C237.585 491.638 239.05 490.583 239.05 488.986V488.972C239.05 487.653 238.317 486.936 236.281 486.452L233.981 485.896C231.11 485.207 229.733 483.947 229.733 481.838V481.823C229.733 479.289 231.974 477.487 235.153 477.487C238.405 477.487 240.485 479.377 240.734 481.999L240.749 482.16H238.888L238.874 482.058C238.625 480.285 237.277 479.128 235.153 479.128C233.088 479.128 231.711 480.197 231.711 481.75V481.765C231.711 482.98 232.531 483.757 234.538 484.24L236.838 484.782C239.87 485.515 241.027 486.701 241.027 488.84V488.854C241.027 491.447 238.61 493.278 235.27 493.278ZM244.762 475.012C244.045 475.012 243.473 474.44 243.473 473.723C243.473 473.005 244.045 472.448 244.762 472.448C245.466 472.448 246.037 473.005 246.037 473.723C246.037 474.44 245.466 475.012 244.762 475.012ZM243.781 493V477.766H245.729V493H243.781ZM255.412 493.278C251.252 493.264 248.469 490.217 248.469 485.383V485.354C248.469 480.52 251.266 477.487 255.412 477.487C259.543 477.487 262.355 480.505 262.355 485.354V485.383C262.355 490.231 259.557 493.278 255.412 493.278ZM255.427 491.55C258.4 491.55 260.378 489.235 260.378 485.383V485.354C260.378 481.501 258.385 479.216 255.412 479.216C252.438 479.216 250.461 481.516 250.461 485.354V485.383C250.461 489.25 252.424 491.535 255.427 491.55ZM264.933 493V477.766H266.867V480.358H266.926C267.687 478.718 269.401 477.502 271.862 477.502C275.231 477.502 277.223 479.67 277.223 483.244V493H275.29V483.566C275.29 480.739 273.884 479.23 271.291 479.23C268.639 479.23 266.867 481.135 266.867 483.977V493H264.933ZM285.719 493.278C282.262 493.278 280.051 491.433 279.758 488.737L279.743 488.605H281.677L281.706 488.737C282.013 490.495 283.434 491.638 285.734 491.638C288.034 491.638 289.499 490.583 289.499 488.986V488.972C289.499 487.653 288.766 486.936 286.73 486.452L284.43 485.896C281.559 485.207 280.182 483.947 280.182 481.838V481.823C280.182 479.289 282.424 477.487 285.602 477.487C288.854 477.487 290.934 479.377 291.183 481.999L291.198 482.16H289.338L289.323 482.058C289.074 480.285 287.726 479.128 285.602 479.128C283.537 479.128 282.16 480.197 282.16 481.75V481.765C282.16 482.98 282.98 483.757 284.987 484.24L287.287 484.782C290.319 485.515 291.476 486.701 291.476 488.84V488.854C291.476 491.447 289.059 493.278 285.719 493.278Z" fill="white"/>
<circle cx="63.4" cy="103.4" r="3.4" fill="#9DC4FF"/>
<defs>
<filter id="filter0_bdi_7309_1275" x="-92" y="-92" width="651" height="767" filterUnits="userSpaceOnUse" color-interpolation-filters="sRGB">
<feFlood flood-opacity="0" result="BackgroundImageFix"/>
<feGaussianBlur in="BackgroundImageFix" stdDeviation="60"/>
<feComposite in2="SourceAlpha" operator="in" result="effect1_backgroundBlur_7309_1275"/>
<feColorMatrix in="SourceAlpha" type="matrix" values="0 0 0 0 0 0 0 0 0 0 0 0 0 0 0 0 0 0 127 0" result="hardAlpha"/>
<feOffset dx="2" dy="2"/>
<feGaussianBlur stdDeviation="15"/>
<feComposite in2="hardAlpha" operator="out"/>
<feColorMatrix type="matrix" values="0 0 0 0 0 0 0 0 0 0 0 0 0 0 0 0 0 0 0.25 0"/>
<feBlend mode="normal" in2="effect1_backgroundBlur_7309_1275" result="effect2_dropShadow_7309_1275"/>
<feBlend mode="normal" in="SourceGraphic" in2="effect2_dropShadow_7309_1275" result="shape"/>
<feColorMatrix in="SourceAlpha" type="matrix" values="0 0 0 0 0 0 0 0 0 0 0 0 0 0 0 0 0 0 127 0" result="hardAlpha"/>
<feMorphology radius="2" operator="erode" in="SourceAlpha" result="effect3_innerShadow_7309_1275"/>
<feOffset/>
<feGaussianBlur stdDeviation="1"/>
<feComposite in2="hardAlpha" operator="arithmetic" k2="-1" k3="1"/>
<feColorMatrix type="matrix" values="0 0 0 0 1 0 0 0 0 1 0 0 0 0 1 0 0 0 0.1 0"/>
<feBlend mode="normal" in2="shape" result="effect3_innerShadow_7309_1275"/>
</filter>
<linearGradient id="paint0_linear_7309_1275" x1="87.1228" y1="30" x2="496.16" y2="310.836" gradientUnits="userSpaceOnUse">
<stop stop-color="#646464"/>
<stop offset="0.168844" stop-opacity="0.37"/>
<stop offset="0.89794" stop-opacity="0.56"/>
<stop offset="1" stop-color="#646464"/>
</linearGradient>
</defs>
</svg>
