<svg width="449" height="587" viewBox="0 0 449 587" fill="none" xmlns="http://www.w3.org/2000/svg">
<g filter="url(#filter0_bdi_7024_1178)">
<rect x="30" y="30" width="385" height="523" rx="40" fill="#2A2C30" fill-opacity="0.8" shape-rendering="crispEdges"/>
<rect x="29" y="29" width="387" height="525" rx="41" stroke="url(#paint0_linear_7024_1178)" stroke-opacity="0.8" stroke-width="2" shape-rendering="crispEdges"/>
</g>
<path d="M66.8984 103.387V103.431C66.8984 105.306 65.4043 106.8 63.5293 106.8H63.4854C61.6104 106.8 60.1162 105.306 60.1162 103.431V103.387C60.1162 101.512 61.6104 100.018 63.4854 100.018H63.5293C65.4043 100.018 66.8984 101.512 66.8984 103.387ZM88.71 112L97.9824 94.0264V93.9531H86.9961V90.8623H101.703V94.0117L92.665 112H88.71ZM112.279 112.366C107.885 112.366 104.896 109.744 104.618 106.243L104.604 106.053H108.148L108.163 106.155C108.471 107.928 110.082 109.29 112.309 109.29C114.828 109.29 116.571 107.562 116.571 105.086V105.057C116.571 102.64 114.799 100.911 112.323 100.911C111.122 100.911 110.082 101.277 109.276 101.951C108.881 102.273 108.529 102.684 108.28 103.152H104.984L105.995 90.8623H118.974V93.9531H109.013L108.427 100.325H108.5C109.423 98.9043 111.166 98.0693 113.29 98.0693C117.318 98.0693 120.219 100.984 120.219 104.998V105.027C120.219 109.378 116.952 112.366 112.279 112.366ZM127.162 101.585C124.247 101.585 122.475 99.4902 122.475 96.1357V96.1211C122.475 92.7666 124.247 90.6719 127.162 90.6719C130.062 90.6719 131.82 92.7666 131.82 96.1211V96.1357C131.82 99.4902 130.062 101.585 127.162 101.585ZM128.891 112H125.932L139.379 90.8623H142.309L128.891 112ZM127.162 99.3877C128.422 99.3877 129.125 98.2158 129.125 96.1357V96.1211C129.125 94.041 128.422 92.8691 127.162 92.8691C125.888 92.8691 125.17 94.041 125.17 96.1211V96.1357C125.17 98.2158 125.888 99.3877 127.162 99.3877ZM141.093 112.19C138.192 112.19 136.42 110.096 136.42 106.727V106.712C136.42 103.372 138.192 101.277 141.093 101.277C143.993 101.277 145.766 103.372 145.766 106.712V106.727C145.766 110.096 143.993 112.19 141.093 112.19ZM141.093 109.993C142.353 109.993 143.07 108.821 143.07 106.741V106.727C143.07 104.646 142.353 103.475 141.093 103.475C139.818 103.475 139.101 104.646 139.101 106.727V106.741C139.101 108.821 139.818 109.993 141.093 109.993Z" fill="#9DC4FF"/>
<path d="M161.029 112.278C156.869 112.264 154.086 109.217 154.086 104.383V104.354C154.086 99.5195 156.884 96.4873 161.029 96.4873C165.16 96.4873 167.973 99.5049 167.973 104.354V104.383C167.973 109.231 165.175 112.278 161.029 112.278ZM161.044 110.55C164.018 110.55 165.995 108.235 165.995 104.383V104.354C165.995 100.501 164.003 98.2158 161.029 98.2158C158.056 98.2158 156.078 100.516 156.078 104.354V104.383C156.078 108.25 158.041 110.535 161.044 110.55ZM171.342 112V98.3916H169.218V96.7656H171.342V94.6123C171.342 91.8584 172.675 90.584 175.224 90.584C175.766 90.584 176.308 90.6426 176.645 90.7012V92.2979C176.322 92.2393 175.941 92.21 175.546 92.21C174.066 92.21 173.261 92.957 173.261 94.6416V96.7656H176.542V98.3916H173.275V112H171.342ZM185.229 117.127V96.7656H187.162V99.9883H187.221C188.07 97.9229 189.945 96.4873 192.392 96.4873C196.259 96.4873 198.852 99.6221 198.852 104.383V104.397C198.852 109.173 196.244 112.278 192.421 112.278C189.989 112.278 188.056 110.857 187.221 108.821H187.162V117.127H185.229ZM192.055 110.55C194.984 110.55 196.874 108.133 196.874 104.397V104.383C196.874 100.618 194.984 98.2158 192.055 98.2158C189.184 98.2158 187.162 100.691 187.162 104.383V104.397C187.162 108.074 189.198 110.55 192.055 110.55ZM207.626 112.278C203.349 112.278 200.697 109.246 200.697 104.427V104.412C200.697 99.6367 203.393 96.4873 207.465 96.4873C211.537 96.4873 214.101 99.5342 214.101 104.09V104.852H202.66C202.719 108.484 204.667 110.55 207.67 110.55C209.911 110.55 211.464 109.422 211.962 107.767L211.991 107.635H213.91L213.881 107.781C213.354 110.389 210.922 112.278 207.626 112.278ZM207.45 98.2158C204.857 98.2158 202.924 100.076 202.689 103.313H212.152C211.933 99.9883 210.058 98.2158 207.45 98.2158ZM222.875 112.278C218.715 112.264 215.932 109.217 215.932 104.383V104.354C215.932 99.5195 218.729 96.4873 222.875 96.4873C227.006 96.4873 229.818 99.5049 229.818 104.354V104.383C229.818 109.231 227.021 112.278 222.875 112.278ZM222.89 110.55C225.863 110.55 227.841 108.235 227.841 104.383V104.354C227.841 100.501 225.849 98.2158 222.875 98.2158C219.901 98.2158 217.924 100.516 217.924 104.354V104.383C217.924 108.25 219.887 110.535 222.89 110.55ZM232.396 117.127V96.7656H234.33V99.9883H234.389C235.238 97.9229 237.113 96.4873 239.56 96.4873C243.427 96.4873 246.02 99.6221 246.02 104.383V104.397C246.02 109.173 243.412 112.278 239.589 112.278C237.157 112.278 235.224 110.857 234.389 108.821H234.33V117.127H232.396ZM239.223 110.55C242.152 110.55 244.042 108.133 244.042 104.397V104.383C244.042 100.618 242.152 98.2158 239.223 98.2158C236.352 98.2158 234.33 100.691 234.33 104.383V104.397C234.33 108.074 236.366 110.55 239.223 110.55ZM248.759 112V90.8623H250.692V112H248.759ZM260.331 112.278C256.054 112.278 253.402 109.246 253.402 104.427V104.412C253.402 99.6367 256.098 96.4873 260.17 96.4873C264.242 96.4873 266.806 99.5342 266.806 104.09V104.852H255.365C255.424 108.484 257.372 110.55 260.375 110.55C262.616 110.55 264.169 109.422 264.667 107.767L264.696 107.635H266.615L266.586 107.781C266.059 110.389 263.627 112.278 260.331 112.278ZM260.155 98.2158C257.562 98.2158 255.629 100.076 255.395 103.313H264.857C264.638 99.9883 262.763 98.2158 260.155 98.2158ZM281.879 117.405C278.261 117.405 276.034 115.677 275.492 113.523L275.463 113.406H277.411L277.47 113.538C277.982 114.769 279.535 115.677 281.864 115.677C284.779 115.677 286.479 114.036 286.479 111.443V108.763H286.435C285.629 110.755 283.695 112.176 281.249 112.176C277.411 112.176 274.789 109.07 274.789 104.324V104.31C274.789 99.5928 277.44 96.4873 281.278 96.4873C283.71 96.4873 285.6 97.9668 286.435 99.9883H286.479V96.7656H288.427V111.604C288.427 115.12 285.907 117.405 281.879 117.405ZM281.63 110.447C284.501 110.447 286.479 107.986 286.479 104.324V104.31C286.479 100.662 284.486 98.2158 281.63 98.2158C278.686 98.2158 276.781 100.633 276.781 104.31V104.324C276.781 108.045 278.686 110.447 281.63 110.447ZM297.919 112.278C293.642 112.278 290.99 109.246 290.99 104.427V104.412C290.99 99.6367 293.686 96.4873 297.758 96.4873C301.83 96.4873 304.394 99.5342 304.394 104.09V104.852H292.953C293.012 108.484 294.96 110.55 297.963 110.55C300.204 110.55 301.757 109.422 302.255 107.767L302.284 107.635H304.203L304.174 107.781C303.646 110.389 301.215 112.278 297.919 112.278ZM297.743 98.2158C295.15 98.2158 293.217 100.076 292.982 103.313H302.445C302.226 99.9883 300.351 98.2158 297.743 98.2158ZM311.527 112.278C309.022 112.278 307.792 111.092 307.792 108.426V98.3916H305.551V96.7656H307.792V92.6494H309.784V96.7656H312.802V98.3916H309.784V108.396C309.784 110.081 310.502 110.652 311.923 110.652C312.274 110.652 312.582 110.608 312.802 110.579V112.161C312.494 112.22 311.996 112.278 311.527 112.278ZM87.8018 148V126.862H89.75V135.549H89.7939C90.5703 133.688 92.3428 132.502 94.7744 132.502C98.0703 132.502 100.268 134.89 100.268 138.625V148H98.3193V138.933C98.3193 135.93 96.7373 134.23 94.1445 134.23C91.5078 134.23 89.75 136.193 89.75 139.021V148H87.8018ZM108.031 148.278C105.028 148.278 102.978 146.477 102.978 143.781V143.752C102.978 141.159 104.94 139.592 108.441 139.357L113.188 139.064V137.746C113.188 135.549 111.796 134.216 109.423 134.216C107.211 134.216 105.761 135.285 105.438 137.014L105.409 137.16H103.534L103.549 136.984C103.842 134.362 106.01 132.487 109.452 132.487C112.938 132.487 115.121 134.45 115.121 137.57V148H113.188V145.217H113.129C112.294 147.033 110.287 148.278 108.031 148.278ZM104.955 143.781C104.955 145.451 106.361 146.579 108.427 146.579C111.093 146.579 113.188 144.704 113.188 142.272V140.588L108.676 140.896C106.288 141.042 104.955 142.082 104.955 143.752V143.781ZM124.54 148.278C120.307 148.278 117.611 145.217 117.611 140.368V140.354C117.611 135.563 120.351 132.487 124.525 132.487C128.07 132.487 130.37 134.787 130.751 137.409L130.766 137.541H128.861L128.832 137.424C128.407 135.637 126.898 134.216 124.525 134.216C121.552 134.216 119.604 136.604 119.604 140.383V140.397C119.604 144.235 121.581 146.55 124.54 146.55C126.811 146.55 128.378 145.246 128.832 143.342L128.861 143.225H130.78L130.766 143.342C130.312 146.184 127.865 148.278 124.54 148.278ZM133.388 148V126.862H135.321V139.943H135.38L142.851 132.766H145.253L138.412 139.328L145.399 148H143.114L137.021 140.515L135.321 142.097V148H133.388ZM152.577 148.278C148.3 148.278 145.648 145.246 145.648 140.427V140.412C145.648 135.637 148.344 132.487 152.416 132.487C156.488 132.487 159.052 135.534 159.052 140.09V140.852H147.611C147.67 144.484 149.618 146.55 152.621 146.55C154.862 146.55 156.415 145.422 156.913 143.767L156.942 143.635H158.861L158.832 143.781C158.305 146.389 155.873 148.278 152.577 148.278ZM152.401 134.216C149.809 134.216 147.875 136.076 147.641 139.313H157.104C156.884 135.988 155.009 134.216 152.401 134.216ZM167.328 148.278C163.49 148.278 160.883 145.144 160.883 140.383V140.368C160.883 135.607 163.505 132.487 167.313 132.487C169.701 132.487 171.664 133.835 172.528 135.944H172.572V126.862H174.521V148H172.572V144.836H172.514C171.635 146.931 169.73 148.278 167.328 148.278ZM167.694 146.55C170.565 146.55 172.587 144.06 172.587 140.383V140.368C172.587 136.706 170.536 134.216 167.694 134.216C164.765 134.216 162.875 136.633 162.875 140.368V140.383C162.875 144.147 164.765 146.55 167.694 146.55ZM191.469 148.278C189.066 148.278 187.147 146.931 186.269 144.777H186.225V148H184.276V126.862H186.225V135.944H186.269C187.133 133.835 189.096 132.487 191.483 132.487C195.292 132.487 197.914 135.607 197.914 140.368V140.383C197.914 145.144 195.307 148.278 191.469 148.278ZM191.103 146.55C194.032 146.55 195.922 144.147 195.922 140.383V140.368C195.922 136.633 194.032 134.216 191.103 134.216C188.261 134.216 186.21 136.706 186.21 140.368V140.383C186.21 144.06 188.231 146.55 191.103 146.55ZM201.063 153.127C200.683 153.127 200.272 153.083 199.994 153.039V151.442C200.185 151.472 200.434 151.501 200.683 151.501C202.396 151.501 203.29 150.944 203.964 149.084L204.33 148.103L198.603 132.766H200.683L205.297 146.066H205.355L209.984 132.766H212.035L205.927 149.216C204.916 151.926 203.671 153.127 201.063 153.127ZM224.662 148.278C222.157 148.278 220.927 147.092 220.927 144.426V134.392H218.686V132.766H220.927V128.649H222.919V132.766H225.937V134.392H222.919V144.396C222.919 146.081 223.637 146.652 225.058 146.652C225.409 146.652 225.717 146.608 225.937 146.579V148.161C225.629 148.22 225.131 148.278 224.662 148.278ZM228.778 148V126.862H230.727V135.549H230.771C231.547 133.688 233.319 132.502 235.751 132.502C239.047 132.502 241.244 134.89 241.244 138.625V148H239.296V138.933C239.296 135.93 237.714 134.23 235.121 134.23C232.484 134.23 230.727 136.193 230.727 139.021V148H228.778ZM250.663 148.278C246.386 148.278 243.734 145.246 243.734 140.427V140.412C243.734 135.637 246.43 132.487 250.502 132.487C254.574 132.487 257.138 135.534 257.138 140.09V140.852H245.697C245.756 144.484 247.704 146.55 250.707 146.55C252.948 146.55 254.501 145.422 254.999 143.767L255.028 143.635H256.947L256.918 143.781C256.391 146.389 253.959 148.278 250.663 148.278ZM250.487 134.216C247.895 134.216 245.961 136.076 245.727 139.313H255.189C254.97 135.988 253.095 134.216 250.487 134.216ZM270.395 148.278C267.392 148.278 265.341 146.477 265.341 143.781V143.752C265.341 141.159 267.304 139.592 270.805 139.357L275.551 139.064V137.746C275.551 135.549 274.159 134.216 271.786 134.216C269.574 134.216 268.124 135.285 267.802 137.014L267.772 137.16H265.897L265.912 136.984C266.205 134.362 268.373 132.487 271.815 132.487C275.302 132.487 277.484 134.45 277.484 137.57V148H275.551V145.217H275.492C274.657 147.033 272.65 148.278 270.395 148.278ZM267.318 143.781C267.318 145.451 268.725 146.579 270.79 146.579C273.456 146.579 275.551 144.704 275.551 142.272V140.588L271.039 140.896C268.651 141.042 267.318 142.082 267.318 143.752V143.781ZM287.064 153.405C283.446 153.405 281.22 151.677 280.678 149.523L280.648 149.406H282.597L282.655 149.538C283.168 150.769 284.721 151.677 287.05 151.677C289.965 151.677 291.664 150.036 291.664 147.443V144.763H291.62C290.814 146.755 288.881 148.176 286.435 148.176C282.597 148.176 279.975 145.07 279.975 140.324V140.31C279.975 135.593 282.626 132.487 286.464 132.487C288.896 132.487 290.785 133.967 291.62 135.988H291.664V132.766H293.612V147.604C293.612 151.12 291.093 153.405 287.064 153.405ZM286.815 146.447C289.687 146.447 291.664 143.986 291.664 140.324V140.31C291.664 136.662 289.672 134.216 286.815 134.216C283.871 134.216 281.967 136.633 281.967 140.31V140.324C281.967 144.045 283.871 146.447 286.815 146.447ZM303.104 148.278C298.827 148.278 296.176 145.246 296.176 140.427V140.412C296.176 135.637 298.871 132.487 302.943 132.487C307.016 132.487 309.579 135.534 309.579 140.09V140.852H298.139C298.197 144.484 300.146 146.55 303.148 146.55C305.39 146.55 306.942 145.422 307.44 143.767L307.47 143.635H309.389L309.359 143.781C308.832 146.389 306.4 148.278 303.104 148.278ZM302.929 134.216C300.336 134.216 298.402 136.076 298.168 139.313H307.631C307.411 135.988 305.536 134.216 302.929 134.216ZM324.506 148.278C320.346 148.264 317.562 145.217 317.562 140.383V140.354C317.562 135.52 320.36 132.487 324.506 132.487C328.637 132.487 331.449 135.505 331.449 140.354V140.383C331.449 145.231 328.651 148.278 324.506 148.278ZM324.521 146.55C327.494 146.55 329.472 144.235 329.472 140.383V140.354C329.472 136.501 327.479 134.216 324.506 134.216C321.532 134.216 319.555 136.516 319.555 140.354V140.383C319.555 144.25 321.518 146.535 324.521 146.55ZM334.818 148V134.392H332.694V132.766H334.818V130.612C334.818 127.858 336.151 126.584 338.7 126.584C339.242 126.584 339.784 126.643 340.121 126.701V128.298C339.799 128.239 339.418 128.21 339.022 128.21C337.543 128.21 336.737 128.957 336.737 130.642V132.766H340.019V134.392H336.752V148H334.818ZM355.663 148.337C351.415 148.337 348.69 145.935 348.368 142.683L348.354 142.521H350.287L350.302 142.653C350.595 144.938 352.587 146.579 355.663 146.579C358.71 146.579 360.863 144.792 360.863 142.287V142.258C360.863 139.489 358.783 137.907 355.429 137.907H352.88V136.193H355.341C358.153 136.193 360.116 134.523 360.116 132.194V132.165C360.116 129.792 358.373 128.283 355.59 128.283C352.865 128.283 350.976 129.821 350.741 132.062L350.727 132.209H348.793L348.808 132.062C349.13 128.811 351.737 126.525 355.59 126.525C359.486 126.525 362.138 128.781 362.138 131.931V131.96C362.138 134.567 360.321 136.398 357.626 136.94V136.999C360.775 137.248 362.899 139.211 362.899 142.214V142.243C362.899 145.744 359.838 148.337 355.663 148.337ZM373.314 148.337C368.539 148.337 365.683 144.133 365.683 137.453V137.409C365.683 130.715 368.539 126.525 373.314 126.525C378.09 126.525 380.961 130.729 380.961 137.409V137.453C380.961 144.147 378.09 148.337 373.314 148.337ZM373.314 146.579C376.859 146.579 378.954 143.049 378.954 137.453V137.409C378.954 131.784 376.859 128.298 373.314 128.298C369.77 128.298 367.689 131.799 367.689 137.409V137.453C367.689 143.063 369.77 146.579 373.314 146.579Z" fill="white"/>
<path d="M66.8984 218.387V218.431C66.8984 220.306 65.4043 221.8 63.5293 221.8H63.4854C61.6104 221.8 60.1162 220.306 60.1162 218.431V218.387C60.1162 216.512 61.6104 215.018 63.4854 215.018H63.5293C65.4043 215.018 66.8984 216.512 66.8984 218.387ZM95.375 227.366C90.9805 227.366 87.9922 224.744 87.7139 221.243L87.6992 221.053H91.2441L91.2588 221.155C91.5664 222.928 93.1777 224.29 95.4043 224.29C97.9238 224.29 99.667 222.562 99.667 220.086V220.057C99.667 217.64 97.8945 215.911 95.4189 215.911C94.2178 215.911 93.1777 216.277 92.3721 216.951C91.9766 217.273 91.625 217.684 91.376 218.152H88.0801L89.0908 205.862H102.069V208.953H92.1084L91.5225 215.325H91.5957C92.5186 213.904 94.2617 213.069 96.3857 213.069C100.414 213.069 103.314 215.984 103.314 219.998V220.027C103.314 224.378 100.048 227.366 95.375 227.366ZM113.876 227.366C108.69 227.366 105.57 223.162 105.57 216.438V216.409C105.57 209.686 108.69 205.496 113.876 205.496C119.047 205.496 122.182 209.686 122.182 216.409V216.438C122.182 223.162 119.047 227.366 113.876 227.366ZM113.876 224.275C116.718 224.275 118.373 221.316 118.373 216.438V216.409C118.373 211.531 116.718 208.602 113.876 208.602C111.02 208.602 109.379 211.531 109.379 216.409V216.438C109.379 221.316 111.02 224.275 113.876 224.275ZM129.389 216.585C126.474 216.585 124.701 214.49 124.701 211.136V211.121C124.701 207.767 126.474 205.672 129.389 205.672C132.289 205.672 134.047 207.767 134.047 211.121V211.136C134.047 214.49 132.289 216.585 129.389 216.585ZM131.117 227H128.158L141.605 205.862H144.535L131.117 227ZM129.389 214.388C130.648 214.388 131.352 213.216 131.352 211.136V211.121C131.352 209.041 130.648 207.869 129.389 207.869C128.114 207.869 127.396 209.041 127.396 211.121V211.136C127.396 213.216 128.114 214.388 129.389 214.388ZM143.319 227.19C140.419 227.19 138.646 225.096 138.646 221.727V221.712C138.646 218.372 140.419 216.277 143.319 216.277C146.22 216.277 147.992 218.372 147.992 221.712V221.727C147.992 225.096 146.22 227.19 143.319 227.19ZM143.319 224.993C144.579 224.993 145.297 223.821 145.297 221.741V221.727C145.297 219.646 144.579 218.475 143.319 218.475C142.045 218.475 141.327 219.646 141.327 221.727V221.741C141.327 223.821 142.045 224.993 143.319 224.993Z" fill="#9DC4FF"/>
<path d="M163.256 227.278C159.096 227.264 156.312 224.217 156.312 219.383V219.354C156.312 214.52 159.11 211.487 163.256 211.487C167.387 211.487 170.199 214.505 170.199 219.354V219.383C170.199 224.231 167.401 227.278 163.256 227.278ZM163.271 225.55C166.244 225.55 168.222 223.235 168.222 219.383V219.354C168.222 215.501 166.229 213.216 163.256 213.216C160.282 213.216 158.305 215.516 158.305 219.354V219.383C158.305 223.25 160.268 225.535 163.271 225.55ZM173.568 227V213.392H171.444V211.766H173.568V209.612C173.568 206.858 174.901 205.584 177.45 205.584C177.992 205.584 178.534 205.643 178.871 205.701V207.298C178.549 207.239 178.168 207.21 177.772 207.21C176.293 207.21 175.487 207.957 175.487 209.642V211.766H178.769V213.392H175.502V227H173.568ZM186.122 227L194.091 205.862H196.068L204.022 227H201.913L199.555 220.525H190.604L188.246 227H186.122ZM195.058 208.309L191.234 218.797H198.925L195.102 208.309H195.058ZM206.029 227V211.766H207.963V214.388H208.021C208.651 212.703 210.204 211.502 212.343 211.502C214.569 211.502 216.181 212.791 216.752 214.725H216.796C217.528 212.835 219.271 211.502 221.586 211.502C224.574 211.502 226.522 213.494 226.522 216.585V227H224.589V217.024C224.589 214.651 223.271 213.23 221.059 213.23C218.803 213.23 217.25 214.959 217.25 217.405V227H215.302V216.849C215.302 214.666 213.896 213.23 211.815 213.23C209.574 213.23 207.963 215.032 207.963 217.64V227H206.029ZM235.956 227.278C231.679 227.278 229.027 224.246 229.027 219.427V219.412C229.027 214.637 231.723 211.487 235.795 211.487C239.867 211.487 242.431 214.534 242.431 219.09V219.852H230.99C231.049 223.484 232.997 225.55 236 225.55C238.241 225.55 239.794 224.422 240.292 222.767L240.321 222.635H242.24L242.211 222.781C241.684 225.389 239.252 227.278 235.956 227.278ZM235.78 213.216C233.188 213.216 231.254 215.076 231.02 218.313H240.482C240.263 214.988 238.388 213.216 235.78 213.216ZM245.023 227V211.766H246.957V214.505H247.016C247.558 212.645 248.905 211.487 250.751 211.487C251.264 211.487 251.718 211.59 251.952 211.663V213.553C251.703 213.45 251.161 213.348 250.502 213.348C248.334 213.348 246.957 214.988 246.957 217.566V227H245.023ZM255.175 209.012C254.457 209.012 253.886 208.44 253.886 207.723C253.886 207.005 254.457 206.448 255.175 206.448C255.878 206.448 256.449 207.005 256.449 207.723C256.449 208.44 255.878 209.012 255.175 209.012ZM254.193 227V211.766H256.142V227H254.193ZM265.81 227.278C261.576 227.278 258.881 224.217 258.881 219.368V219.354C258.881 214.563 261.62 211.487 265.795 211.487C269.34 211.487 271.64 213.787 272.021 216.409L272.035 216.541H270.131L270.102 216.424C269.677 214.637 268.168 213.216 265.795 213.216C262.821 213.216 260.873 215.604 260.873 219.383V219.397C260.873 223.235 262.851 225.55 265.81 225.55C268.08 225.55 269.647 224.246 270.102 222.342L270.131 222.225H272.05L272.035 222.342C271.581 225.184 269.135 227.278 265.81 227.278ZM278.979 227.278C275.976 227.278 273.925 225.477 273.925 222.781V222.752C273.925 220.159 275.888 218.592 279.389 218.357L284.135 218.064V216.746C284.135 214.549 282.743 213.216 280.37 213.216C278.158 213.216 276.708 214.285 276.386 216.014L276.356 216.16H274.481L274.496 215.984C274.789 213.362 276.957 211.487 280.399 211.487C283.886 211.487 286.068 213.45 286.068 216.57V227H284.135V224.217H284.076C283.241 226.033 281.234 227.278 278.979 227.278ZM275.902 222.781C275.902 224.451 277.309 225.579 279.374 225.579C282.04 225.579 284.135 223.704 284.135 221.272V219.588L279.623 219.896C277.235 220.042 275.902 221.082 275.902 222.752V222.781ZM289.32 227V211.766H291.254V214.358H291.312C292.074 212.718 293.788 211.502 296.249 211.502C299.618 211.502 301.61 213.67 301.61 217.244V227H299.677V217.566C299.677 214.739 298.271 213.23 295.678 213.23C293.026 213.23 291.254 215.135 291.254 217.977V227H289.32ZM310.106 227.278C306.649 227.278 304.438 225.433 304.145 222.737L304.13 222.605H306.063L306.093 222.737C306.4 224.495 307.821 225.638 310.121 225.638C312.421 225.638 313.886 224.583 313.886 222.986V222.972C313.886 221.653 313.153 220.936 311.117 220.452L308.817 219.896C305.946 219.207 304.569 217.947 304.569 215.838V215.823C304.569 213.289 306.811 211.487 309.989 211.487C313.241 211.487 315.321 213.377 315.57 215.999L315.585 216.16H313.725L313.71 216.058C313.461 214.285 312.113 213.128 309.989 213.128C307.924 213.128 306.547 214.197 306.547 215.75V215.765C306.547 216.98 307.367 217.757 309.374 218.24L311.674 218.782C314.706 219.515 315.863 220.701 315.863 222.84V222.854C315.863 225.447 313.446 227.278 310.106 227.278ZM329.853 227.278C326.396 227.278 324.184 225.433 323.891 222.737L323.876 222.605H325.81L325.839 222.737C326.146 224.495 327.567 225.638 329.867 225.638C332.167 225.638 333.632 224.583 333.632 222.986V222.972C333.632 221.653 332.899 220.936 330.863 220.452L328.563 219.896C325.692 219.207 324.315 217.947 324.315 215.838V215.823C324.315 213.289 326.557 211.487 329.735 211.487C332.987 211.487 335.067 213.377 335.316 215.999L335.331 216.16H333.471L333.456 216.058C333.207 214.285 331.859 213.128 329.735 213.128C327.67 213.128 326.293 214.197 326.293 215.75V215.765C326.293 216.98 327.113 217.757 329.12 218.24L331.42 218.782C334.452 219.515 335.609 220.701 335.609 222.84V222.854C335.609 225.447 333.192 227.278 329.853 227.278ZM343.505 227.264C340.136 227.264 338.129 225.096 338.129 221.521V211.766H340.077V221.199C340.077 224.026 341.483 225.535 344.062 225.535C346.728 225.535 348.485 223.631 348.485 220.789V211.766H350.434V227H348.485V224.407H348.441C347.665 226.048 345.966 227.264 343.505 227.264ZM359.94 227.278C355.707 227.278 353.012 224.217 353.012 219.368V219.354C353.012 214.563 355.751 211.487 359.926 211.487C363.471 211.487 365.771 213.787 366.151 216.409L366.166 216.541H364.262L364.232 216.424C363.808 214.637 362.299 213.216 359.926 213.216C356.952 213.216 355.004 215.604 355.004 219.383V219.397C355.004 223.235 356.981 225.55 359.94 225.55C362.211 225.55 363.778 224.246 364.232 222.342L364.262 222.225H366.181L366.166 222.342C365.712 225.184 363.266 227.278 359.94 227.278ZM368.788 227V205.862H370.722V218.943H370.78L378.251 211.766H380.653L373.812 218.328L380.8 227H378.515L372.421 219.515L370.722 221.097V227H368.788ZM92.1816 263.278C89.1787 263.278 87.1279 261.477 87.1279 258.781V258.752C87.1279 256.159 89.0908 254.592 92.5918 254.357L97.3379 254.064V252.746C97.3379 250.549 95.9463 249.216 93.5732 249.216C91.3613 249.216 89.9111 250.285 89.5889 252.014L89.5596 252.16H87.6846L87.6992 251.984C87.9922 249.362 90.1602 247.487 93.6025 247.487C97.0889 247.487 99.2715 249.45 99.2715 252.57V263H97.3379V260.217H97.2793C96.4443 262.033 94.4375 263.278 92.1816 263.278ZM89.1055 258.781C89.1055 260.451 90.5117 261.579 92.5771 261.579C95.2432 261.579 97.3379 259.704 97.3379 257.272V255.588L92.8262 255.896C90.4385 256.042 89.1055 257.082 89.1055 258.752V258.781ZM107.064 263.278C104.56 263.278 103.329 262.092 103.329 259.426V249.392H101.088V247.766H103.329V243.649H105.321V247.766H108.339V249.392H105.321V259.396C105.321 261.081 106.039 261.652 107.46 261.652C107.812 261.652 108.119 261.608 108.339 261.579V263.161C108.031 263.22 107.533 263.278 107.064 263.278ZM122.489 263.264C119.12 263.264 117.113 261.096 117.113 257.521V247.766H119.062V257.199C119.062 260.026 120.468 261.535 123.046 261.535C125.712 261.535 127.47 259.631 127.47 256.789V247.766H129.418V263H127.47V260.407H127.426C126.649 262.048 124.95 263.264 122.489 263.264ZM137.987 263.278C134.53 263.278 132.318 261.433 132.025 258.737L132.011 258.605H133.944L133.974 258.737C134.281 260.495 135.702 261.638 138.002 261.638C140.302 261.638 141.767 260.583 141.767 258.986V258.972C141.767 257.653 141.034 256.936 138.998 256.452L136.698 255.896C133.827 255.207 132.45 253.947 132.45 251.838V251.823C132.45 249.289 134.691 247.487 137.87 247.487C141.122 247.487 143.202 249.377 143.451 251.999L143.466 252.16H141.605L141.591 252.058C141.342 250.285 139.994 249.128 137.87 249.128C135.805 249.128 134.428 250.197 134.428 251.75V251.765C134.428 252.98 135.248 253.757 137.255 254.24L139.555 254.782C142.587 255.515 143.744 256.701 143.744 258.84V258.854C143.744 261.447 141.327 263.278 137.987 263.278ZM147.479 245.012C146.762 245.012 146.19 244.44 146.19 243.723C146.19 243.005 146.762 242.448 147.479 242.448C148.183 242.448 148.754 243.005 148.754 243.723C148.754 244.44 148.183 245.012 147.479 245.012ZM146.498 263V247.766H148.446V263H146.498ZM151.947 263V247.766H153.881V250.358H153.939C154.701 248.718 156.415 247.502 158.876 247.502C162.245 247.502 164.237 249.67 164.237 253.244V263H162.304V253.566C162.304 250.739 160.897 249.23 158.305 249.23C155.653 249.23 153.881 251.135 153.881 253.977V263H151.947ZM173.832 268.405C170.214 268.405 167.987 266.677 167.445 264.523L167.416 264.406H169.364L169.423 264.538C169.936 265.769 171.488 266.677 173.817 266.677C176.732 266.677 178.432 265.036 178.432 262.443V259.763H178.388C177.582 261.755 175.648 263.176 173.202 263.176C169.364 263.176 166.742 260.07 166.742 255.324V255.31C166.742 250.593 169.394 247.487 173.231 247.487C175.663 247.487 177.553 248.967 178.388 250.988H178.432V247.766H180.38V262.604C180.38 266.12 177.86 268.405 173.832 268.405ZM173.583 261.447C176.454 261.447 178.432 258.986 178.432 255.324V255.31C178.432 251.662 176.439 249.216 173.583 249.216C170.639 249.216 168.734 251.633 168.734 255.31V255.324C168.734 259.045 170.639 261.447 173.583 261.447ZM194.398 263.278C191.894 263.278 190.663 262.092 190.663 259.426V249.392H188.422V247.766H190.663V243.649H192.655V247.766H195.673V249.392H192.655V259.396C192.655 261.081 193.373 261.652 194.794 261.652C195.146 261.652 195.453 261.608 195.673 261.579V263.161C195.365 263.22 194.867 263.278 194.398 263.278ZM204.022 263.278C199.745 263.278 197.094 260.246 197.094 255.427V255.412C197.094 250.637 199.789 247.487 203.861 247.487C207.934 247.487 210.497 250.534 210.497 255.09V255.852H199.057C199.115 259.484 201.063 261.55 204.066 261.55C206.308 261.55 207.86 260.422 208.358 258.767L208.388 258.635H210.307L210.277 258.781C209.75 261.389 207.318 263.278 204.022 263.278ZM203.847 249.216C201.254 249.216 199.32 251.076 199.086 254.313H208.549C208.329 250.988 206.454 249.216 203.847 249.216ZM219.257 263.278C215.023 263.278 212.328 260.217 212.328 255.368V255.354C212.328 250.563 215.067 247.487 219.242 247.487C222.787 247.487 225.087 249.787 225.468 252.409L225.482 252.541H223.578L223.549 252.424C223.124 250.637 221.615 249.216 219.242 249.216C216.269 249.216 214.32 251.604 214.32 255.383V255.397C214.32 259.235 216.298 261.55 219.257 261.55C221.527 261.55 223.095 260.246 223.549 258.342L223.578 258.225H225.497L225.482 258.342C225.028 261.184 222.582 263.278 219.257 263.278ZM228.046 263V241.862H229.994V250.549H230.038C230.814 248.688 232.587 247.502 235.019 247.502C238.314 247.502 240.512 249.89 240.512 253.625V263H238.563V253.933C238.563 250.93 236.981 249.23 234.389 249.23C231.752 249.23 229.994 251.193 229.994 254.021V263H228.046ZM243.764 263V247.766H245.697V250.358H245.756C246.518 248.718 248.231 247.502 250.692 247.502C254.062 247.502 256.054 249.67 256.054 253.244V263H254.12V253.566C254.12 250.739 252.714 249.23 250.121 249.23C247.47 249.23 245.697 251.135 245.697 253.977V263H243.764ZM265.502 263.278C261.342 263.264 258.559 260.217 258.559 255.383V255.354C258.559 250.52 261.356 247.487 265.502 247.487C269.633 247.487 272.445 250.505 272.445 255.354V255.383C272.445 260.231 269.647 263.278 265.502 263.278ZM265.517 261.55C268.49 261.55 270.468 259.235 270.468 255.383V255.354C270.468 251.501 268.476 249.216 265.502 249.216C262.528 249.216 260.551 251.516 260.551 255.354V255.383C260.551 259.25 262.514 261.535 265.517 261.55ZM275.155 263V241.862H277.089V263H275.155ZM286.742 263.278C282.582 263.264 279.799 260.217 279.799 255.383V255.354C279.799 250.52 282.597 247.487 286.742 247.487C290.873 247.487 293.686 250.505 293.686 255.354V255.383C293.686 260.231 290.888 263.278 286.742 263.278ZM286.757 261.55C289.73 261.55 291.708 259.235 291.708 255.383V255.354C291.708 251.501 289.716 249.216 286.742 249.216C283.769 249.216 281.791 251.516 281.791 255.354V255.383C281.791 259.25 283.754 261.535 286.757 261.55ZM302.592 268.405C298.974 268.405 296.747 266.677 296.205 264.523L296.176 264.406H298.124L298.183 264.538C298.695 265.769 300.248 266.677 302.577 266.677C305.492 266.677 307.191 265.036 307.191 262.443V259.763H307.147C306.342 261.755 304.408 263.176 301.962 263.176C298.124 263.176 295.502 260.07 295.502 255.324V255.31C295.502 250.593 298.153 247.487 301.991 247.487C304.423 247.487 306.312 248.967 307.147 250.988H307.191V247.766H309.14V262.604C309.14 266.12 306.62 268.405 302.592 268.405ZM302.343 261.447C305.214 261.447 307.191 258.986 307.191 255.324V255.31C307.191 251.662 305.199 249.216 302.343 249.216C299.398 249.216 297.494 251.633 297.494 255.31V255.324C297.494 259.045 299.398 261.447 302.343 261.447ZM313.505 268.127C313.124 268.127 312.714 268.083 312.436 268.039V266.442C312.626 266.472 312.875 266.501 313.124 266.501C314.838 266.501 315.731 265.944 316.405 264.084L316.771 263.103L311.044 247.766H313.124L317.738 261.066H317.797L322.426 247.766H324.477L318.368 264.216C317.357 266.926 316.112 268.127 313.505 268.127Z" fill="white"/>
<path d="M66.8984 333.387V333.431C66.8984 335.306 65.4043 336.8 63.5293 336.8H63.4854C61.6104 336.8 60.1162 335.306 60.1162 333.431V333.387C60.1162 331.512 61.6104 330.018 63.4854 330.018H63.5293C65.4043 330.018 66.8984 331.512 66.8984 333.387ZM97.6309 342V337.942H87.084V334.72L95.8584 320.862H101.234V334.837H104.105V337.942H101.234V342H97.6309ZM90.4824 334.925H97.6895V323.719H97.6016L90.4824 334.822V334.925ZM114.462 342.366C109.276 342.366 106.156 338.162 106.156 331.438V331.409C106.156 324.686 109.276 320.496 114.462 320.496C119.633 320.496 122.768 324.686 122.768 331.409V331.438C122.768 338.162 119.633 342.366 114.462 342.366ZM114.462 339.275C117.304 339.275 118.959 336.316 118.959 331.438V331.409C118.959 326.531 117.304 323.602 114.462 323.602C111.605 323.602 109.965 326.531 109.965 331.409V331.438C109.965 336.316 111.605 339.275 114.462 339.275ZM129.975 331.585C127.06 331.585 125.287 329.49 125.287 326.136V326.121C125.287 322.767 127.06 320.672 129.975 320.672C132.875 320.672 134.633 322.767 134.633 326.121V326.136C134.633 329.49 132.875 331.585 129.975 331.585ZM131.703 342H128.744L142.191 320.862H145.121L131.703 342ZM129.975 329.388C131.234 329.388 131.938 328.216 131.938 326.136V326.121C131.938 324.041 131.234 322.869 129.975 322.869C128.7 322.869 127.982 324.041 127.982 326.121V326.136C127.982 328.216 128.7 329.388 129.975 329.388ZM143.905 342.19C141.005 342.19 139.232 340.096 139.232 336.727V336.712C139.232 333.372 141.005 331.277 143.905 331.277C146.806 331.277 148.578 333.372 148.578 336.712V336.727C148.578 340.096 146.806 342.19 143.905 342.19ZM143.905 339.993C145.165 339.993 145.883 338.821 145.883 336.741V336.727C145.883 334.646 145.165 333.475 143.905 333.475C142.631 333.475 141.913 334.646 141.913 336.727V336.741C141.913 338.821 142.631 339.993 143.905 339.993Z" fill="#9DC4FF"/>
<path d="M163.842 342.278C159.682 342.264 156.898 339.217 156.898 334.383V334.354C156.898 329.52 159.696 326.487 163.842 326.487C167.973 326.487 170.785 329.505 170.785 334.354V334.383C170.785 339.231 167.987 342.278 163.842 342.278ZM163.856 340.55C166.83 340.55 168.808 338.235 168.808 334.383V334.354C168.808 330.501 166.815 328.216 163.842 328.216C160.868 328.216 158.891 330.516 158.891 334.354V334.383C158.891 338.25 160.854 340.535 163.856 340.55ZM174.154 342V328.392H172.03V326.766H174.154V324.612C174.154 321.858 175.487 320.584 178.036 320.584C178.578 320.584 179.12 320.643 179.457 320.701V322.298C179.135 322.239 178.754 322.21 178.358 322.21C176.879 322.21 176.073 322.957 176.073 324.642V326.766H179.354V328.392H176.088V342H174.154ZM188.041 347.127V326.766H189.975V329.988H190.033C190.883 327.923 192.758 326.487 195.204 326.487C199.071 326.487 201.664 329.622 201.664 334.383V334.397C201.664 339.173 199.057 342.278 195.233 342.278C192.802 342.278 190.868 340.857 190.033 338.821H189.975V347.127H188.041ZM194.867 340.55C197.797 340.55 199.687 338.133 199.687 334.397V334.383C199.687 330.618 197.797 328.216 194.867 328.216C191.996 328.216 189.975 330.691 189.975 334.383V334.397C189.975 338.074 192.011 340.55 194.867 340.55ZM210.438 342.278C206.161 342.278 203.51 339.246 203.51 334.427V334.412C203.51 329.637 206.205 326.487 210.277 326.487C214.35 326.487 216.913 329.534 216.913 334.09V334.852H205.473C205.531 338.484 207.479 340.55 210.482 340.55C212.724 340.55 214.276 339.422 214.774 337.767L214.804 337.635H216.723L216.693 337.781C216.166 340.389 213.734 342.278 210.438 342.278ZM210.263 328.216C207.67 328.216 205.736 330.076 205.502 333.313H214.965C214.745 329.988 212.87 328.216 210.263 328.216ZM225.688 342.278C221.527 342.264 218.744 339.217 218.744 334.383V334.354C218.744 329.52 221.542 326.487 225.688 326.487C229.818 326.487 232.631 329.505 232.631 334.354V334.383C232.631 339.231 229.833 342.278 225.688 342.278ZM225.702 340.55C228.676 340.55 230.653 338.235 230.653 334.383V334.354C230.653 330.501 228.661 328.216 225.688 328.216C222.714 328.216 220.736 330.516 220.736 334.354V334.383C220.736 338.25 222.699 340.535 225.702 340.55ZM235.209 347.127V326.766H237.143V329.988H237.201C238.051 327.923 239.926 326.487 242.372 326.487C246.239 326.487 248.832 329.622 248.832 334.383V334.397C248.832 339.173 246.225 342.278 242.401 342.278C239.97 342.278 238.036 340.857 237.201 338.821H237.143V347.127H235.209ZM242.035 340.55C244.965 340.55 246.854 338.133 246.854 334.397V334.383C246.854 330.618 244.965 328.216 242.035 328.216C239.164 328.216 237.143 330.691 237.143 334.383V334.397C237.143 338.074 239.179 340.55 242.035 340.55ZM251.571 342V320.862H253.505V342H251.571ZM263.144 342.278C258.866 342.278 256.215 339.246 256.215 334.427V334.412C256.215 329.637 258.91 326.487 262.982 326.487C267.055 326.487 269.618 329.534 269.618 334.09V334.852H258.178C258.236 338.484 260.185 340.55 263.188 340.55C265.429 340.55 266.981 339.422 267.479 337.767L267.509 337.635H269.428L269.398 337.781C268.871 340.389 266.439 342.278 263.144 342.278ZM262.968 328.216C260.375 328.216 258.441 330.076 258.207 333.313H267.67C267.45 329.988 265.575 328.216 262.968 328.216ZM284.047 342.278C280.209 342.278 277.602 339.144 277.602 334.383V334.368C277.602 329.607 280.224 326.487 284.032 326.487C286.42 326.487 288.383 327.835 289.247 329.944H289.291V320.862H291.239V342H289.291V338.836H289.232C288.354 340.931 286.449 342.278 284.047 342.278ZM284.413 340.55C287.284 340.55 289.306 338.06 289.306 334.383V334.368C289.306 330.706 287.255 328.216 284.413 328.216C281.483 328.216 279.594 330.633 279.594 334.368V334.383C279.594 338.147 281.483 340.55 284.413 340.55ZM300.893 342.278C296.732 342.264 293.949 339.217 293.949 334.383V334.354C293.949 329.52 296.747 326.487 300.893 326.487C305.023 326.487 307.836 329.505 307.836 334.354V334.383C307.836 339.231 305.038 342.278 300.893 342.278ZM300.907 340.55C303.881 340.55 305.858 338.235 305.858 334.383V334.354C305.858 330.501 303.866 328.216 300.893 328.216C297.919 328.216 295.941 330.516 295.941 334.354V334.383C295.941 338.25 297.904 340.535 300.907 340.55ZM310.414 342V326.766H312.348V329.358H312.406C313.168 327.718 314.882 326.502 317.343 326.502C320.712 326.502 322.704 328.67 322.704 332.244V342H320.771V332.566C320.771 329.739 319.364 328.23 316.771 328.23C314.12 328.23 312.348 330.135 312.348 332.977V342H310.414ZM325.385 327.718L326.63 320.862H328.695L326.806 327.718H325.385ZM336.4 342.278C333.896 342.278 332.665 341.092 332.665 338.426V328.392H330.424V326.766H332.665V322.649H334.657V326.766H337.675V328.392H334.657V338.396C334.657 340.081 335.375 340.652 336.796 340.652C337.147 340.652 337.455 340.608 337.675 340.579V342.161C337.367 342.22 336.869 342.278 336.4 342.278ZM351.825 342.264C348.456 342.264 346.449 340.096 346.449 336.521V326.766H348.397V336.199C348.397 339.026 349.804 340.535 352.382 340.535C355.048 340.535 356.806 338.631 356.806 335.789V326.766H358.754V342H356.806V339.407H356.762C355.985 341.048 354.286 342.264 351.825 342.264ZM367.323 342.278C363.866 342.278 361.654 340.433 361.361 337.737L361.347 337.605H363.28L363.31 337.737C363.617 339.495 365.038 340.638 367.338 340.638C369.638 340.638 371.103 339.583 371.103 337.986V337.972C371.103 336.653 370.37 335.936 368.334 335.452L366.034 334.896C363.163 334.207 361.786 332.947 361.786 330.838V330.823C361.786 328.289 364.027 326.487 367.206 326.487C370.458 326.487 372.538 328.377 372.787 330.999L372.802 331.16H370.941L370.927 331.058C370.678 329.285 369.33 328.128 367.206 328.128C365.141 328.128 363.764 329.197 363.764 330.75V330.765C363.764 331.98 364.584 332.757 366.591 333.24L368.891 333.782C371.923 334.515 373.08 335.701 373.08 337.84V337.854C373.08 340.447 370.663 342.278 367.323 342.278ZM381.854 342.278C377.577 342.278 374.926 339.246 374.926 334.427V334.412C374.926 329.637 377.621 326.487 381.693 326.487C385.766 326.487 388.329 329.534 388.329 334.09V334.852H376.889C376.947 338.484 378.896 340.55 381.898 340.55C384.14 340.55 385.692 339.422 386.19 337.767L386.22 337.635H388.139L388.109 337.781C387.582 340.389 385.15 342.278 381.854 342.278ZM381.679 328.216C379.086 328.216 377.152 330.076 376.918 333.313H386.381C386.161 329.988 384.286 328.216 381.679 328.216ZM92.2109 378.278C89.7061 378.278 88.4756 377.092 88.4756 374.426V364.392H86.2344V362.766H88.4756V358.649H90.4678V362.766H93.4854V364.392H90.4678V374.396C90.4678 376.081 91.1855 376.652 92.6064 376.652C92.958 376.652 93.2656 376.608 93.4854 376.579V378.161C93.1777 378.22 92.6797 378.278 92.2109 378.278ZM96.3271 378V356.862H98.2754V365.549H98.3193C99.0957 363.688 100.868 362.502 103.3 362.502C106.596 362.502 108.793 364.89 108.793 368.625V378H106.845V368.933C106.845 365.93 105.263 364.23 102.67 364.23C100.033 364.23 98.2754 366.193 98.2754 369.021V378H96.3271ZM118.212 378.278C113.935 378.278 111.283 375.246 111.283 370.427V370.412C111.283 365.637 113.979 362.487 118.051 362.487C122.123 362.487 124.687 365.534 124.687 370.09V370.852H113.246C113.305 374.484 115.253 376.55 118.256 376.55C120.497 376.55 122.05 375.422 122.548 373.767L122.577 373.635H124.496L124.467 373.781C123.939 376.389 121.508 378.278 118.212 378.278ZM118.036 364.216C115.443 364.216 113.51 366.076 113.275 369.313H122.738C122.519 365.988 120.644 364.216 118.036 364.216ZM128.407 360.012C127.689 360.012 127.118 359.44 127.118 358.723C127.118 358.005 127.689 357.448 128.407 357.448C129.11 357.448 129.682 358.005 129.682 358.723C129.682 359.44 129.11 360.012 128.407 360.012ZM127.426 378V362.766H129.374V378H127.426ZM132.875 378V362.766H134.809V365.505H134.867C135.409 363.645 136.757 362.487 138.603 362.487C139.115 362.487 139.569 362.59 139.804 362.663V364.553C139.555 364.45 139.013 364.348 138.354 364.348C136.186 364.348 134.809 365.988 134.809 368.566V378H132.875ZM155.375 378.278C152.973 378.278 151.054 376.931 150.175 374.777H150.131V378H148.183V356.862H150.131V365.944H150.175C151.039 363.835 153.002 362.487 155.39 362.487C159.198 362.487 161.82 365.607 161.82 370.368V370.383C161.82 375.144 159.213 378.278 155.375 378.278ZM155.009 376.55C157.938 376.55 159.828 374.147 159.828 370.383V370.368C159.828 366.633 157.938 364.216 155.009 364.216C152.167 364.216 150.116 366.706 150.116 370.368V370.383C150.116 374.06 152.138 376.55 155.009 376.55ZM164.398 378V362.766H166.332V365.505H166.391C166.933 363.645 168.28 362.487 170.126 362.487C170.639 362.487 171.093 362.59 171.327 362.663V364.553C171.078 364.45 170.536 364.348 169.877 364.348C167.709 364.348 166.332 365.988 166.332 368.566V378H164.398ZM177.465 378.278C174.462 378.278 172.411 376.477 172.411 373.781V373.752C172.411 371.159 174.374 369.592 177.875 369.357L182.621 369.064V367.746C182.621 365.549 181.229 364.216 178.856 364.216C176.645 364.216 175.194 365.285 174.872 367.014L174.843 367.16H172.968L172.982 366.984C173.275 364.362 175.443 362.487 178.886 362.487C182.372 362.487 184.555 364.45 184.555 367.57V378H182.621V375.217H182.562C181.728 377.033 179.721 378.278 177.465 378.278ZM174.389 373.781C174.389 375.451 175.795 376.579 177.86 376.579C180.526 376.579 182.621 374.704 182.621 372.272V370.588L178.109 370.896C175.722 371.042 174.389 372.082 174.389 373.752V373.781ZM188.935 360.012C188.217 360.012 187.646 359.44 187.646 358.723C187.646 358.005 188.217 357.448 188.935 357.448C189.638 357.448 190.209 358.005 190.209 358.723C190.209 359.44 189.638 360.012 188.935 360.012ZM187.953 378V362.766H189.901V378H187.953ZM193.402 378V362.766H195.336V365.358H195.395C196.156 363.718 197.87 362.502 200.331 362.502C203.7 362.502 205.692 364.67 205.692 368.244V378H203.759V368.566C203.759 365.739 202.353 364.23 199.76 364.23C197.108 364.23 195.336 366.135 195.336 368.977V378H193.402ZM219.623 378.278C216.62 378.278 214.569 376.477 214.569 373.781V373.752C214.569 371.159 216.532 369.592 220.033 369.357L224.779 369.064V367.746C224.779 365.549 223.388 364.216 221.015 364.216C218.803 364.216 217.353 365.285 217.03 367.014L217.001 367.16H215.126L215.141 366.984C215.434 364.362 217.602 362.487 221.044 362.487C224.53 362.487 226.713 364.45 226.713 367.57V378H224.779V375.217H224.721C223.886 377.033 221.879 378.278 219.623 378.278ZM216.547 373.781C216.547 375.451 217.953 376.579 220.019 376.579C222.685 376.579 224.779 374.704 224.779 372.272V370.588L220.268 370.896C217.88 371.042 216.547 372.082 216.547 373.752V373.781ZM234.506 378.278C232.001 378.278 230.771 377.092 230.771 374.426V364.392H228.529V362.766H230.771V358.649H232.763V362.766H235.78V364.392H232.763V374.396C232.763 376.081 233.48 376.652 234.901 376.652C235.253 376.652 235.561 376.608 235.78 376.579V378.161C235.473 378.22 234.975 378.278 234.506 378.278ZM249.154 378.278C246.151 378.278 244.101 376.477 244.101 373.781V373.752C244.101 371.159 246.063 369.592 249.564 369.357L254.311 369.064V367.746C254.311 365.549 252.919 364.216 250.546 364.216C248.334 364.216 246.884 365.285 246.562 367.014L246.532 367.16H244.657L244.672 366.984C244.965 364.362 247.133 362.487 250.575 362.487C254.062 362.487 256.244 364.45 256.244 367.57V378H254.311V375.217H254.252C253.417 377.033 251.41 378.278 249.154 378.278ZM246.078 373.781C246.078 375.451 247.484 376.579 249.55 376.579C252.216 376.579 254.311 374.704 254.311 372.272V370.588L249.799 370.896C247.411 371.042 246.078 372.082 246.078 373.752V373.781ZM259.628 378V356.862H261.562V378H259.628ZM265.165 378V356.862H267.099V378H265.165Z" fill="white"/>
<path d="M66.8984 448.387V448.431C66.8984 450.306 65.4043 451.8 63.5293 451.8H63.4854C61.6104 451.8 60.1162 450.306 60.1162 448.431V448.387C60.1162 446.512 61.6104 445.018 63.4854 445.018H63.5293C65.4043 445.018 66.8984 446.512 66.8984 448.387ZM95.7852 457.366C91.1123 457.366 87.2451 454.1 87.2451 446.688V446.658C87.2451 439.671 90.4824 435.496 95.873 435.496C99.7842 435.496 102.699 437.752 103.373 440.945L103.402 441.106H99.6523L99.5938 440.975C99.0371 439.524 97.7334 438.587 95.8438 438.587C92.4453 438.587 91.0244 441.839 90.8779 445.838C90.8633 446.058 90.8633 446.277 90.8633 446.512H90.9365C91.7715 444.578 93.8809 443.113 96.752 443.113C100.824 443.113 103.681 446.043 103.681 450.013V450.042C103.681 454.305 100.341 457.366 95.7852 457.366ZM91.5078 450.101C91.5078 452.444 93.3682 454.275 95.7266 454.275C98.085 454.275 99.96 452.459 99.96 450.174V450.145C99.96 447.742 98.1875 446.028 95.7705 446.028C93.3535 446.028 91.5078 447.728 91.5078 450.086V450.101ZM114.755 457.366C109.569 457.366 106.449 453.162 106.449 446.438V446.409C106.449 439.686 109.569 435.496 114.755 435.496C119.926 435.496 123.061 439.686 123.061 446.409V446.438C123.061 453.162 119.926 457.366 114.755 457.366ZM114.755 454.275C117.597 454.275 119.252 451.316 119.252 446.438V446.409C119.252 441.531 117.597 438.602 114.755 438.602C111.898 438.602 110.258 441.531 110.258 446.409V446.438C110.258 451.316 111.898 454.275 114.755 454.275ZM130.268 446.585C127.353 446.585 125.58 444.49 125.58 441.136V441.121C125.58 437.767 127.353 435.672 130.268 435.672C133.168 435.672 134.926 437.767 134.926 441.121V441.136C134.926 444.49 133.168 446.585 130.268 446.585ZM131.996 457H129.037L142.484 435.862H145.414L131.996 457ZM130.268 444.388C131.527 444.388 132.23 443.216 132.23 441.136V441.121C132.23 439.041 131.527 437.869 130.268 437.869C128.993 437.869 128.275 439.041 128.275 441.121V441.136C128.275 443.216 128.993 444.388 130.268 444.388ZM144.198 457.19C141.298 457.19 139.525 455.096 139.525 451.727V451.712C139.525 448.372 141.298 446.277 144.198 446.277C147.099 446.277 148.871 448.372 148.871 451.712V451.727C148.871 455.096 147.099 457.19 144.198 457.19ZM144.198 454.993C145.458 454.993 146.176 453.821 146.176 451.741V451.727C146.176 449.646 145.458 448.475 144.198 448.475C142.924 448.475 142.206 449.646 142.206 451.727V451.741C142.206 453.821 142.924 454.993 144.198 454.993Z" fill="#9DC4FF"/>
<path d="M164.135 457.278C159.975 457.264 157.191 454.217 157.191 449.383V449.354C157.191 444.52 159.989 441.487 164.135 441.487C168.266 441.487 171.078 444.505 171.078 449.354V449.383C171.078 454.231 168.28 457.278 164.135 457.278ZM164.149 455.55C167.123 455.55 169.101 453.235 169.101 449.383V449.354C169.101 445.501 167.108 443.216 164.135 443.216C161.161 443.216 159.184 445.516 159.184 449.354V449.383C159.184 453.25 161.146 455.535 164.149 455.55ZM174.447 457V443.392H172.323V441.766H174.447V439.612C174.447 436.858 175.78 435.584 178.329 435.584C178.871 435.584 179.413 435.643 179.75 435.701V437.298C179.428 437.239 179.047 437.21 178.651 437.21C177.172 437.21 176.366 437.957 176.366 439.642V441.766H179.647V443.392H176.381V457H174.447ZM188.334 462.127V441.766H190.268V444.988H190.326C191.176 442.923 193.051 441.487 195.497 441.487C199.364 441.487 201.957 444.622 201.957 449.383V449.397C201.957 454.173 199.35 457.278 195.526 457.278C193.095 457.278 191.161 455.857 190.326 453.821H190.268V462.127H188.334ZM195.16 455.55C198.09 455.55 199.979 453.133 199.979 449.397V449.383C199.979 445.618 198.09 443.216 195.16 443.216C192.289 443.216 190.268 445.691 190.268 449.383V449.397C190.268 453.074 192.304 455.55 195.16 455.55ZM210.731 457.278C206.454 457.278 203.803 454.246 203.803 449.427V449.412C203.803 444.637 206.498 441.487 210.57 441.487C214.643 441.487 217.206 444.534 217.206 449.09V449.852H205.766C205.824 453.484 207.772 455.55 210.775 455.55C213.017 455.55 214.569 454.422 215.067 452.767L215.097 452.635H217.016L216.986 452.781C216.459 455.389 214.027 457.278 210.731 457.278ZM210.556 443.216C207.963 443.216 206.029 445.076 205.795 448.313H215.258C215.038 444.988 213.163 443.216 210.556 443.216ZM225.98 457.278C221.82 457.264 219.037 454.217 219.037 449.383V449.354C219.037 444.52 221.835 441.487 225.98 441.487C230.111 441.487 232.924 444.505 232.924 449.354V449.383C232.924 454.231 230.126 457.278 225.98 457.278ZM225.995 455.55C228.969 455.55 230.946 453.235 230.946 449.383V449.354C230.946 445.501 228.954 443.216 225.98 443.216C223.007 443.216 221.029 445.516 221.029 449.354V449.383C221.029 453.25 222.992 455.535 225.995 455.55ZM235.502 462.127V441.766H237.436V444.988H237.494C238.344 442.923 240.219 441.487 242.665 441.487C246.532 441.487 249.125 444.622 249.125 449.383V449.397C249.125 454.173 246.518 457.278 242.694 457.278C240.263 457.278 238.329 455.857 237.494 453.821H237.436V462.127H235.502ZM242.328 455.55C245.258 455.55 247.147 453.133 247.147 449.397V449.383C247.147 445.618 245.258 443.216 242.328 443.216C239.457 443.216 237.436 445.691 237.436 449.383V449.397C237.436 453.074 239.472 455.55 242.328 455.55ZM251.864 457V435.862H253.798V457H251.864ZM263.437 457.278C259.159 457.278 256.508 454.246 256.508 449.427V449.412C256.508 444.637 259.203 441.487 263.275 441.487C267.348 441.487 269.911 444.534 269.911 449.09V449.852H258.471C258.529 453.484 260.478 455.55 263.48 455.55C265.722 455.55 267.274 454.422 267.772 452.767L267.802 452.635H269.721L269.691 452.781C269.164 455.389 266.732 457.278 263.437 457.278ZM263.261 443.216C260.668 443.216 258.734 445.076 258.5 448.313H267.963C267.743 444.988 265.868 443.216 263.261 443.216ZM278.656 457V441.766H280.59V444.388H280.648C281.278 442.703 282.831 441.502 284.97 441.502C287.196 441.502 288.808 442.791 289.379 444.725H289.423C290.155 442.835 291.898 441.502 294.213 441.502C297.201 441.502 299.149 443.494 299.149 446.585V457H297.216V447.024C297.216 444.651 295.897 443.23 293.686 443.23C291.43 443.23 289.877 444.959 289.877 447.405V457H287.929V446.849C287.929 444.666 286.522 443.23 284.442 443.23C282.201 443.23 280.59 445.032 280.59 447.64V457H278.656ZM306.928 457.278C303.925 457.278 301.874 455.477 301.874 452.781V452.752C301.874 450.159 303.837 448.592 307.338 448.357L312.084 448.064V446.746C312.084 444.549 310.692 443.216 308.319 443.216C306.107 443.216 304.657 444.285 304.335 446.014L304.306 446.16H302.431L302.445 445.984C302.738 443.362 304.906 441.487 308.349 441.487C311.835 441.487 314.018 443.45 314.018 446.57V457H312.084V454.217H312.025C311.19 456.033 309.184 457.278 306.928 457.278ZM303.852 452.781C303.852 454.451 305.258 455.579 307.323 455.579C309.989 455.579 312.084 453.704 312.084 451.272V449.588L307.572 449.896C305.185 450.042 303.852 451.082 303.852 452.752V452.781ZM317.46 457V435.862H319.394V448.943H319.452L326.923 441.766H329.325L322.484 448.328L329.472 457H327.187L321.093 449.515L319.394 451.097V457H317.46ZM336.649 457.278C332.372 457.278 329.721 454.246 329.721 449.427V449.412C329.721 444.637 332.416 441.487 336.488 441.487C340.561 441.487 343.124 444.534 343.124 449.09V449.852H331.684C331.742 453.484 333.69 455.55 336.693 455.55C338.935 455.55 340.487 454.422 340.985 452.767L341.015 452.635H342.934L342.904 452.781C342.377 455.389 339.945 457.278 336.649 457.278ZM336.474 443.216C333.881 443.216 331.947 445.076 331.713 448.313H341.176C340.956 444.988 339.081 443.216 336.474 443.216ZM92.2109 493.278C89.7061 493.278 88.4756 492.092 88.4756 489.426V479.392H86.2344V477.766H88.4756V473.649H90.4678V477.766H93.4854V479.392H90.4678V489.396C90.4678 491.081 91.1855 491.652 92.6064 491.652C92.958 491.652 93.2656 491.608 93.4854 491.579V493.161C93.1777 493.22 92.6797 493.278 92.2109 493.278ZM101.835 493.278C97.5576 493.278 94.9062 490.246 94.9062 485.427V485.412C94.9062 480.637 97.6016 477.487 101.674 477.487C105.746 477.487 108.31 480.534 108.31 485.09V485.852H96.8691C96.9277 489.484 98.876 491.55 101.879 491.55C104.12 491.55 105.673 490.422 106.171 488.767L106.2 488.635H108.119L108.09 488.781C107.562 491.389 105.131 493.278 101.835 493.278ZM101.659 479.216C99.0664 479.216 97.1328 481.076 96.8984 484.313H106.361C106.142 480.988 104.267 479.216 101.659 479.216ZM110.902 493V477.766H112.836V480.505H112.895C113.437 478.645 114.784 477.487 116.63 477.487C117.143 477.487 117.597 477.59 117.831 477.663V479.553C117.582 479.45 117.04 479.348 116.381 479.348C114.213 479.348 112.836 480.988 112.836 483.566V493H110.902ZM119.926 493V477.766H121.859V480.505H121.918C122.46 478.645 123.808 477.487 125.653 477.487C126.166 477.487 126.62 477.59 126.854 477.663V479.553C126.605 479.45 126.063 479.348 125.404 479.348C123.236 479.348 121.859 480.988 121.859 483.566V493H119.926ZM130.077 475.012C129.359 475.012 128.788 474.44 128.788 473.723C128.788 473.005 129.359 472.448 130.077 472.448C130.78 472.448 131.352 473.005 131.352 473.723C131.352 474.44 130.78 475.012 130.077 475.012ZM129.096 493V477.766H131.044V493H129.096ZM141.869 493.278C139.467 493.278 137.548 491.931 136.669 489.777H136.625V493H134.677V471.862H136.625V480.944H136.669C137.533 478.835 139.496 477.487 141.884 477.487C145.692 477.487 148.314 480.607 148.314 485.368V485.383C148.314 490.144 145.707 493.278 141.869 493.278ZM141.503 491.55C144.433 491.55 146.322 489.147 146.322 485.383V485.368C146.322 481.633 144.433 479.216 141.503 479.216C138.661 479.216 136.61 481.706 136.61 485.368V485.383C136.61 489.06 138.632 491.55 141.503 491.55ZM151.024 493V471.862H152.958V493H151.024ZM162.597 493.278C158.319 493.278 155.668 490.246 155.668 485.427V485.412C155.668 480.637 158.363 477.487 162.436 477.487C166.508 477.487 169.071 480.534 169.071 485.09V485.852H157.631C157.689 489.484 159.638 491.55 162.641 491.55C164.882 491.55 166.435 490.422 166.933 488.767L166.962 488.635H168.881L168.852 488.781C168.324 491.389 165.893 493.278 162.597 493.278ZM162.421 479.216C159.828 479.216 157.895 481.076 157.66 484.313H167.123C166.903 480.988 165.028 479.216 162.421 479.216ZM183.5 493.278C179.662 493.278 177.055 490.144 177.055 485.383V485.368C177.055 480.607 179.677 477.487 183.485 477.487C185.873 477.487 187.836 478.835 188.7 480.944H188.744V471.862H190.692V493H188.744V489.836H188.686C187.807 491.931 185.902 493.278 183.5 493.278ZM183.866 491.55C186.737 491.55 188.759 489.06 188.759 485.383V485.368C188.759 481.706 186.708 479.216 183.866 479.216C180.937 479.216 179.047 481.633 179.047 485.368V485.383C179.047 489.147 180.937 491.55 183.866 491.55ZM200.331 493.278C196.054 493.278 193.402 490.246 193.402 485.427V485.412C193.402 480.637 196.098 477.487 200.17 477.487C204.242 477.487 206.806 480.534 206.806 485.09V485.852H195.365C195.424 489.484 197.372 491.55 200.375 491.55C202.616 491.55 204.169 490.422 204.667 488.767L204.696 488.635H206.615L206.586 488.781C206.059 491.389 203.627 493.278 200.331 493.278ZM200.155 479.216C197.562 479.216 195.629 481.076 195.395 484.313H204.857C204.638 480.988 202.763 479.216 200.155 479.216ZM215.565 493.278C211.332 493.278 208.637 490.217 208.637 485.368V485.354C208.637 480.563 211.376 477.487 215.551 477.487C219.096 477.487 221.396 479.787 221.776 482.409L221.791 482.541H219.887L219.857 482.424C219.433 480.637 217.924 479.216 215.551 479.216C212.577 479.216 210.629 481.604 210.629 485.383V485.397C210.629 489.235 212.606 491.55 215.565 491.55C217.836 491.55 219.403 490.246 219.857 488.342L219.887 488.225H221.806L221.791 488.342C221.337 491.184 218.891 493.278 215.565 493.278ZM225.351 475.012C224.633 475.012 224.062 474.44 224.062 473.723C224.062 473.005 224.633 472.448 225.351 472.448C226.054 472.448 226.625 473.005 226.625 473.723C226.625 474.44 226.054 475.012 225.351 475.012ZM224.369 493V477.766H226.317V493H224.369ZM235.048 493.278C231.591 493.278 229.379 491.433 229.086 488.737L229.071 488.605H231.005L231.034 488.737C231.342 490.495 232.763 491.638 235.062 491.638C237.362 491.638 238.827 490.583 238.827 488.986V488.972C238.827 487.653 238.095 486.936 236.059 486.452L233.759 485.896C230.888 485.207 229.511 483.947 229.511 481.838V481.823C229.511 479.289 231.752 477.487 234.931 477.487C238.183 477.487 240.263 479.377 240.512 481.999L240.526 482.16H238.666L238.651 482.058C238.402 480.285 237.055 479.128 234.931 479.128C232.865 479.128 231.488 480.197 231.488 481.75V481.765C231.488 482.98 232.309 483.757 234.315 484.24L236.615 484.782C239.647 485.515 240.805 486.701 240.805 488.84V488.854C240.805 491.447 238.388 493.278 235.048 493.278ZM244.54 475.012C243.822 475.012 243.251 474.44 243.251 473.723C243.251 473.005 243.822 472.448 244.54 472.448C245.243 472.448 245.814 473.005 245.814 473.723C245.814 474.44 245.243 475.012 244.54 475.012ZM243.559 493V477.766H245.507V493H243.559ZM255.189 493.278C251.029 493.264 248.246 490.217 248.246 485.383V485.354C248.246 480.52 251.044 477.487 255.189 477.487C259.32 477.487 262.133 480.505 262.133 485.354V485.383C262.133 490.231 259.335 493.278 255.189 493.278ZM255.204 491.55C258.178 491.55 260.155 489.235 260.155 485.383V485.354C260.155 481.501 258.163 479.216 255.189 479.216C252.216 479.216 250.238 481.516 250.238 485.354V485.383C250.238 489.25 252.201 491.535 255.204 491.55ZM264.711 493V477.766H266.645V480.358H266.703C267.465 478.718 269.179 477.502 271.64 477.502C275.009 477.502 277.001 479.67 277.001 483.244V493H275.067V483.566C275.067 480.739 273.661 479.23 271.068 479.23C268.417 479.23 266.645 481.135 266.645 483.977V493H264.711ZM285.497 493.278C282.04 493.278 279.828 491.433 279.535 488.737L279.521 488.605H281.454L281.483 488.737C281.791 490.495 283.212 491.638 285.512 491.638C287.812 491.638 289.276 490.583 289.276 488.986V488.972C289.276 487.653 288.544 486.936 286.508 486.452L284.208 485.896C281.337 485.207 279.96 483.947 279.96 481.838V481.823C279.96 479.289 282.201 477.487 285.38 477.487C288.632 477.487 290.712 479.377 290.961 481.999L290.976 482.16H289.115L289.101 482.058C288.852 480.285 287.504 479.128 285.38 479.128C283.314 479.128 281.938 480.197 281.938 481.75V481.765C281.938 482.98 282.758 483.757 284.765 484.24L287.064 484.782C290.097 485.515 291.254 486.701 291.254 488.84V488.854C291.254 491.447 288.837 493.278 285.497 493.278Z" fill="white"/>
<defs>
<filter id="filter0_bdi_7024_1178" x="-92" y="-92" width="629" height="767" filterUnits="userSpaceOnUse" color-interpolation-filters="sRGB">
<feFlood flood-opacity="0" result="BackgroundImageFix"/>
<feGaussianBlur in="BackgroundImageFix" stdDeviation="60"/>
<feComposite in2="SourceAlpha" operator="in" result="effect1_backgroundBlur_7024_1178"/>
<feColorMatrix in="SourceAlpha" type="matrix" values="0 0 0 0 0 0 0 0 0 0 0 0 0 0 0 0 0 0 127 0" result="hardAlpha"/>
<feOffset dx="2" dy="2"/>
<feGaussianBlur stdDeviation="15"/>
<feComposite in2="hardAlpha" operator="out"/>
<feColorMatrix type="matrix" values="0 0 0 0 0 0 0 0 0 0 0 0 0 0 0 0 0 0 0.25 0"/>
<feBlend mode="normal" in2="effect1_backgroundBlur_7024_1178" result="effect2_dropShadow_7024_1178"/>
<feBlend mode="normal" in="SourceGraphic" in2="effect2_dropShadow_7024_1178" result="shape"/>
<feColorMatrix in="SourceAlpha" type="matrix" values="0 0 0 0 0 0 0 0 0 0 0 0 0 0 0 0 0 0 127 0" result="hardAlpha"/>
<feMorphology radius="2" operator="erode" in="SourceAlpha" result="effect3_innerShadow_7024_1178"/>
<feOffset/>
<feGaussianBlur stdDeviation="1"/>
<feComposite in2="hardAlpha" operator="arithmetic" k2="-1" k3="1"/>
<feColorMatrix type="matrix" values="0 0 0 0 1 0 0 0 0 1 0 0 0 0 1 0 0 0 0.1 0"/>
<feBlend mode="normal" in2="shape" result="effect3_innerShadow_7024_1178"/>
</filter>
<linearGradient id="paint0_linear_7024_1178" x1="84.0351" y1="30" x2="484.455" y2="290.059" gradientUnits="userSpaceOnUse">
<stop stop-color="#646464"/>
<stop offset="0.168844" stop-opacity="0.37"/>
<stop offset="0.89794" stop-opacity="0.56"/>
<stop offset="1" stop-color="#646464"/>
</linearGradient>
</defs>
</svg>
