<svg width="333" height="40" viewBox="0 0 333 40" fill="none" xmlns="http://www.w3.org/2000/svg">
<path d="M30.397 1.37V39H26.74V21.404H4.427V39H0.717V1.37H4.427V18.118H26.74V1.37H30.397ZM36.6191 31.05C36.6191 29.3187 37.1138 27.8347 38.1031 26.598C39.0925 25.326 40.4528 24.3543 42.1841 23.683C43.9508 22.9763 45.9825 22.623 48.2791 22.623C49.6218 22.623 51.0175 22.729 52.4661 22.941C53.9148 23.153 55.2045 23.471 56.3351 23.895V21.563C56.3351 19.231 55.6461 17.376 54.2681 15.998C52.8901 14.62 50.9821 13.931 48.5441 13.931C47.0601 13.931 45.5938 14.2137 44.1451 14.779C42.7318 15.309 41.2478 16.104 39.6931 17.164L38.3151 14.62C40.1171 13.3833 41.8838 12.4647 43.6151 11.864C45.3465 11.228 47.1131 10.91 48.9151 10.91C52.3071 10.91 54.9925 11.8817 56.9711 13.825C58.9498 15.7683 59.9391 18.4537 59.9391 21.881V34.654C59.9391 35.1487 60.0451 35.5197 60.2571 35.767C60.4691 35.979 60.8048 36.1027 61.2641 36.138V39C60.8755 39.0353 60.5398 39.0707 60.2571 39.106C59.9745 39.1413 59.7625 39.1413 59.6211 39.106C58.7378 39.0707 58.0665 38.788 57.6071 38.258C57.1478 37.728 56.9005 37.1627 56.8651 36.562L56.8121 34.548C55.5755 36.138 53.9678 37.3747 51.9891 38.258C50.0105 39.106 47.9965 39.53 45.9471 39.53C44.1805 39.53 42.5728 39.159 41.1241 38.417C39.7108 37.6397 38.5978 36.615 37.7851 35.343C37.0078 34.0357 36.6191 32.6047 36.6191 31.05ZM55.1161 33.17C55.5048 32.6753 55.8051 32.1983 56.0171 31.739C56.2291 31.2797 56.3351 30.8733 56.3351 30.52V26.492C55.1338 26.0327 53.8795 25.6793 52.5721 25.432C51.3001 25.1847 50.0105 25.061 48.7031 25.061C46.1238 25.061 44.0391 25.5733 42.4491 26.598C40.8591 27.6227 40.0641 29.0183 40.0641 30.785C40.0641 31.8097 40.3291 32.7813 40.8591 33.7C41.3891 34.5833 42.1665 35.3253 43.1911 35.926C44.2158 36.4913 45.4171 36.774 46.7951 36.774C48.5265 36.774 50.1341 36.4383 51.6181 35.767C53.1375 35.0957 54.3035 34.23 55.1161 33.17ZM90.94 39H87.336V23.577C87.336 20.3263 86.859 17.959 85.905 16.475C84.951 14.9557 83.4493 14.196 81.4 14.196C79.9866 14.196 78.591 14.5493 77.213 15.256C75.835 15.9273 74.616 16.8637 73.556 18.065C72.5313 19.231 71.7893 20.5737 71.33 22.093V39H67.726V11.387H71.012V17.641C71.754 16.2983 72.7256 15.1323 73.927 14.143C75.1283 13.1183 76.4886 12.3233 78.008 11.758C79.5273 11.1927 81.0996 10.91 82.725 10.91C84.2443 10.91 85.534 11.1927 86.594 11.758C87.654 12.3233 88.502 13.136 89.138 14.196C89.774 15.2207 90.2333 16.475 90.516 17.959C90.7986 19.4077 90.94 21.033 90.94 22.835V39ZM121.839 39H118.235V23.577C118.235 20.3263 117.758 17.959 116.804 16.475C115.85 14.9557 114.349 14.196 112.299 14.196C110.886 14.196 109.49 14.5493 108.112 15.256C106.734 15.9273 105.515 16.8637 104.455 18.065C103.431 19.231 102.689 20.5737 102.229 22.093V39H98.6254V11.387H101.911V17.641C102.653 16.2983 103.625 15.1323 104.826 14.143C106.028 13.1183 107.388 12.3233 108.907 11.758C110.427 11.1927 111.999 10.91 113.624 10.91C115.144 10.91 116.433 11.1927 117.493 11.758C118.553 12.3233 119.401 13.136 120.037 14.196C120.673 15.2207 121.133 16.475 121.415 17.959C121.698 19.4077 121.839 21.033 121.839 22.835V39ZM129.26 27.605V11.387H132.864V26.969C132.864 30.1137 133.394 32.4633 134.454 34.018C135.549 35.5727 137.157 36.35 139.277 36.35C140.69 36.35 142.05 36.0497 143.358 35.449C144.7 34.813 145.884 33.9297 146.909 32.799C147.933 31.633 148.711 30.2903 149.241 28.771V11.387H152.845V34.654C152.845 35.1487 152.951 35.5197 153.163 35.767C153.375 35.979 153.693 36.1027 154.117 36.138V39C153.693 39.0353 153.357 39.053 153.11 39.053C152.862 39.0883 152.633 39.106 152.421 39.106C151.714 39.0353 151.096 38.7527 150.566 38.258C150.071 37.7633 149.806 37.1627 149.771 36.456L149.665 32.746C148.463 34.866 146.82 36.5267 144.736 37.728C142.686 38.9293 140.46 39.53 138.058 39.53C135.16 39.53 132.97 38.523 131.486 36.509C130.002 34.495 129.26 31.527 129.26 27.605ZM161.153 0.309999H164.757V32.746C164.757 34.124 165.004 35.025 165.499 35.449C165.993 35.873 166.594 36.085 167.301 36.085C167.937 36.085 168.573 36.0143 169.209 35.873C169.845 35.7317 170.392 35.5903 170.852 35.449L171.488 38.364C170.816 38.6467 169.986 38.8763 168.997 39.053C168.043 39.2297 167.212 39.318 166.506 39.318C164.88 39.318 163.573 38.841 162.584 37.887C161.63 36.933 161.153 35.6257 161.153 33.965V0.309999ZM173.208 31.05C173.208 29.3187 173.703 27.8347 174.692 26.598C175.681 25.326 177.042 24.3543 178.773 23.683C180.54 22.9763 182.571 22.623 184.868 22.623C186.211 22.623 187.606 22.729 189.055 22.941C190.504 23.153 191.793 23.471 192.924 23.895V21.563C192.924 19.231 192.235 17.376 190.857 15.998C189.479 14.62 187.571 13.931 185.133 13.931C183.649 13.931 182.183 14.2137 180.734 14.779C179.321 15.309 177.837 16.104 176.282 17.164L174.904 14.62C176.706 13.3833 178.473 12.4647 180.204 11.864C181.935 11.228 183.702 10.91 185.504 10.91C188.896 10.91 191.581 11.8817 193.56 13.825C195.539 15.7683 196.528 18.4537 196.528 21.881V34.654C196.528 35.1487 196.634 35.5197 196.846 35.767C197.058 35.979 197.394 36.1027 197.853 36.138V39C197.464 39.0353 197.129 39.0707 196.846 39.106C196.563 39.1413 196.351 39.1413 196.21 39.106C195.327 39.0707 194.655 38.788 194.196 38.258C193.737 37.728 193.489 37.1627 193.454 36.562L193.401 34.548C192.164 36.138 190.557 37.3747 188.578 38.258C186.599 39.106 184.585 39.53 182.536 39.53C180.769 39.53 179.162 39.159 177.713 38.417C176.3 37.6397 175.187 36.615 174.374 35.343C173.597 34.0357 173.208 32.6047 173.208 31.05ZM191.705 33.17C192.094 32.6753 192.394 32.1983 192.606 31.739C192.818 31.2797 192.924 30.8733 192.924 30.52V26.492C191.723 26.0327 190.468 25.6793 189.161 25.432C187.889 25.1847 186.599 25.061 185.292 25.061C182.713 25.061 180.628 25.5733 179.038 26.598C177.448 27.6227 176.653 29.0183 176.653 30.785C176.653 31.8097 176.918 32.7813 177.448 33.7C177.978 34.5833 178.755 35.3253 179.78 35.926C180.805 36.4913 182.006 36.774 183.384 36.774C185.115 36.774 186.723 36.4383 188.207 35.767C189.726 35.0957 190.892 34.23 191.705 33.17ZM216.206 1.635H219.704L225.004 14.991L230.357 1.635H233.908L227.336 17.694L234.544 34.707L248.165 1.37H252.193L236.24 39H232.954L225.057 20.397L217.107 39H213.874L197.974 1.37H201.949L215.623 34.707L222.778 17.694L216.206 1.635ZM265.099 39.53C263.121 39.53 261.283 39.159 259.587 38.417C257.891 37.6397 256.425 36.5973 255.188 35.29C253.952 33.9473 252.98 32.4103 252.273 30.679C251.602 28.9477 251.266 27.0927 251.266 25.114C251.266 22.5347 251.849 20.1673 253.015 18.012C254.217 15.8567 255.86 14.143 257.944 12.871C260.029 11.5637 262.396 10.91 265.046 10.91C267.767 10.91 270.134 11.5637 272.148 12.871C274.198 14.1783 275.805 15.9097 276.971 18.065C278.137 20.185 278.72 22.517 278.72 25.061C278.72 25.3437 278.72 25.6263 278.72 25.909C278.72 26.1563 278.703 26.3507 278.667 26.492H255.029C255.206 28.4707 255.754 30.2373 256.672 31.792C257.626 33.3113 258.845 34.5303 260.329 35.449C261.849 36.3323 263.492 36.774 265.258 36.774C267.06 36.774 268.756 36.3147 270.346 35.396C271.972 34.4773 273.102 33.276 273.738 31.792L276.865 32.64C276.3 33.9473 275.434 35.131 274.268 36.191C273.102 37.251 271.724 38.0813 270.134 38.682C268.58 39.2473 266.901 39.53 265.099 39.53ZM254.923 23.895H275.328C275.187 21.881 274.639 20.1143 273.685 18.595C272.767 17.0757 271.548 15.892 270.028 15.044C268.544 14.1607 266.901 13.719 265.099 13.719C263.297 13.719 261.654 14.1607 260.17 15.044C258.686 15.892 257.467 17.0933 256.513 18.648C255.595 20.1673 255.065 21.9163 254.923 23.895ZM284.44 0.309999H288.044V32.746C288.044 34.124 288.291 35.025 288.786 35.449C289.28 35.873 289.881 36.085 290.588 36.085C291.224 36.085 291.86 36.0143 292.496 35.873C293.132 35.7317 293.679 35.5903 294.139 35.449L294.775 38.364C294.103 38.6467 293.273 38.8763 292.284 39.053C291.33 39.2297 290.499 39.318 289.793 39.318C288.167 39.318 286.86 38.841 285.871 37.887C284.917 36.933 284.44 35.6257 284.44 33.965V0.309999ZM298.88 0.309999H302.484V32.746C302.484 34.124 302.731 35.025 303.226 35.449C303.721 35.873 304.321 36.085 305.028 36.085C305.664 36.085 306.3 36.0143 306.936 35.873C307.572 35.7317 308.12 35.5903 308.579 35.449L309.215 38.364C308.544 38.6467 307.713 38.8763 306.724 39.053C305.77 39.2297 304.94 39.318 304.233 39.318C302.608 39.318 301.3 38.841 300.311 37.887C299.357 36.933 298.88 35.6257 298.88 33.965V0.309999ZM322.225 39.53C319.963 39.53 317.861 39.159 315.918 38.417C313.974 37.675 312.296 36.5443 310.883 35.025L312.367 32.481C313.921 33.9297 315.476 34.9897 317.031 35.661C318.621 36.297 320.299 36.615 322.066 36.615C324.221 36.615 325.97 36.191 327.313 35.343C328.655 34.4597 329.327 33.2053 329.327 31.58C329.327 30.4847 328.991 29.6543 328.32 29.089C327.684 28.4883 326.747 28.0113 325.511 27.658C324.309 27.2693 322.861 26.863 321.165 26.439C319.257 25.909 317.649 25.3613 316.342 24.796C315.07 24.1953 314.098 23.4533 313.427 22.57C312.791 21.6513 312.473 20.4677 312.473 19.019C312.473 17.217 312.914 15.733 313.798 14.567C314.716 13.3657 315.953 12.4647 317.508 11.864C319.098 11.228 320.864 10.91 322.808 10.91C324.928 10.91 326.8 11.2457 328.426 11.917C330.051 12.5883 331.376 13.5247 332.401 14.726L330.652 17.164C329.662 16.0333 328.479 15.203 327.101 14.673C325.758 14.1077 324.256 13.825 322.596 13.825C321.465 13.825 320.387 13.984 319.363 14.302C318.338 14.5847 317.49 15.0793 316.819 15.786C316.183 16.4573 315.865 17.3937 315.865 18.595C315.865 19.5843 316.112 20.3617 316.607 20.927C317.101 21.457 317.843 21.9163 318.833 22.305C319.822 22.6583 321.041 23.047 322.49 23.471C324.574 24.0363 326.394 24.6193 327.949 25.22C329.503 25.7853 330.705 26.5273 331.553 27.446C332.401 28.3647 332.825 29.6543 332.825 31.315C332.825 33.8943 331.853 35.9083 329.91 37.357C327.966 38.8057 325.405 39.53 322.225 39.53Z" fill="white"/>
</svg>
