<svg width="458" height="109" viewBox="0 0 458 109" fill="none" xmlns="http://www.w3.org/2000/svg">
<g filter="url(#filter0_d_829_7564)">
<path d="M118.71 72.43C118.71 69.37 119.34 66.355 120.6 63.385C121.89 60.385 123.435 57.34 125.235 54.25L129.06 55.87C128.52 56.65 127.92 57.67 127.26 58.93C126.63 60.19 126.015 61.6 125.415 63.16C124.815 64.69 124.32 66.265 123.93 67.885C123.54 69.475 123.345 71.035 123.345 72.565C123.345 74.935 123.855 77.455 124.875 80.125C125.895 82.795 127.245 85.51 128.925 88.27L125.325 90.115C124.065 88.225 122.925 86.305 121.905 84.355C120.915 82.405 120.135 80.425 119.565 78.415C118.995 76.375 118.71 74.38 118.71 72.43ZM154.965 78.775C154.965 80.695 154.44 82.375 153.39 83.815C152.37 85.255 150.975 86.38 149.205 87.19C147.465 87.97 145.56 88.36 143.49 88.36C141.36 88.36 139.44 87.94 137.73 87.1C136.02 86.23 134.655 85.06 133.635 83.59C132.615 82.12 132.105 80.44 132.105 78.55C132.105 77.29 132.39 76.165 132.96 75.175C133.53 74.155 134.235 73.285 135.075 72.565C135.915 71.845 136.77 71.29 137.64 70.9C136.83 70.51 136.08 70.015 135.39 69.415C134.73 68.785 134.19 68.065 133.77 67.255C133.38 66.445 133.185 65.575 133.185 64.645C133.185 63.265 133.485 62.05 134.085 61C134.715 59.92 135.54 59.02 136.56 58.3C137.58 57.55 138.69 56.995 139.89 56.635C141.12 56.245 142.335 56.05 143.535 56.05C144.765 56.05 145.98 56.245 147.18 56.635C148.41 56.995 149.535 57.535 150.555 58.255C151.605 58.975 152.43 59.875 153.03 60.955C153.66 62.005 153.975 63.22 153.975 64.6C153.975 65.53 153.765 66.415 153.345 67.255C152.955 68.065 152.4 68.785 151.68 69.415C150.99 70.045 150.24 70.54 149.43 70.9C150.39 71.32 151.29 71.905 152.13 72.655C153 73.405 153.69 74.29 154.2 75.31C154.71 76.33 154.965 77.485 154.965 78.775ZM149.97 78.46C149.97 77.59 149.775 76.81 149.385 76.12C149.025 75.43 148.53 74.86 147.9 74.41C147.27 73.93 146.58 73.57 145.83 73.33C145.08 73.09 144.315 72.97 143.535 72.97C142.425 72.97 141.39 73.195 140.43 73.645C139.47 74.095 138.69 74.74 138.09 75.58C137.49 76.39 137.19 77.35 137.19 78.46C137.19 79.3 137.37 80.065 137.73 80.755C138.09 81.415 138.57 81.985 139.17 82.465C139.8 82.945 140.49 83.305 141.24 83.545C142.02 83.785 142.8 83.905 143.58 83.905C144.66 83.905 145.68 83.68 146.64 83.23C147.63 82.75 148.425 82.105 149.025 81.295C149.655 80.455 149.97 79.51 149.97 78.46ZM138.18 64.825C138.18 65.755 138.45 66.55 138.99 67.21C139.53 67.87 140.22 68.365 141.06 68.695C141.9 69.025 142.725 69.19 143.535 69.19C144.375 69.19 145.2 69.025 146.01 68.695C146.85 68.335 147.54 67.825 148.08 67.165C148.65 66.505 148.935 65.695 148.935 64.735C148.935 63.865 148.68 63.115 148.17 62.485C147.66 61.825 146.985 61.33 146.145 61C145.335 60.64 144.465 60.46 143.535 60.46C142.605 60.46 141.72 60.64 140.88 61C140.07 61.36 139.41 61.87 138.9 62.53C138.42 63.16 138.18 63.925 138.18 64.825ZM182.117 74.815C182.117 77.455 181.607 79.81 180.587 81.88C179.597 83.92 178.232 85.525 176.492 86.695C174.782 87.865 172.817 88.45 170.597 88.45C168.407 88.45 166.442 87.865 164.702 86.695C162.962 85.525 161.582 83.92 160.562 81.88C159.572 79.81 159.077 77.455 159.077 74.815C159.077 72.175 159.572 69.835 160.562 67.795C161.582 65.725 162.962 64.105 164.702 62.935C166.442 61.735 168.407 61.135 170.597 61.135C172.817 61.135 174.782 61.735 176.492 62.935C178.232 64.105 179.597 65.725 180.587 67.795C181.607 69.835 182.117 72.175 182.117 74.815ZM177.077 74.815C177.077 73.015 176.807 71.44 176.267 70.09C175.727 68.71 174.962 67.645 173.972 66.895C172.982 66.115 171.857 65.725 170.597 65.725C169.307 65.725 168.167 66.115 167.177 66.895C166.187 67.645 165.407 68.71 164.837 70.09C164.297 71.44 164.027 73.015 164.027 74.815C164.027 76.615 164.297 78.19 164.837 79.54C165.407 80.89 166.187 81.955 167.177 82.735C168.167 83.485 169.307 83.86 170.597 83.86C171.857 83.86 172.967 83.485 173.927 82.735C174.917 81.955 175.682 80.89 176.222 79.54C176.792 78.19 177.077 76.615 177.077 74.815ZM195.933 94.705C193.623 94.705 191.553 94.18 189.723 93.13C187.893 92.11 186.498 90.715 185.538 88.945L188.508 86.11C189.348 87.4 190.428 88.42 191.748 89.17C193.068 89.95 194.478 90.34 195.978 90.34C197.208 90.34 198.303 90.07 199.263 89.53C200.223 89.02 200.973 88.3 201.513 87.37C202.083 86.41 202.368 85.315 202.368 84.085C202.368 82.885 202.098 81.835 201.558 80.935C201.018 80.005 200.298 79.3 199.398 78.82C198.498 78.31 197.463 78.055 196.293 78.055C195.153 78.055 194.088 78.31 193.098 78.82C192.108 79.33 191.298 80.05 190.668 80.98H186.303L189.948 62.305H205.563V66.85H193.548L191.928 75.58C192.438 75.04 193.128 74.605 193.998 74.275C194.868 73.915 195.858 73.735 196.968 73.735C198.978 73.735 200.763 74.185 202.323 75.085C203.913 75.955 205.158 77.155 206.058 78.685C206.988 80.215 207.453 81.985 207.453 83.995C207.453 86.125 206.943 87.985 205.923 89.575C204.903 91.195 203.523 92.455 201.783 93.355C200.043 94.255 198.093 94.705 195.933 94.705ZM220.214 72.43C220.214 74.38 219.929 76.375 219.359 78.415C218.789 80.425 218.009 82.405 217.019 84.355C216.029 86.305 214.904 88.225 213.644 90.115L209.999 88.27C211.679 85.51 213.029 82.795 214.049 80.125C215.099 77.455 215.624 74.935 215.624 72.565C215.624 71.035 215.429 69.475 215.039 67.885C214.649 66.265 214.139 64.69 213.509 63.16C212.909 61.6 212.279 60.19 211.619 58.93C210.989 57.67 210.419 56.65 209.909 55.87L213.689 54.25C215.519 57.34 217.064 60.385 218.324 63.385C219.584 66.355 220.214 69.37 220.214 72.43ZM249.127 77.38C250.387 77.59 251.482 78.07 252.412 78.82C253.372 79.54 254.107 80.47 254.617 81.61C255.127 82.72 255.382 83.98 255.382 85.39C255.382 87.25 254.917 88.87 253.987 90.25C253.087 91.63 251.797 92.695 250.117 93.445C248.437 94.225 246.457 94.615 244.177 94.615C241.897 94.615 239.887 94.21 238.147 93.4C236.407 92.62 235.012 91.48 233.962 89.98L236.977 86.56C237.697 87.64 238.627 88.495 239.767 89.125C240.907 89.785 242.347 90.115 244.087 90.115C246.037 90.115 247.552 89.695 248.632 88.855C249.712 88.015 250.252 86.755 250.252 85.075C250.252 83.335 249.652 81.97 248.452 80.98C247.282 79.99 245.512 79.495 243.142 79.495H241.927V75.625H243.277C245.287 75.625 246.832 75.16 247.912 74.23C248.992 73.27 249.532 72.07 249.532 70.63C249.532 69.67 249.307 68.89 248.857 68.29C248.437 67.66 247.837 67.195 247.057 66.895C246.277 66.595 245.377 66.445 244.357 66.445C242.827 66.445 241.477 66.775 240.307 67.435C239.137 68.095 238.207 69.04 237.517 70.27L234.412 66.895C235.012 65.935 235.837 65.095 236.887 64.375C237.937 63.655 239.137 63.1 240.487 62.71C241.867 62.29 243.322 62.08 244.852 62.08C246.832 62.08 248.572 62.41 250.072 63.07C251.572 63.73 252.727 64.66 253.537 65.86C254.377 67.06 254.797 68.47 254.797 70.09C254.797 71.26 254.572 72.37 254.122 73.42C253.672 74.44 253.012 75.31 252.142 76.03C251.272 76.72 250.267 77.17 249.127 77.38ZM282.274 74.815C282.274 77.455 281.764 79.81 280.744 81.88C279.754 83.92 278.389 85.525 276.649 86.695C274.939 87.865 272.974 88.45 270.754 88.45C268.564 88.45 266.599 87.865 264.859 86.695C263.119 85.525 261.739 83.92 260.719 81.88C259.729 79.81 259.234 77.455 259.234 74.815C259.234 72.175 259.729 69.835 260.719 67.795C261.739 65.725 263.119 64.105 264.859 62.935C266.599 61.735 268.564 61.135 270.754 61.135C272.974 61.135 274.939 61.735 276.649 62.935C278.389 64.105 279.754 65.725 280.744 67.795C281.764 69.835 282.274 72.175 282.274 74.815ZM277.234 74.815C277.234 73.015 276.964 71.44 276.424 70.09C275.884 68.71 275.119 67.645 274.129 66.895C273.139 66.115 272.014 65.725 270.754 65.725C269.464 65.725 268.324 66.115 267.334 66.895C266.344 67.645 265.564 68.71 264.994 70.09C264.454 71.44 264.184 73.015 264.184 74.815C264.184 76.615 264.454 78.19 264.994 79.54C265.564 80.89 266.344 81.955 267.334 82.735C268.324 83.485 269.464 83.86 270.754 83.86C272.014 83.86 273.124 83.485 274.084 82.735C275.074 81.955 275.839 80.89 276.379 79.54C276.949 78.19 277.234 76.615 277.234 74.815ZM296.091 94.705C293.781 94.705 291.711 94.18 289.881 93.13C288.051 92.11 286.656 90.715 285.696 88.945L288.666 86.11C289.506 87.4 290.586 88.42 291.906 89.17C293.226 89.95 294.636 90.34 296.136 90.34C297.366 90.34 298.461 90.07 299.421 89.53C300.381 89.02 301.131 88.3 301.671 87.37C302.241 86.41 302.526 85.315 302.526 84.085C302.526 82.885 302.256 81.835 301.716 80.935C301.176 80.005 300.456 79.3 299.556 78.82C298.656 78.31 297.621 78.055 296.451 78.055C295.311 78.055 294.246 78.31 293.256 78.82C292.266 79.33 291.456 80.05 290.826 80.98H286.461L290.106 62.305H305.721V66.85H293.706L292.086 75.58C292.596 75.04 293.286 74.605 294.156 74.275C295.026 73.915 296.016 73.735 297.126 73.735C299.136 73.735 300.921 74.185 302.481 75.085C304.071 75.955 305.316 77.155 306.216 78.685C307.146 80.215 307.611 81.985 307.611 83.995C307.611 86.125 307.101 87.985 306.081 89.575C305.061 91.195 303.681 92.455 301.941 93.355C300.201 94.255 298.251 94.705 296.091 94.705ZM322.389 77.92V73.465H335.844V77.92H322.389ZM374.073 78.775C374.073 80.695 373.548 82.375 372.498 83.815C371.478 85.255 370.083 86.38 368.313 87.19C366.573 87.97 364.668 88.36 362.598 88.36C360.468 88.36 358.548 87.94 356.838 87.1C355.128 86.23 353.763 85.06 352.743 83.59C351.723 82.12 351.213 80.44 351.213 78.55C351.213 77.29 351.498 76.165 352.068 75.175C352.638 74.155 353.343 73.285 354.183 72.565C355.023 71.845 355.878 71.29 356.748 70.9C355.938 70.51 355.188 70.015 354.498 69.415C353.838 68.785 353.298 68.065 352.878 67.255C352.488 66.445 352.293 65.575 352.293 64.645C352.293 63.265 352.593 62.05 353.193 61C353.823 59.92 354.648 59.02 355.668 58.3C356.688 57.55 357.798 56.995 358.998 56.635C360.228 56.245 361.443 56.05 362.643 56.05C363.873 56.05 365.088 56.245 366.288 56.635C367.518 56.995 368.643 57.535 369.663 58.255C370.713 58.975 371.538 59.875 372.138 60.955C372.768 62.005 373.083 63.22 373.083 64.6C373.083 65.53 372.873 66.415 372.453 67.255C372.063 68.065 371.508 68.785 370.788 69.415C370.098 70.045 369.348 70.54 368.538 70.9C369.498 71.32 370.398 71.905 371.238 72.655C372.108 73.405 372.798 74.29 373.308 75.31C373.818 76.33 374.073 77.485 374.073 78.775ZM369.078 78.46C369.078 77.59 368.883 76.81 368.493 76.12C368.133 75.43 367.638 74.86 367.008 74.41C366.378 73.93 365.688 73.57 364.938 73.33C364.188 73.09 363.423 72.97 362.643 72.97C361.533 72.97 360.498 73.195 359.538 73.645C358.578 74.095 357.798 74.74 357.198 75.58C356.598 76.39 356.298 77.35 356.298 78.46C356.298 79.3 356.478 80.065 356.838 80.755C357.198 81.415 357.678 81.985 358.278 82.465C358.908 82.945 359.598 83.305 360.348 83.545C361.128 83.785 361.908 83.905 362.688 83.905C363.768 83.905 364.788 83.68 365.748 83.23C366.738 82.75 367.533 82.105 368.133 81.295C368.763 80.455 369.078 79.51 369.078 78.46ZM357.288 64.825C357.288 65.755 357.558 66.55 358.098 67.21C358.638 67.87 359.328 68.365 360.168 68.695C361.008 69.025 361.833 69.19 362.643 69.19C363.483 69.19 364.308 69.025 365.118 68.695C365.958 68.335 366.648 67.825 367.188 67.165C367.758 66.505 368.043 65.695 368.043 64.735C368.043 63.865 367.788 63.115 367.278 62.485C366.768 61.825 366.093 61.33 365.253 61C364.443 60.64 363.573 60.46 362.643 60.46C361.713 60.46 360.828 60.64 359.988 61C359.178 61.36 358.518 61.87 358.008 62.53C357.528 63.16 357.288 63.925 357.288 64.825ZM392.629 66.31H377.149V61.765H400.459L384.484 93.715H378.859L392.629 66.31ZM417.134 66.31H401.654V61.765H424.964L408.989 93.715H403.364L417.134 66.31ZM441.373 77.38C442.633 77.59 443.728 78.07 444.658 78.82C445.618 79.54 446.353 80.47 446.863 81.61C447.373 82.72 447.628 83.98 447.628 85.39C447.628 87.25 447.163 88.87 446.233 90.25C445.333 91.63 444.043 92.695 442.363 93.445C440.683 94.225 438.703 94.615 436.423 94.615C434.143 94.615 432.133 94.21 430.393 93.4C428.653 92.62 427.258 91.48 426.208 89.98L429.223 86.56C429.943 87.64 430.873 88.495 432.013 89.125C433.153 89.785 434.593 90.115 436.333 90.115C438.283 90.115 439.798 89.695 440.878 88.855C441.958 88.015 442.498 86.755 442.498 85.075C442.498 83.335 441.898 81.97 440.698 80.98C439.528 79.99 437.758 79.495 435.388 79.495H434.173V75.625H435.523C437.533 75.625 439.078 75.16 440.158 74.23C441.238 73.27 441.778 72.07 441.778 70.63C441.778 69.67 441.553 68.89 441.103 68.29C440.683 67.66 440.083 67.195 439.303 66.895C438.523 66.595 437.623 66.445 436.603 66.445C435.073 66.445 433.723 66.775 432.553 67.435C431.383 68.095 430.453 69.04 429.763 70.27L426.658 66.895C427.258 65.935 428.083 65.095 429.133 64.375C430.183 63.655 431.383 63.1 432.733 62.71C434.113 62.29 435.568 62.08 437.098 62.08C439.078 62.08 440.818 62.41 442.318 63.07C443.818 63.73 444.973 64.66 445.783 65.86C446.623 67.06 447.043 68.47 447.043 70.09C447.043 71.26 446.818 72.37 446.368 73.42C445.918 74.44 445.258 75.31 444.388 76.03C443.518 76.72 442.513 77.17 441.373 77.38Z" fill="white"/>
<path d="M118.4 41V19.7H127.34C128.3 19.7 129.18 19.9 129.98 20.3C130.78 20.7 131.48 21.23 132.08 21.89C132.68 22.55 133.14 23.29 133.46 24.11C133.78 24.93 133.94 25.77 133.94 26.63C133.94 27.81 133.67 28.94 133.13 30.02C132.61 31.08 131.86 31.94 130.88 32.6C129.92 33.26 128.8 33.59 127.52 33.59H121.76V41H118.4ZM121.76 30.62H127.31C127.95 30.62 128.51 30.45 128.99 30.11C129.47 29.75 129.84 29.27 130.1 28.67C130.38 28.07 130.52 27.39 130.52 26.63C130.52 25.85 130.36 25.16 130.04 24.56C129.72 23.96 129.3 23.5 128.78 23.18C128.28 22.84 127.73 22.67 127.13 22.67H121.76V30.62ZM150.461 41H147.161V32.21C147.161 30.79 146.901 29.73 146.381 29.03C145.861 28.33 145.131 27.98 144.191 27.98C143.611 27.98 143.011 28.14 142.391 28.46C141.771 28.78 141.221 29.22 140.741 29.78C140.261 30.32 139.911 30.95 139.691 31.67V41H136.391V19.1H139.691V28.46C140.291 27.4 141.111 26.57 142.151 25.97C143.191 25.35 144.311 25.04 145.511 25.04C146.491 25.04 147.301 25.21 147.941 25.55C148.581 25.89 149.081 26.36 149.441 26.96C149.821 27.54 150.081 28.22 150.221 29C150.381 29.76 150.461 30.57 150.461 31.43V41ZM161.062 41.3C159.822 41.3 158.712 41.09 157.732 40.67C156.752 40.23 155.902 39.63 155.182 38.87C154.482 38.11 153.942 37.25 153.562 36.29C153.182 35.31 152.992 34.27 152.992 33.17C152.992 32.07 153.182 31.03 153.562 30.05C153.942 29.07 154.482 28.21 155.182 27.47C155.902 26.71 156.752 26.12 157.732 25.7C158.732 25.26 159.842 25.04 161.062 25.04C162.282 25.04 163.382 25.26 164.362 25.7C165.362 26.12 166.212 26.71 166.912 27.47C167.632 28.21 168.182 29.07 168.562 30.05C168.942 31.03 169.132 32.07 169.132 33.17C169.132 34.27 168.942 35.31 168.562 36.29C168.182 37.25 167.632 38.11 166.912 38.87C166.212 39.63 165.362 40.23 164.362 40.67C163.382 41.09 162.282 41.3 161.062 41.3ZM156.382 33.2C156.382 34.2 156.592 35.1 157.012 35.9C157.432 36.7 157.992 37.33 158.692 37.79C159.392 38.25 160.182 38.48 161.062 38.48C161.922 38.48 162.702 38.25 163.402 37.79C164.122 37.31 164.692 36.67 165.112 35.87C165.532 35.05 165.742 34.15 165.742 33.17C165.742 32.17 165.532 31.27 165.112 30.47C164.692 29.67 164.122 29.04 163.402 28.58C162.702 28.1 161.922 27.86 161.062 27.86C160.182 27.86 159.392 28.1 158.692 28.58C157.992 29.06 157.432 29.7 157.012 30.5C156.592 31.28 156.382 32.18 156.382 33.2ZM185.849 41H182.549V32.21C182.549 30.75 182.309 29.68 181.829 29C181.369 28.32 180.679 27.98 179.759 27.98C179.119 27.98 178.479 28.14 177.839 28.46C177.219 28.78 176.659 29.22 176.159 29.78C175.659 30.32 175.299 30.95 175.079 31.67V41H171.779V25.31H174.779V28.46C175.179 27.76 175.699 27.16 176.339 26.66C176.999 26.14 177.739 25.74 178.559 25.46C179.379 25.18 180.249 25.04 181.169 25.04C182.109 25.04 182.879 25.21 183.479 25.55C184.099 25.89 184.579 26.36 184.919 26.96C185.279 27.54 185.519 28.22 185.639 29C185.779 29.76 185.849 30.57 185.849 31.43V41ZM196.509 41.3C195.289 41.3 194.179 41.09 193.179 40.67C192.199 40.23 191.349 39.64 190.629 38.9C189.909 38.14 189.349 37.28 188.949 36.32C188.569 35.34 188.379 34.3 188.379 33.2C188.379 31.72 188.719 30.37 189.399 29.15C190.079 27.91 191.029 26.92 192.249 26.18C193.469 25.42 194.899 25.04 196.539 25.04C198.179 25.04 199.589 25.42 200.769 26.18C201.969 26.92 202.899 27.9 203.559 29.12C204.219 30.34 204.549 31.65 204.549 33.05C204.549 33.29 204.539 33.52 204.519 33.74C204.499 33.94 204.479 34.11 204.459 34.25H191.889C191.949 35.17 192.199 35.98 192.639 36.68C193.099 37.36 193.679 37.9 194.379 38.3C195.079 38.68 195.829 38.87 196.629 38.87C197.509 38.87 198.339 38.65 199.119 38.21C199.919 37.77 200.459 37.19 200.739 36.47L203.559 37.28C203.219 38.04 202.699 38.73 201.999 39.35C201.319 39.95 200.509 40.43 199.569 40.79C198.629 41.13 197.609 41.3 196.509 41.3ZM191.799 32.06H201.279C201.219 31.16 200.959 30.37 200.499 29.69C200.059 28.99 199.489 28.45 198.789 28.07C198.109 27.67 197.349 27.47 196.509 27.47C195.689 27.47 194.929 27.67 194.229 28.07C193.549 28.45 192.989 28.99 192.549 29.69C192.109 30.37 191.859 31.16 191.799 32.06ZM206.961 29.27V25.46H209.691V29.27H206.961ZM206.961 41V37.16H209.691V41H206.961Z" fill="white"/>
</g>
<g filter="url(#filter1_d_829_7564)">
<circle cx="40.5" cy="58" r="40.5" fill="white"/>
<path d="M40.7388 58.2417L27.3403 48.6713C27.0825 48.4871 26.741 48.4699 26.4659 48.6271C25.997 48.895 25.9157 49.5376 26.303 49.9139L40.0305 63.2492C40.4574 63.6638 41.1366 63.6638 41.5634 63.2492L55.2909 49.9139C55.6783 49.5376 55.5969 48.895 55.128 48.6271C54.8529 48.4699 54.5115 48.4871 54.2536 48.6713L40.8551 58.2417C40.8203 58.2665 40.7736 58.2665 40.7388 58.2417Z" fill="#757471"/>
<path d="M27.402 66.767L37.3374 59.7538C37.523 59.6228 37.7446 59.5524 37.9718 59.5524H43.6185C43.8457 59.5524 44.0673 59.6228 44.2529 59.7538L54.0589 66.6757C54.4247 66.9339 54.9345 66.8057 55.1348 66.4053C55.2842 66.1065 55.2121 65.7444 54.9596 65.5256L46.257 57.9833C46.0123 57.7712 45.6866 57.6778 45.3668 57.7277L40.8106 58.4396C40.8004 58.4412 40.79 58.4412 40.7797 58.4396L36.2236 57.7277C35.9037 57.6778 35.578 57.7712 35.3334 57.9833L26.7504 65.4218C26.4275 65.7017 26.3353 66.1648 26.5264 66.5469C26.6894 66.8729 27.1043 66.9772 27.402 66.767Z" fill="#757471"/>
<path d="M25.5532 49.8628C25.5532 48.8963 26.3367 48.1128 27.3032 48.1128H54.2973C55.2638 48.1128 56.0473 48.8963 56.0473 49.8628V65.7048C56.0473 67.2236 54.816 68.4548 53.2973 68.4548H28.3032C26.7844 68.4548 25.5532 67.2236 25.5532 65.7048V49.8628Z" stroke="black" stroke-width="2.5"/>
<circle cx="40.5" cy="58" r="40.5" fill="white"/>
<path d="M40.1642 58.4252L25.3562 47.848C25.0713 47.6445 24.6941 47.6254 24.3902 47.7991C23.8722 48.0951 23.7823 48.805 24.2103 49.2207L39.4559 64.0308C39.8827 64.4454 40.562 64.4454 40.9888 64.0308L56.2345 49.2207C56.6624 48.805 56.5726 48.0951 56.0546 47.7991C55.7506 47.6254 55.3734 47.6445 55.0885 47.848L40.2805 58.4252C40.2457 58.45 40.199 58.45 40.1642 58.4252Z" fill="#030303"/>
<path d="M25.433 67.8388L36.439 60.0698C36.6246 59.9388 36.8462 59.8685 37.0734 59.8685H43.3847C43.6119 59.8685 43.8335 59.9388 44.0191 60.0698L54.8821 67.7379C55.2862 68.0231 55.8494 67.8816 56.0706 67.4392C56.2357 67.109 56.1561 66.709 55.8772 66.4673L46.2226 58.1C45.9779 57.8879 45.6522 57.7945 45.3323 57.8444L40.2445 58.6394C40.2343 58.641 40.2238 58.641 40.2136 58.6394L35.1258 57.8444C34.8059 57.7945 34.4802 57.8879 34.2355 58.1L24.7132 66.3527C24.3565 66.6619 24.2546 67.1735 24.4657 67.5957C24.6457 67.9557 25.1041 68.0709 25.433 67.8388Z" fill="#030303"/>
<path d="M23.2529 48.8501C23.2529 47.8836 24.0364 47.1001 25.0029 47.1001H55.4529C56.4194 47.1001 57.2029 47.8836 57.2029 48.8501V67.0847C57.2029 68.6035 55.9717 69.8347 54.4529 69.8347H26.0029C24.4842 69.8347 23.2529 68.6035 23.2529 67.0847V48.8501Z" stroke="#030303" stroke-width="2.5"/>
</g>
<defs>
<filter id="filter0_d_829_7564" x="118.4" y="19.1001" width="339.228" height="85.605" filterUnits="userSpaceOnUse" color-interpolation-filters="sRGB">
<feFlood flood-opacity="0" result="BackgroundImageFix"/>
<feColorMatrix in="SourceAlpha" type="matrix" values="0 0 0 0 0 0 0 0 0 0 0 0 0 0 0 0 0 0 127 0" result="hardAlpha"/>
<feOffset dx="5" dy="5"/>
<feGaussianBlur stdDeviation="2.5"/>
<feComposite in2="hardAlpha" operator="out"/>
<feColorMatrix type="matrix" values="0 0 0 0 0 0 0 0 0 0 0 0 0 0 0 0 0 0 0.3 0"/>
<feBlend mode="normal" in2="BackgroundImageFix" result="effect1_dropShadow_829_7564"/>
<feBlend mode="normal" in="SourceGraphic" in2="effect1_dropShadow_829_7564" result="shape"/>
</filter>
<filter id="filter1_d_829_7564" x="0" y="17.5" width="91" height="91" filterUnits="userSpaceOnUse" color-interpolation-filters="sRGB">
<feFlood flood-opacity="0" result="BackgroundImageFix"/>
<feColorMatrix in="SourceAlpha" type="matrix" values="0 0 0 0 0 0 0 0 0 0 0 0 0 0 0 0 0 0 127 0" result="hardAlpha"/>
<feOffset dx="5" dy="5"/>
<feGaussianBlur stdDeviation="2.5"/>
<feComposite in2="hardAlpha" operator="out"/>
<feColorMatrix type="matrix" values="0 0 0 0 0 0 0 0 0 0 0 0 0 0 0 0 0 0 0.3 0"/>
<feBlend mode="normal" in2="BackgroundImageFix" result="effect1_dropShadow_829_7564"/>
<feBlend mode="normal" in="SourceGraphic" in2="effect1_dropShadow_829_7564" result="shape"/>
</filter>
</defs>
</svg>
