<svg width="1728" height="1320" viewBox="0 0 1728 1320" fill="none" xmlns="http://www.w3.org/2000/svg">
<g filter="url(#filter0_f_7035_1178)">
<path fill-rule="evenodd" clip-rule="evenodd" d="M1605.66 204.474C1644.83 199.31 1686.79 180.505 1720.03 196.002C1755.09 212.346 1763.48 247.076 1760.42 276.625C1757.55 304.285 1729.72 325.006 1704.44 346.257C1675.31 370.742 1650.63 410.754 1605.66 406.716C1560.15 402.631 1557.86 355.777 1529.2 330.524C1506.58 310.598 1458.44 302.143 1458 276.625C1457.56 251.076 1497.53 235.96 1527.32 221.403C1550.65 210.001 1577.75 208.152 1605.66 204.474Z" fill="#9DC4FF"/>
</g>
<g filter="url(#filter1_f_7035_1178)">
<path fill-rule="evenodd" clip-rule="evenodd" d="M1642.81 574.322C1670.76 578.792 1684.71 607.531 1706.2 626.018C1731.18 647.507 1779.77 656.756 1776.88 689.652C1773.93 723.199 1724.55 725.404 1695.93 742.975C1678.06 753.949 1663 766.323 1642.81 771.961C1611.15 780.803 1574.83 804.145 1548.74 784.083C1522.61 763.996 1534.56 722.661 1535.77 689.652C1536.9 658.507 1534.22 624.699 1555.39 601.897C1577.03 578.575 1611.45 569.307 1642.81 574.322Z" fill="#9DC4FF"/>
</g>
<g filter="url(#filter2_f_7035_1178)">
<path fill-rule="evenodd" clip-rule="evenodd" d="M1322.25 219.93C1341.98 223.073 1351.83 243.282 1367.01 256.282C1384.65 271.393 1418.95 277.897 1416.91 301.029C1414.83 324.619 1379.97 326.17 1359.76 338.526C1347.14 346.243 1336.5 354.944 1322.25 358.908C1299.89 365.126 1274.24 381.54 1255.82 367.433C1237.37 353.308 1245.81 324.241 1246.66 301.029C1247.46 279.128 1245.57 255.355 1260.51 239.32C1275.8 222.921 1300.1 216.403 1322.25 219.93Z" fill="#9DC4FF"/>
</g>
<g filter="url(#filter3_f_7035_1178)">
<path fill-rule="evenodd" clip-rule="evenodd" d="M1383.09 265.05C1389.87 265.72 1390.04 273.638 1395.71 276.438C1401.78 279.433 1412.53 276.629 1416.07 281.322C1419.44 285.79 1412.78 290.89 1410.2 295.633C1407.82 300 1406.92 305.227 1401.62 307.873C1396.36 310.496 1389.22 310.4 1383.09 309.158C1377.8 308.087 1374.41 304.616 1370.75 301.621C1367.86 299.257 1366.12 296.516 1364.17 293.682C1361.78 290.212 1357.39 287.074 1358.07 283.219C1358.79 279.193 1363.78 276.527 1367.72 273.67C1372.41 270.258 1376.53 264.402 1383.09 265.05Z" fill="#FF8A82"/>
</g>
<g filter="url(#filter4_f_7035_1178)">
<path fill-rule="evenodd" clip-rule="evenodd" d="M1579.09 464.05C1585.87 464.72 1586.04 472.638 1591.71 475.438C1597.78 478.433 1608.53 475.629 1612.07 480.322C1615.44 484.79 1608.78 489.89 1606.2 494.633C1603.82 499 1602.92 504.227 1597.62 506.873C1592.36 509.496 1585.22 509.4 1579.09 508.158C1573.8 507.087 1570.41 503.616 1566.75 500.621C1563.86 498.257 1562.12 495.516 1560.17 492.682C1557.78 489.212 1553.39 486.074 1554.07 482.219C1554.79 478.193 1559.78 475.527 1563.72 472.67C1568.41 469.258 1572.53 463.402 1579.09 464.05Z" fill="#8DFFA6"/>
</g>
<g filter="url(#filter5_f_7035_1178)">
<path fill-rule="evenodd" clip-rule="evenodd" d="M414.576 731.174C437.135 733.378 460.745 733.571 478.992 747.066C497.173 760.512 512.311 781.298 512.986 803.953C513.621 825.236 492.082 839.232 482.301 858.127C474.737 872.739 474.406 890.841 462.272 901.926C449.39 913.695 431.997 920.02 414.576 920C397.167 919.98 381.348 911.648 366.959 901.815C352.154 891.699 336.748 880.319 331.402 863.164C326.081 846.086 337.53 829.172 338.762 811.322C340.594 784.795 322.111 752.804 340.353 733.519C357.822 715.051 389.321 728.706 414.576 731.174Z" fill="#9DC4FF"/>
</g>
<g filter="url(#filter6_f_7035_1178)">
<path fill-rule="evenodd" clip-rule="evenodd" d="M180.665 353.562C204.04 343.725 233.902 355.688 253.183 372.073C272.014 388.075 271.22 416.545 281.246 439.036C290.052 458.79 305.365 475.272 308.701 496.615C312.333 519.844 312.902 545.173 301.02 565.514C289.142 585.848 267.86 601.975 244.58 606.383C222.441 610.575 202.862 592.18 180.665 588.304C163.243 585.262 145.337 591.642 128.547 586.122C109.623 579.9 91.0951 570.515 78.9286 554.855C66.0929 538.334 59.2006 517.469 59.0068 496.615C58.8122 475.674 62.7593 452.413 77.8403 437.752C92.6598 423.345 120.688 434.198 136.691 421.095C157.89 403.738 155.357 364.212 180.665 353.562Z" fill="#9DC4FF"/>
</g>
<g filter="url(#filter7_f_7035_1178)">
<path fill-rule="evenodd" clip-rule="evenodd" d="M690.869 215.001C715.218 215.181 734.668 233.559 753.489 249.003C771.211 263.546 792.942 278.342 795.775 301.088C798.537 323.269 775.122 339.047 767.311 359.99C760.026 379.523 766.239 403.955 751.798 418.994C736.579 434.845 712.217 444.827 690.869 439.602C670.091 434.517 666.929 404.26 648.342 393.675C625.465 380.646 590.688 393.523 574.088 373.093C557.307 352.438 558.044 319.884 568.511 295.419C578.683 271.642 605.959 262.281 627.574 248.074C647.966 234.672 666.466 214.821 690.869 215.001Z" fill="#9DC4FF"/>
</g>
<defs>
<filter id="filter0_f_7035_1178" x="1058" y="-210" width="1103" height="1017" filterUnits="userSpaceOnUse" color-interpolation-filters="sRGB">
<feFlood flood-opacity="0" result="BackgroundImageFix"/>
<feBlend mode="normal" in="SourceGraphic" in2="BackgroundImageFix" result="shape"/>
<feGaussianBlur stdDeviation="200" result="effect1_foregroundBlur_7035_1178"/>
</filter>
<filter id="filter1_f_7035_1178" x="1132" y="173" width="1045" height="1019" filterUnits="userSpaceOnUse" color-interpolation-filters="sRGB">
<feFlood flood-opacity="0" result="BackgroundImageFix"/>
<feBlend mode="normal" in="SourceGraphic" in2="BackgroundImageFix" result="shape"/>
<feGaussianBlur stdDeviation="200" result="effect1_foregroundBlur_7035_1178"/>
</filter>
<filter id="filter2_f_7035_1178" x="844" y="-181" width="973" height="954" filterUnits="userSpaceOnUse" color-interpolation-filters="sRGB">
<feFlood flood-opacity="0" result="BackgroundImageFix"/>
<feBlend mode="normal" in="SourceGraphic" in2="BackgroundImageFix" result="shape"/>
<feGaussianBlur stdDeviation="200" result="effect1_foregroundBlur_7035_1178"/>
</filter>
<filter id="filter3_f_7035_1178" x="958" y="-135" width="859" height="845" filterUnits="userSpaceOnUse" color-interpolation-filters="sRGB">
<feFlood flood-opacity="0" result="BackgroundImageFix"/>
<feBlend mode="normal" in="SourceGraphic" in2="BackgroundImageFix" result="shape"/>
<feGaussianBlur stdDeviation="200" result="effect1_foregroundBlur_7035_1178"/>
</filter>
<filter id="filter4_f_7035_1178" x="1154" y="64" width="859" height="845" filterUnits="userSpaceOnUse" color-interpolation-filters="sRGB">
<feFlood flood-opacity="0" result="BackgroundImageFix"/>
<feBlend mode="normal" in="SourceGraphic" in2="BackgroundImageFix" result="shape"/>
<feGaussianBlur stdDeviation="200" result="effect1_foregroundBlur_7035_1178"/>
</filter>
<filter id="filter5_f_7035_1178" x="-70" y="324" width="983" height="996" filterUnits="userSpaceOnUse" color-interpolation-filters="sRGB">
<feFlood flood-opacity="0" result="BackgroundImageFix"/>
<feBlend mode="normal" in="SourceGraphic" in2="BackgroundImageFix" result="shape"/>
<feGaussianBlur stdDeviation="200" result="effect1_foregroundBlur_7035_1178"/>
</filter>
<filter id="filter6_f_7035_1178" x="-341" y="-50" width="1052" height="1057" filterUnits="userSpaceOnUse" color-interpolation-filters="sRGB">
<feFlood flood-opacity="0" result="BackgroundImageFix"/>
<feBlend mode="normal" in="SourceGraphic" in2="BackgroundImageFix" result="shape"/>
<feGaussianBlur stdDeviation="200" result="effect1_foregroundBlur_7035_1178"/>
</filter>
<filter id="filter7_f_7035_1178" x="161" y="-185" width="1035" height="1026" filterUnits="userSpaceOnUse" color-interpolation-filters="sRGB">
<feFlood flood-opacity="0" result="BackgroundImageFix"/>
<feBlend mode="normal" in="SourceGraphic" in2="BackgroundImageFix" result="shape"/>
<feGaussianBlur stdDeviation="200" result="effect1_foregroundBlur_7035_1178"/>
</filter>
</defs>
</svg>
